<svg width="627" height="626" viewBox="0 0 627 626" fill="none" xmlns="http://www.w3.org/2000/svg">
<g clip-path="url(#clip0_26_7841)">
<path d="M417.317 174.703L627.008 59.6055V511.797L417.317 626V174.703Z" fill="#B9BE45"/>
<path d="M417.317 174.702L0.00782924 115.096L213.798 -0.000976562L627.008 59.6046L417.317 174.702Z" fill="#C3C84A"/>
<path d="M417.316 174.702V625.999L0.00714486 564.411V115.097L417.316 174.702Z" fill="#E6E6E5"/>
<path d="M266.972 523.074L230.321 517.802L222.974 467.291L174.464 460.63L168.031 508.698L127.965 503.252L168.055 234.169L226.216 242.534L226.792 243.442L266.977 523.074H266.972ZM199.692 290.656L180.401 423.964L218 428.918L199.692 290.651V290.656Z" fill="#2A2425"/>
</g>
<defs>
<clipPath id="clip0_26_7841">
<rect width="627" height="626" fill="white" transform="matrix(-1 0 0 1 627 0)"/>
</clipPath>
</defs>
</svg>
