<svg width="72" height="72" viewBox="0 0 72 72" fill="none" xmlns="http://www.w3.org/2000/svg">
<g clip-path="url(#clip0_521_4754)">
<path d="M24.0748 20.0942L-0.00390625 6.85547V58.8649L24.0748 71.9997V20.0942Z" fill="#231F20"/>
<path d="M24.0748 20.0946L71.9961 13.2388L47.4453 0L-0.00390625 6.85579L24.0748 20.0946Z" fill="#2E2C2D"/>
<path d="M24.0781 20.0941V71.9995L71.9994 64.9168V13.2383L24.0781 20.0941Z" fill="#E0E454"/>
</g>
<path d="M49.2988 58.355C44.91 58.5113 42.4198 55.996 42.2576 51.4446L41.725 36.4902C41.5628 31.9389 43.8678 29.2528 48.2565 29.0964C52.6453 28.9401 55.1355 31.4554 55.2977 36.0068L55.8304 50.9611C55.9925 55.5125 53.6876 58.1986 49.2988 58.355ZM49.154 54.2913C50.5763 54.2406 51.4428 53.4367 51.3704 51.4048L50.8175 35.8815C50.7451 33.8497 49.8236 33.1094 48.4013 33.1601C46.979 33.2108 46.1125 34.0147 46.1849 36.0466L46.7378 51.5699C46.8102 53.6017 47.7317 54.3419 49.154 54.2913Z" fill="black"/>
<defs>
<clipPath id="clip0_521_4754">
<rect width="72" height="72" fill="white"/>
</clipPath>
</defs>
</svg>
