<svg width="72" height="72" viewBox="0 0 72 72" fill="none" xmlns="http://www.w3.org/2000/svg">
<g clip-path="url(#clip0_521_4756)">
<path d="M24.0748 20.0942L-0.00390625 6.85547V58.8649L24.0748 71.9997V20.0942Z" fill="#231F20"/>
<path d="M24.0748 20.0946L71.9961 13.2388L47.4453 0L-0.00390625 6.85579L24.0748 20.0946Z" fill="#2E2C2D"/>
<path d="M24.0781 20.0941V71.9995L71.9994 64.9168V13.2383L24.0781 20.0941Z" fill="#E0E454"/>
</g>
<path d="M43.1322 58.2034L43.0222 55.115C42.8716 50.8887 43.9183 48.2881 47.126 44.6746C50.4107 40.9363 51.3179 38.9917 51.2238 36.3503C51.1327 33.7901 50.214 33.1312 48.7917 33.1818C47.3695 33.2325 46.5029 34.0364 46.5753 36.0683L46.6839 39.116L42.4577 39.2666L42.3592 36.5033C42.1971 31.9519 44.3801 29.2701 48.7689 29.1138C53.1577 28.9575 55.526 31.4772 55.6881 36.0285C55.8083 39.4013 54.5308 42.3764 50.5422 46.9128C47.9615 49.853 47.3242 51.3811 47.3952 53.3723L47.4169 53.9819L55.91 53.6794L56.0547 57.7431L43.1322 58.2034Z" fill="black"/>
<defs>
<clipPath id="clip0_521_4756">
<rect width="72" height="72" fill="white"/>
</clipPath>
</defs>
</svg>
