<svg width="72" height="72" viewBox="0 0 72 72" fill="none" xmlns="http://www.w3.org/2000/svg">
<g clip-path="url(#clip0_521_4757)">
<path d="M24.0748 20.0942L-0.00390625 6.85547V58.8649L24.0748 71.9997V20.0942Z" fill="#231F20"/>
<path d="M24.0748 20.0946L71.9961 13.2388L47.4453 0L-0.00390625 6.85579L24.0748 20.0946Z" fill="#2E2C2D"/>
<path d="M24.0781 20.0941V71.9995L71.9994 64.9168V13.2383L24.0781 20.0941Z" fill="#E0E454"/>
</g>
<path d="M49.6486 58.3781C45.2598 58.5345 42.8944 56.096 42.7323 51.5447L42.6498 49.2284L46.876 49.0779L46.9657 51.5974C47.0381 53.6292 47.9596 54.3695 49.3819 54.3188C50.8042 54.2681 51.6736 53.5455 51.5839 51.026L51.5014 48.7097C51.4073 46.0683 50.4785 45.1248 48.4467 45.1972L46.9431 45.2508L46.7983 41.1871L48.4238 41.1292C50.0899 41.0698 51.0798 40.3022 50.9987 38.0265L50.9249 35.954C50.8525 33.9222 49.8889 33.1427 48.5886 33.1891C47.2882 33.2354 46.4623 34.0379 46.5289 35.9072L46.5955 37.7765L42.3692 37.927L42.3157 36.4235C42.1536 31.8721 44.3395 29.2716 48.6064 29.1196C52.8732 28.9676 55.2372 31.3654 55.3993 35.9167L55.4355 36.9326C55.5441 39.9804 54.6354 41.8844 52.4699 42.7753L52.4728 42.8566C54.9022 43.6652 55.8701 45.7059 55.9729 48.5911L56.0626 51.1106C56.2247 55.6619 54.0374 58.2218 49.6486 58.3781Z" fill="black"/>
<defs>
<clipPath id="clip0_521_4757">
<rect width="72" height="72" fill="white"/>
</clipPath>
</defs>
</svg>
