<svg width="72" height="72" viewBox="0 0 72 72" fill="none" xmlns="http://www.w3.org/2000/svg">
<g clip-path="url(#clip0_521_4758)">
<path d="M24.0748 20.0942L-0.00390625 6.85547V58.8649L24.0748 71.9997V20.0942Z" fill="#231F20"/>
<path d="M24.0748 20.0946L71.9961 13.2388L47.4453 0L-0.00390625 6.85579L24.0748 20.0946Z" fill="#2E2C2D"/>
<path d="M24.0781 20.0941V71.9995L71.9994 64.9168V13.2383L24.0781 20.0941Z" fill="#E0E454"/>
</g>
<path d="M49.2596 57.9139L49.0757 52.753L40.542 53.057L40.3972 48.9933L47.8399 29.4825L52.7164 29.3088L53.401 48.5301L55.5142 48.4548L55.6589 52.5185L53.5458 52.5938L53.7296 57.7546L49.2596 57.9139ZM44.4609 48.8485L48.931 48.6893L48.5286 37.3922L44.4609 48.8485Z" fill="black"/>
<defs>
<clipPath id="clip0_521_4758">
<rect width="72" height="72" fill="white"/>
</clipPath>
</defs>
</svg>
