<svg width="72" height="72" viewBox="0 0 72 72" fill="none" xmlns="http://www.w3.org/2000/svg">
<g clip-path="url(#clip0_521_4759)">
<path d="M24.0748 20.0942L-0.00390625 6.85547V58.8649L24.0748 71.9997V20.0942Z" fill="#231F20"/>
<path d="M24.0748 20.0946L71.9961 13.2388L47.4453 0L-0.00390625 6.85579L24.0748 20.0946Z" fill="#2E2C2D"/>
<path d="M24.0781 20.0941V71.9995L71.9994 64.9168V13.2383L24.0781 20.0941Z" fill="#E0E454"/>
</g>
<path d="M50.0143 58.3651C45.6255 58.5214 43.2572 56.0017 43.0951 51.4504L43.0155 49.2154L47.2417 49.0648L47.3329 51.625C47.4053 53.6568 48.3254 54.3564 49.7476 54.3058C51.1699 54.2551 52.0379 53.4918 51.9655 51.4599L51.7383 45.08C51.6659 43.0481 50.7444 42.3079 49.3221 42.3585C47.8998 42.4092 47.0333 43.2131 47.1056 45.245L47.1143 45.4888L42.8881 45.6393L43.1349 29.7214L54.9195 29.3016L55.0643 33.3653L47.262 33.6432L47.138 40.4426C47.903 39.0726 49.218 38.2934 51.006 38.2297C54.2976 38.1124 56.0462 40.3694 56.1953 44.555L56.424 50.9756C56.5861 55.527 54.4031 58.2088 50.0143 58.3651Z" fill="black"/>
<defs>
<clipPath id="clip0_521_4759">
<rect width="72" height="72" fill="white"/>
</clipPath>
</defs>
</svg>
