<svg width="72" height="72" viewBox="0 0 72 72" fill="none" xmlns="http://www.w3.org/2000/svg">
<g clip-path="url(#clip0_521_4760)">
<path d="M24.0748 20.0942L-0.00390625 6.85547V58.8649L24.0748 71.9997V20.0942Z" fill="#231F20"/>
<path d="M24.0748 20.0946L71.9961 13.2388L47.4453 0L-0.00390625 6.85579L24.0748 20.0946Z" fill="#2E2C2D"/>
<path d="M24.0781 20.0941V71.9995L71.9994 64.9168V13.2383L24.0781 20.0941Z" fill="#E0E454"/>
</g>
<path d="M49.2988 58.355C44.91 58.5113 42.4198 55.996 42.2576 51.4446L41.7336 36.7341C41.5628 31.9389 43.6646 29.26 48.2972 29.095C52.686 28.9386 55.0543 31.4583 55.2164 36.0097L55.2352 36.5379L51.009 36.6885L50.98 35.8758C50.9077 33.8439 49.9861 33.1037 48.5638 33.1543C46.979 33.2108 46.1125 34.0147 46.2095 36.7374L46.4035 42.1827C47.2381 40.4848 48.5908 39.6228 50.4601 39.5562C53.7517 39.439 55.5003 41.6959 55.6494 45.8815L55.8304 50.9611C55.9925 55.5125 53.6876 58.1986 49.2988 58.355ZM49.154 54.2913C50.6982 54.2363 51.4385 53.3148 51.3719 51.4455L51.1924 46.4065C51.1244 44.4966 50.3204 43.6301 48.7762 43.6851C47.232 43.7401 46.4918 44.6616 46.5598 46.5715L46.7393 51.6105C46.8059 53.4798 47.6098 54.3463 49.154 54.2913Z" fill="black"/>
<defs>
<clipPath id="clip0_521_4760">
<rect width="72" height="72" fill="white"/>
</clipPath>
</defs>
</svg>
