<svg width="72" height="72" viewBox="0 0 72 72" fill="none" xmlns="http://www.w3.org/2000/svg">
<g clip-path="url(#clip0_521_4762)">
<path d="M24.0748 20.0942L-0.00390625 6.85547V58.8649L24.0748 71.9997V20.0942Z" fill="#231F20"/>
<path d="M24.0748 20.0946L71.9961 13.2388L47.4453 0L-0.00390625 6.85579L24.0748 20.0946Z" fill="#2E2C2D"/>
<path d="M24.0781 20.0941V71.9995L71.9994 64.9168V13.2383L24.0781 20.0941Z" fill="#E0E454"/>
</g>
<path d="M49.2058 58.8569C44.6951 59.0176 42.1279 56.627 41.9658 52.0757L41.8761 49.5562C41.7791 46.8335 42.5209 44.8134 44.5949 43.6409L44.592 43.5596C42.6865 42.6103 41.7288 40.8541 41.629 38.0502L41.5841 36.7904C41.422 32.2391 43.8154 29.7532 48.1636 29.5983C52.5117 29.4435 55.076 31.7527 55.2381 36.3041L55.2829 37.5638C55.3828 40.3677 54.5119 42.1891 52.7194 43.2701L52.7223 43.3514C54.8745 44.3733 55.7582 46.3356 55.8551 49.0582L55.9449 51.5777C56.107 56.1291 53.7165 58.6962 49.2058 58.8569ZM48.5906 41.5862C50.1348 41.5312 50.9128 40.527 50.8462 38.6577L50.7637 36.3414C50.6971 34.4721 49.8525 33.607 48.3083 33.662C46.7641 33.717 45.9832 34.64 46.0498 36.5093L46.1323 38.8256C46.1989 40.6949 47.0464 41.6412 48.5906 41.5862ZM49.061 54.7932C50.7271 54.7339 51.5429 53.6469 51.4662 51.4931L51.3692 48.7705C51.2925 46.6167 50.4014 45.5906 48.7353 45.6499C47.0692 45.7093 46.2535 46.7962 46.3302 48.95L46.4272 51.6726C46.5039 53.8264 47.3949 54.8526 49.061 54.7932Z" fill="black"/>
<defs>
<clipPath id="clip0_521_4762">
<rect width="72" height="72" fill="white"/>
</clipPath>
</defs>
</svg>
