<svg width="72" height="72" viewBox="0 0 72 72" fill="none" xmlns="http://www.w3.org/2000/svg">
<g clip-path="url(#clip0_521_4763)">
<path d="M24.0748 20.0942L-0.00390625 6.85547V58.8649L24.0748 71.9997V20.0942Z" fill="#231F20"/>
<path d="M24.0748 20.0946L71.9961 13.2388L47.4453 0L-0.00390625 6.85579L24.0748 20.0946Z" fill="#2E2C2D"/>
<path d="M24.0781 20.0941V71.9995L71.9994 64.9168V13.2383L24.0781 20.0941Z" fill="#E0E454"/>
</g>
<path d="M49.251 58.8656C44.8622 59.0219 42.4939 56.5022 42.3318 51.9509L42.313 51.4226L46.5392 51.2721L46.5682 52.0848C46.6405 54.1166 47.5621 54.8569 48.9844 54.8062C50.5692 54.7498 51.4357 53.9458 51.3387 51.2232L51.1447 45.7778C50.3101 47.4758 48.9574 48.3377 47.0881 48.4043C43.7965 48.5216 42.0479 46.2646 41.8988 42.079L41.7178 36.9994C41.5557 32.4481 43.8606 29.7619 48.2494 29.6056C52.6382 29.4492 55.1284 31.9646 55.2906 36.5159L55.8146 51.2265C55.9854 56.0216 53.8836 58.7006 49.251 58.8656ZM48.772 44.2755C50.3162 44.2205 51.0564 43.299 50.9884 41.389L50.8089 36.3501C50.7423 34.4808 49.9384 33.6143 48.3942 33.6693C46.85 33.7243 46.1097 34.6458 46.1763 36.5151L46.3558 41.5541C46.4238 43.464 47.2278 44.3305 48.772 44.2755Z" fill="black"/>
<defs>
<clipPath id="clip0_521_4763">
<rect width="72" height="72" fill="white"/>
</clipPath>
</defs>
</svg>
