<svg width="72" height="72" viewBox="0 0 72 72" fill="none" xmlns="http://www.w3.org/2000/svg">
<path d="M24.0787 20.0942L0 6.85547V58.8649L24.0787 71.9997V20.0942Z" fill="#231F20"/>
<path d="M24.0787 20.0946L72 13.2388L47.4492 0L0 6.85579L24.0787 20.0946Z" fill="#2E2C2D"/>
<path d="M24.082 20.0941V71.9995L72.0033 64.9168V13.2383L24.082 20.0941Z" fill="#E0E454"/>
<path d="M48.3078 28.2441C50.6377 28.1611 52.3366 28.6431 53.4047 29.6901C54.4998 30.7361 55.0865 32.3563 55.1647 34.5507L55.2009 35.5666C55.253 37.0295 55.0656 38.2433 54.6389 39.2079C54.2121 40.1725 53.5057 40.9029 52.5197 41.3992C53.7553 41.8163 54.6357 42.5445 55.1609 43.5837C55.7123 44.5948 56.0151 45.8589 56.0691 47.376L56.1516 49.6923C56.2298 51.8867 55.7207 53.5866 54.6244 54.7921C53.5271 55.9705 51.8541 56.5997 49.6055 56.6798L42.5754 56.9302L41.5621 28.4844L48.3078 28.2441ZM46.5894 43.9704L46.9007 52.7073L49.4608 52.6161C50.2193 52.5891 50.781 52.3656 51.1458 51.9457C51.5377 51.5249 51.7148 50.7862 51.6772 49.7296L51.5889 47.2508C51.5416 45.9233 51.279 45.024 50.8011 44.5527C50.3503 44.0805 49.6101 43.8628 48.5807 43.8994L46.5894 43.9704ZM46.1769 32.3889L46.4447 39.9067L48.1921 39.8444C49.0319 39.8145 49.6744 39.5746 50.1195 39.1248C50.5917 38.6739 50.8075 37.8796 50.767 36.7418L50.7105 35.1569C50.6739 34.1275 50.4577 33.3892 50.062 32.9422C49.6934 32.4942 49.1163 32.2841 48.3307 32.3121L46.1769 32.3889Z" fill="black"/>
</svg>
