<svg width="72" height="72" viewBox="0 0 72 72" fill="none" xmlns="http://www.w3.org/2000/svg">
<g clip-path="url(#clip0_521_4704)">
<path d="M24.0748 20.0942L-0.00390625 6.85547V58.8649L24.0748 71.9997V20.0942Z" fill="#231F20"/>
<path d="M24.0748 20.0946L71.9961 13.2388L47.4453 0L-0.00390625 6.85579L24.0748 20.0946Z" fill="#2E2C2D"/>
<path d="M24.0781 20.0941V71.9995L71.9994 64.9168V13.2383L24.0781 20.0941Z" fill="#E0E454"/>
</g>
<path d="M41.773 28.7344L48.8438 28.4825C51.0924 28.4024 52.7798 28.9391 53.9059 30.0925C55.0591 31.2449 55.6767 32.9726 55.7587 35.2753L56.2711 49.6608C56.3532 51.9635 55.86 53.7307 54.7918 54.9623C53.7506 56.1929 52.1057 56.8482 49.8571 56.9283L42.7863 57.1802L41.773 28.7344ZM46.3878 32.6389L47.1116 52.9573L49.6311 52.8675C50.3355 52.8425 50.8836 52.6195 51.2755 52.1986C51.6674 51.7778 51.845 51.0526 51.8083 50.0232L51.2814 35.2314C51.2447 34.2019 51.016 33.4912 50.5951 33.0993C50.1743 32.7074 49.6117 32.524 48.9073 32.5491L46.3878 32.6389Z" fill="black"/>
<defs>
<clipPath id="clip0_521_4704">
<rect width="72" height="72" fill="white"/>
</clipPath>
</defs>
</svg>
