<svg width="72" height="72" viewBox="0 0 72 72" fill="none" xmlns="http://www.w3.org/2000/svg">
<g clip-path="url(#clip0_521_4707)">
<path d="M24.0748 20.0942L-0.00390625 6.85547V58.8649L24.0748 71.9997V20.0942Z" fill="#231F20"/>
<path d="M24.0748 20.0946L71.9961 13.2388L47.4453 0L-0.00390625 6.85579L24.0748 20.0946Z" fill="#2E2C2D"/>
<path d="M24.0781 20.0941V71.9995L71.9994 64.9168V13.2383L24.0781 20.0941Z" fill="#E0E454"/>
</g>
<path d="M48.9229 41.093L55.181 40.8701L55.5024 49.8915C55.5844 52.1942 55.0787 53.989 53.9852 55.2757C52.9179 56.5344 51.2871 57.2028 49.0927 57.2809C46.8983 57.3591 45.2105 56.8089 44.0292 55.6303C42.8741 54.4237 42.2555 52.669 42.1735 50.3662L41.6466 35.5744C41.5645 33.2717 42.0572 31.4909 43.1245 30.2323C44.2179 28.9455 45.8619 28.2631 48.0563 28.1849C50.2506 28.1068 51.9254 28.671 53.0805 29.8776C54.2618 31.0562 54.8934 32.7969 54.9755 35.0996L55.0739 37.8629L50.8477 38.0135L50.7391 34.9657C50.7024 33.9362 50.4601 33.226 50.0122 32.8351C49.5904 32.4161 49.0273 32.2192 48.3229 32.2443C47.6185 32.2694 47.0574 32.5064 46.6393 32.9553C46.2474 33.3761 46.0698 34.1013 46.1065 35.1307L46.6537 50.4915C46.6903 51.5209 46.9191 52.2316 47.3399 52.6235C47.7879 53.0144 48.364 53.1974 49.0684 53.1723C49.7728 53.1472 50.3209 52.9242 50.7128 52.5034C51.1318 52.0816 51.3229 51.3559 51.2863 50.3265L51.0995 45.0843L49.0677 45.1567L48.9229 41.093Z" fill="black"/>
<defs>
<clipPath id="clip0_521_4707">
<rect width="72" height="72" fill="white"/>
</clipPath>
</defs>
</svg>
