<svg width="72" height="72" viewBox="0 0 72 72" fill="none" xmlns="http://www.w3.org/2000/svg">
<g clip-path="url(#clip0_521_4710)">
<path d="M24.0748 20.0942L-0.00390625 6.85547V58.8649L24.0748 71.9997V20.0942Z" fill="#231F20"/>
<path d="M24.0748 20.0946L71.9961 13.2388L47.4453 0L-0.00390625 6.85579L24.0748 20.0946Z" fill="#2E2C2D"/>
<path d="M24.0781 20.0941V71.9995L71.9994 64.9168V13.2383L24.0781 20.0941Z" fill="#E0E454"/>
</g>
<path d="M42.4185 53.1599C42.6633 53.1784 42.9212 53.1827 43.1921 53.1731C43.463 53.1634 43.7204 53.1543 43.9642 53.1456C44.6686 53.1205 45.2583 52.9232 45.7334 52.5536C46.2356 52.1831 46.4669 51.4425 46.4273 50.3317L45.6543 28.6316L50.1244 28.4724L50.8858 49.8474C50.9369 51.2832 50.8028 52.468 50.4835 53.4016C50.1641 54.3353 49.716 55.0836 49.1393 55.6467C48.5617 56.1826 47.8839 56.573 47.1059 56.8177C46.3551 57.0614 45.5598 57.1983 44.7199 57.2282C44.3136 57.2427 43.9478 57.2557 43.6227 57.2673C43.2976 57.2789 42.9445 57.2643 42.5633 57.2236L42.4185 53.1599Z" fill="black"/>
<defs>
<clipPath id="clip0_521_4710">
<rect width="72" height="72" fill="white"/>
</clipPath>
</defs>
</svg>
