<svg width="72" height="72" viewBox="0 0 72 72" fill="none" xmlns="http://www.w3.org/2000/svg">
<g clip-path="url(#clip0_521_4715)">
<path d="M24.0748 20.0942L-0.00390625 6.85547V58.8649L24.0748 71.9997V20.0942Z" fill="#231F20"/>
<path d="M24.0748 20.0946L71.9961 13.2388L47.4453 0L-0.00390625 6.85579L24.0748 20.0946Z" fill="#2E2C2D"/>
<path d="M24.0781 20.0941V71.9995L71.9994 64.9168V13.2383L24.0781 20.0941Z" fill="#E0E454"/>
</g>
<path d="M46.6537 50.4915C46.6903 51.5209 46.9196 52.2452 47.3414 52.6642C47.7893 53.0551 48.3655 53.238 49.0698 53.2129C49.7742 53.1878 50.3224 52.9648 50.7142 52.544C51.1323 52.0951 51.3229 51.3559 51.2863 50.3265L50.7391 34.9657C50.7024 33.9362 50.4601 33.226 50.0122 32.8351C49.5904 32.4161 49.0273 32.2192 48.3229 32.2443C47.6185 32.2694 47.0574 32.5064 46.6393 32.9553C46.2474 33.3761 46.0698 34.1013 46.1065 35.1307L46.6537 50.4915ZM41.6466 35.5744C41.5645 33.2717 42.0843 31.49 43.2058 30.2294C44.3263 28.9417 45.9838 28.2588 48.1782 28.1806C50.3726 28.1024 52.0744 28.6657 53.2837 29.8704C54.4921 31.048 55.1373 32.7882 55.2193 35.0909L55.7462 49.8828C55.8282 52.1855 55.309 53.9807 54.1884 55.2684C53.0669 56.529 51.409 57.1984 49.2146 57.2766C47.0202 57.3548 45.3188 56.805 44.1105 55.6274C42.9012 54.4227 42.2555 52.669 42.1735 50.3662L41.6466 35.5744Z" fill="black"/>
<defs>
<clipPath id="clip0_521_4715">
<rect width="72" height="72" fill="white"/>
</clipPath>
</defs>
</svg>
