<svg width="72" height="72" viewBox="0 0 72 72" fill="none" xmlns="http://www.w3.org/2000/svg">
<g clip-path="url(#clip0_521_4716)">
<path d="M24.0748 20.0942L-0.00390625 6.85547V58.8649L24.0748 71.9997V20.0942Z" fill="#231F20"/>
<path d="M24.0748 20.0946L71.9961 13.2388L47.4453 0L-0.00390625 6.85579L24.0748 20.0946Z" fill="#2E2C2D"/>
<path d="M24.0781 20.0941V71.9995L71.9994 64.9168V13.2383L24.0781 20.0941Z" fill="#E0E454"/>
</g>
<path d="M48.3523 28.4999C50.6009 28.4198 52.2882 28.9565 53.4143 30.1099C54.5675 31.2623 55.1851 32.9899 55.2672 35.2927L55.3989 38.9906C55.4809 41.2934 54.9878 43.0606 53.9195 44.2921C52.8783 45.5228 51.2334 46.1781 48.9849 46.2582L46.8717 46.3335L47.2524 57.021L42.7824 57.1802L41.7691 28.7344L48.3523 28.4999ZM46.3839 32.6389L46.727 42.2698L48.8401 42.1945C49.5445 42.1694 50.0796 41.9605 50.4453 41.5677C50.8111 41.1749 50.9756 40.4638 50.939 39.4343L50.787 35.1674C50.7503 34.138 50.5356 33.4404 50.1428 33.0746C49.75 32.7088 49.2014 32.5385 48.497 32.5636L46.3839 32.6389Z" fill="black"/>
<defs>
<clipPath id="clip0_521_4716">
<rect width="72" height="72" fill="white"/>
</clipPath>
</defs>
</svg>
