<svg width="72" height="72" viewBox="0 0 72 72" fill="none" xmlns="http://www.w3.org/2000/svg">
<g clip-path="url(#clip0_521_4717)">
<path d="M24.0748 20.0942L-0.00390625 6.85547V58.8649L24.0748 71.9997V20.0942Z" fill="#231F20"/>
<path d="M24.0748 20.0946L71.9961 13.2388L47.4453 0L-0.00390625 6.85579L24.0748 20.0946Z" fill="#2E2C2D"/>
<path d="M24.0781 20.0941V71.9995L71.9994 64.9168V13.2383L24.0781 20.0941Z" fill="#E0E454"/>
</g>
<path d="M41.6466 35.5744C41.5645 33.2717 42.0843 31.49 43.2058 30.2294C44.3263 28.9417 45.9838 28.2588 48.1782 28.1806C50.3726 28.1024 52.0744 28.6657 53.2837 29.8704C54.4921 31.048 55.1373 32.7882 55.2193 35.0909L55.7462 49.8828C55.8031 51.4811 55.566 52.8188 55.0347 53.8956C55.1527 54.1626 55.2944 54.3339 55.4599 54.4094C55.6514 54.4568 55.9369 54.4738 56.3161 54.4603L56.7225 54.4458L56.8644 58.4282L56.2548 58.4499C55.2524 58.4856 54.4199 58.339 53.7571 58.0099C53.1225 57.707 52.645 57.2493 52.3248 56.6369C51.8701 56.8158 51.3868 56.9551 50.8749 57.0547C50.364 57.1814 49.8106 57.2554 49.2146 57.2766C47.0202 57.3548 45.3188 56.805 44.1105 55.6274C42.9012 54.4227 42.2555 52.669 42.1735 50.3662L41.6466 35.5744ZM46.6537 50.4915C46.6903 51.5209 46.9196 52.2452 47.3414 52.6642C47.7893 53.0551 48.3655 53.238 49.0698 53.2129C49.7742 53.1878 50.3224 52.9648 50.7142 52.544C51.1323 52.0951 51.3229 51.3559 51.2863 50.3265L50.7391 34.9657C50.7024 33.9362 50.4601 33.226 50.0122 32.8351C49.5904 32.4161 49.0273 32.2192 48.3229 32.2443C47.6185 32.2694 47.0574 32.5064 46.6393 32.9553C46.2474 33.3761 46.0698 34.1013 46.1065 35.1307L46.6537 50.4915Z" fill="black"/>
<defs>
<clipPath id="clip0_521_4717">
<rect width="72" height="72" fill="white"/>
</clipPath>
</defs>
</svg>
