<svg width="72" height="72" viewBox="0 0 72 72" fill="none" xmlns="http://www.w3.org/2000/svg">
<g clip-path="url(#clip0_521_4718)">
<path d="M24.0748 20.0942L-0.00390625 6.85547V58.8649L24.0748 71.9997V20.0942Z" fill="#231F20"/>
<path d="M24.0748 20.0946L71.9961 13.2388L47.4453 0L-0.00390625 6.85579L24.0748 20.0946Z" fill="#2E2C2D"/>
<path d="M24.0781 20.0941V71.9995L71.9994 64.9168V13.2383L24.0781 20.0941Z" fill="#E0E454"/>
</g>
<path d="M52.1289 56.8473C52.0679 56.6596 52.0075 56.4854 51.9475 56.3248C51.8875 56.1642 51.8261 55.9629 51.7632 55.721C51.7275 55.4782 51.6893 55.1676 51.6487 54.7893C51.6352 54.41 51.6183 53.9359 51.598 53.367L51.4388 48.8969C51.3915 47.5695 51.1279 46.643 50.6481 46.1176C50.1682 45.5922 49.4136 45.3478 48.3841 45.3845L46.8399 45.4395L47.2524 57.021L42.7824 57.1802L41.7691 28.7344L48.5148 28.4941C50.8447 28.4111 52.5436 28.8931 53.6117 29.9401C54.7069 30.9861 55.2935 32.6063 55.3717 34.8007L55.4513 37.0357C55.5555 39.9616 54.6488 41.9198 52.731 42.9104C53.8853 43.3304 54.6844 44.0615 55.1284 45.1035C55.5985 46.1176 55.8601 47.3696 55.9132 48.8596L56.0695 53.2484C56.0946 53.9528 56.1439 54.5749 56.2174 55.1148C56.2899 55.6276 56.4442 56.151 56.6802 56.6852L52.1289 56.8473ZM46.3839 32.6389L46.6951 41.3758L48.4425 41.3135C49.2824 41.2836 49.9248 41.0437 50.3699 40.5939C50.8421 40.143 51.058 39.3487 51.0175 38.2109L50.9176 35.4069C50.8809 34.3775 50.6647 33.6392 50.269 33.1922C49.9004 32.7442 49.3233 32.5341 48.5377 32.5621L46.3839 32.6389Z" fill="black"/>
<defs>
<clipPath id="clip0_521_4718">
<rect width="72" height="72" fill="white"/>
</clipPath>
</defs>
</svg>
