<svg width="72" height="72" viewBox="0 0 72 72" fill="none" xmlns="http://www.w3.org/2000/svg">
<g clip-path="url(#clip0_521_4719)">
<path d="M24.0748 20.0942L-0.00390625 6.85547V58.8649L24.0748 71.9997V20.0942Z" fill="#231F20"/>
<path d="M24.0748 20.0946L71.9961 13.2388L47.4453 0L-0.00390625 6.85579L24.0748 20.0946Z" fill="#2E2C2D"/>
<path d="M24.0781 20.0941V71.9995L71.9994 64.9168V13.2383L24.0781 20.0941Z" fill="#E0E454"/>
</g>
<path d="M41.4434 35.5817C41.3614 33.2789 41.8405 31.4987 42.8807 30.241C43.947 28.9552 45.5774 28.2732 47.7718 28.1951C49.9662 28.1169 51.6274 28.6816 52.7554 29.8892C53.9096 31.0687 54.5277 32.8099 54.6097 35.1127L54.6488 36.2099L50.4226 36.3604L50.3734 34.9787C50.3367 33.9493 50.1079 33.2386 49.6871 32.8467C49.2924 32.4267 48.7428 32.2293 48.0385 32.2544C47.3341 32.2795 46.7864 32.516 46.3955 32.9639C46.0307 33.3838 45.8666 34.1085 45.9033 35.138C45.9381 36.1133 46.1857 36.9725 46.6461 37.7156C47.1057 38.4316 47.6726 39.1167 48.3469 39.7708C49.0202 40.3978 49.7347 41.0369 50.4903 41.6882C51.272 42.3113 52.002 43.0042 52.6801 43.7667C53.3583 44.5291 53.932 45.4038 54.4012 46.3908C54.8703 47.3777 55.129 48.5485 55.1773 49.903C55.2593 52.2058 54.7536 54.0005 53.6602 55.2873C52.5928 56.5459 50.962 57.2144 48.7676 57.2925C46.5732 57.3707 44.8854 56.8205 43.7041 55.6419C42.549 54.4353 41.9304 52.6806 41.8484 50.3778L41.7789 48.4273L46.0051 48.2767L46.0847 50.5117C46.1214 51.5412 46.3502 52.2519 46.771 52.6438C47.219 53.0347 47.7951 53.2176 48.4995 53.1925C49.2039 53.1674 49.752 52.9445 50.1439 52.5236C50.5629 52.1018 50.754 51.3762 50.7174 50.3467C50.6826 49.3714 50.4355 48.5258 49.976 47.8098C49.5155 47.0666 48.9486 46.3816 48.2752 45.7545C47.6009 45.1004 46.8729 44.4618 46.0912 43.8386C45.3356 43.1874 44.6187 42.4805 43.9405 41.718C43.2624 40.9556 42.6887 40.0808 42.2195 39.0939C41.7503 38.107 41.4916 36.9362 41.4434 35.5817Z" fill="black"/>
<defs>
<clipPath id="clip0_521_4719">
<rect width="72" height="72" fill="white"/>
</clipPath>
</defs>
</svg>
