<svg width="72" height="72" viewBox="0 0 72 72" fill="none" xmlns="http://www.w3.org/2000/svg">
<g clip-path="url(#clip0_521_4721)">
<path d="M24.0748 20.0942L-0.00390625 6.85547V58.8649L24.0748 71.9997V20.0942Z" fill="#231F20"/>
<path d="M24.0748 20.0946L71.9961 13.2388L47.4453 0L-0.00390625 6.85579L24.0748 20.0946Z" fill="#2E2C2D"/>
<path d="M24.0781 20.0941V71.9995L71.9994 64.9168V13.2383L24.0781 20.0941Z" fill="#E0E454"/>
</g>
<path d="M46.036 28.5824L46.8177 50.5263C46.8543 51.5558 47.0831 52.2665 47.5039 52.6584C47.9519 53.0493 48.528 53.2322 49.2324 53.2071C49.9368 53.182 50.4849 52.9591 50.8768 52.5382C51.2958 52.1164 51.4869 51.3908 51.4503 50.3613L50.6686 28.4174L54.8948 28.2668L55.6664 49.9263C55.7484 52.2291 55.2427 54.0238 54.1492 55.3105C53.0819 56.5692 51.4511 57.2376 49.2567 57.3158C47.0623 57.394 45.3745 56.8437 44.1932 55.6652C43.0381 54.4585 42.4195 52.7038 42.3375 50.4011L41.5659 28.7416L46.036 28.5824Z" fill="black"/>
<defs>
<clipPath id="clip0_521_4721">
<rect width="72" height="72" fill="white"/>
</clipPath>
</defs>
</svg>
