<svg width="690" height="323" viewBox="0 0 690 323" fill="none" xmlns="http://www.w3.org/2000/svg">
<g clip-path="url(#clip0_521_4958)">
<mask id="mask0_521_4958" style="mask-type:luminance" maskUnits="userSpaceOnUse" x="0" y="0" width="690" height="323">
<path d="M690 0H0V323H690V0Z" fill="white"/>
</mask>
<g mask="url(#mask0_521_4958)">
<path d="M690 0H0V323H690V0Z" fill="#232023"/>
<path d="M591.673 279.466V272.131H555.321V278.243L555.336 279.049C555.625 287.318 560.398 293.722 569.653 298.262C578.908 302.704 592.428 304.994 610.212 305.133L611.946 305.139C630.82 305.139 645.151 302.796 654.937 298.11C664.957 293.423 669.968 286.699 669.968 277.937C669.968 271.424 667.125 265.723 661.439 260.834L660.88 260.364C655.011 255.528 644.44 250.166 629.168 244.278L627.675 243.707C615.092 238.919 606.353 234.843 601.46 231.482C596.945 228.225 594.617 224.728 594.476 220.993L594.469 220.631C594.47 213.805 600.878 210.393 613.694 210.393L614.278 210.395C620.282 210.448 624.864 211.313 628.024 212.99C631.286 214.62 632.918 217.269 632.918 220.937V226.438H669.269V222.007C669.269 213.347 664.491 206.725 654.937 202.14C645.908 197.601 632.614 195.26 615.057 195.118L613.344 195.111C594.703 195.111 580.488 197.454 570.701 202.14C560.914 206.725 556.021 213.245 556.021 221.701L556.03 222.282C556.221 228.265 559.363 233.675 565.458 238.511C571.749 243.401 582.818 248.902 598.663 255.015C611.246 259.803 619.868 263.93 624.529 267.393C629.189 270.755 631.519 274.678 631.519 279.16L631.515 279.51C631.409 283.101 629.663 285.735 626.276 287.412C623.014 289.042 618.121 289.857 611.597 289.857V289.348C617.898 289.348 622.423 288.564 625.399 287.077L625.403 287.075C628.623 285.48 630.354 282.879 630.354 279.16C630.354 274.757 628.067 270.929 623.532 267.657L623.524 267.652C618.96 264.259 610.451 260.176 597.899 255.399L597.893 255.397C582.005 249.268 570.827 243.722 564.443 238.761L564.437 238.757C558.043 233.683 554.856 227.994 554.856 221.701C554.856 213.162 559.8 206.5 569.85 201.793C579.916 196.975 594.48 194.602 613.344 194.602C631.983 194.602 646.214 196.978 655.817 201.806H655.816C665.619 206.516 670.434 213.276 670.434 222.007V226.948H631.753V220.937C631.753 217.314 630.132 214.817 627.147 213.326L627.135 213.32L627.125 213.314C624.134 211.726 619.723 210.902 613.694 210.902C607.532 210.902 603.101 211.717 600.175 213.275C597.214 214.853 595.635 217.275 595.635 220.631C595.635 224.407 597.903 227.932 602.452 231.214C607.257 234.513 615.891 238.547 628.439 243.322L629.937 243.895C645.259 249.802 655.946 255.212 661.909 260.125C668.072 265.203 671.133 271.146 671.133 277.937C671.133 286.777 666.077 293.642 655.798 298.452L655.799 298.453C645.73 303.274 631.044 305.648 611.946 305.648C593.085 305.648 578.63 303.326 568.792 298.606L568.783 298.601C558.977 293.791 554.156 286.98 554.156 278.243V271.621H592.838V279.466C592.838 282.871 594.475 285.33 597.547 286.932C600.586 288.517 605.195 289.348 611.597 289.348V289.857L610.979 289.855C598.108 289.748 591.673 286.285 591.673 279.466Z" fill="#C8D844"/>
<path d="M505.733 21.7529L545.897 301.69H505.132L498.252 247.419H456.541L449.561 301.69H411.59L451.596 22.8606L451.754 21.7529H505.733ZM452.743 23.0734L412.958 300.369H448.556L455.536 246.099H499.16V245.306L506.14 300.369H544.529L504.744 23.0734H452.743ZM477.522 71.4016L494.623 208.466H460.072L476.824 71.4016H477.522ZM461.408 207.145H493.283L477.181 78.0838L461.408 207.145Z" fill="#C8D844"/>
<path d="M402.058 190.428V149.601C402.058 96.0736 392.537 62.9592 373.496 50.2575V48.8953C381.856 42.0908 388.009 30.9764 391.956 15.5533C396.005 0.61222 398.094 -18.5853 398.221 -42.0404L398.226 -44.324V-63.3772C398.226 -99.9926 393.839 -127.157 385.064 -144.872L384.642 -145.71C375.869 -163.287 362.083 -172.351 343.286 -172.901L341.45 -172.927V-175.195C361.333 -175.195 376.096 -166.065 385.463 -147.313L385.898 -146.449C394.965 -128.147 399.387 -100.299 399.387 -63.3772V-44.324C399.387 -19.5992 397.279 0.761202 392.982 16.6165C389.194 31.3933 383.429 42.3426 375.729 49.4357C384.59 56.1766 391.339 67.544 395.929 83.5086C400.819 100.516 403.219 122.599 403.219 149.601V190.428C403.219 227.566 398.169 256.349 387.902 276.406C377.859 296.025 363.119 305.648 343.889 305.648H282.469V-175.195H341.45V-172.927H283.63V303.38H343.889L345.66 303.351C363.532 302.784 377.185 293.564 386.619 275.689L387.081 274.803C396.754 255.907 401.741 228.921 402.043 193.848L402.058 190.428ZM362.582 188.386V146.879C362.582 125.209 360.6 111.021 356.977 103.528L356.954 103.481L356.934 103.43C353.535 95.5445 347.677 91.3098 339.012 91.3098H323.106V233.068H343.889V235.336H321.945V89.0416H339.012C347.837 89.0416 354.106 93.3515 357.822 101.971C361.769 110.136 363.743 125.106 363.743 146.879V188.386C363.743 205.623 362.117 217.872 358.866 225.13C355.615 231.934 350.623 235.336 343.889 235.336V233.068C350.432 233.068 355.055 229.767 358.009 223.597C360.965 216.967 362.582 205.431 362.582 188.386ZM358.75 -29.3552V-55.8928C358.75 -72.9501 357.133 -84.7741 354.139 -91.875L354.126 -91.906L354.113 -91.9393C351.386 -98.9053 346.916 -102.615 340.406 -102.615H323.106V18.7296H336.923V20.9977H321.945V-104.883H340.406C347.14 -104.883 352.016 -101.028 355.035 -93.317C358.286 -85.6055 359.911 -73.1302 359.912 -55.8928V-29.3552C359.912 -11.2102 357.938 1.71947 353.991 9.43112L353.636 10.1421C349.917 17.3789 344.346 20.9976 336.923 20.9977V18.7296C344.401 18.7295 349.727 14.9703 353.145 7.87621L353.157 7.84962L353.17 7.82747C356.793 0.749284 358.75 -11.4339 358.75 -29.3552Z" fill="#C8D844"/>
<path d="M259.746 97.1177H193.617V42.3393H246.172V16.861H193.617V-30.274H259.746V-55.7523H155.332V122.596H259.746V97.1177ZM260.906 -29.4247H194.777V16.0117H247.332V43.1886H194.777V96.2684H260.906V123.445H154.172V-56.6016H260.906V-29.4247Z" fill="#C8D844"/>
<path d="M131.987 237.575V213.455C131.987 181.83 122.467 162.266 103.426 154.762V153.957C111.785 149.937 117.938 143.37 121.886 134.258C125.935 125.431 128.024 114.089 128.15 100.232L128.156 98.8824V87.6256C128.156 65.993 123.768 49.9436 114.993 39.4775L114.572 38.9829C105.798 28.5978 92.0131 23.2428 73.2156 22.9182L71.3799 22.9025V21.5625C91.2626 21.5625 106.026 26.9566 115.392 38.0354L115.828 38.5458C124.895 49.3592 129.317 65.8115 129.317 87.6256V98.8824C129.317 113.49 127.209 125.519 122.912 134.886C119.124 143.617 113.358 150.086 105.658 154.276C114.52 158.259 121.269 164.975 125.859 174.407C130.749 184.455 133.148 197.502 133.148 213.455V237.575C133.148 259.517 128.099 276.522 117.831 288.372C107.789 299.963 93.0485 305.648 73.8188 305.648H12.3984V21.5625H71.3799V22.9025H13.5595V304.308H73.8188L75.5899 304.291C93.4619 303.956 107.115 298.509 116.549 287.948L117.01 287.425C126.683 276.261 131.67 260.317 131.973 239.596L131.987 237.575ZM92.5114 236.369V211.846C92.5114 199.044 90.5297 190.661 86.9068 186.234L86.8841 186.207L86.8637 186.177C83.4645 181.518 77.6066 179.016 68.9422 179.016H53.0355V262.768H73.8188V264.108H51.8744V177.676H68.9422C77.7662 177.676 84.0361 180.222 87.7515 185.314C91.699 190.138 93.6725 198.982 93.6725 211.846V236.369C93.6725 246.553 92.0468 253.789 88.7958 258.077C85.5449 262.097 80.5527 264.108 73.8188 264.108V262.768C80.3612 262.767 84.9851 260.817 87.9386 257.172C90.8949 253.255 92.5114 246.439 92.5114 236.369ZM88.6802 107.726V92.0474C88.6801 81.9699 87.0623 74.9842 84.0688 70.7889L84.0552 70.7706L84.0427 70.7509C81.3157 66.6354 76.8459 64.4434 70.3357 64.4434H53.0355V136.135H66.8525V137.475H51.8744V63.1034H70.3357C77.0695 63.1034 81.9458 65.3812 84.9645 69.937C88.2155 74.493 89.8412 81.8635 89.8412 92.0474V107.726C89.8412 118.446 87.8679 126.085 83.9203 130.641L83.5654 131.061C79.8466 135.337 74.2757 137.475 66.8525 137.475V136.135C74.3303 136.135 79.6565 133.914 83.0744 129.723L83.0869 129.707L83.0994 129.694C86.7227 125.512 88.6802 118.314 88.6802 107.726Z" fill="#C8D844"/>
<path d="M255.966 305.887C252.647 305.887 250.136 302.536 248.435 295.832C246.733 288.98 245.883 279.223 245.883 266.561V257.623H252.356V268.349C252.356 278.478 253.539 283.543 255.904 283.543C257.066 283.543 257.937 282.351 258.518 279.968C259.141 277.435 259.452 273.413 259.452 267.902C259.452 261.347 259.037 255.612 258.207 250.697C257.377 245.632 255.842 239.599 253.601 232.598C250.779 223.66 248.808 215.616 247.688 208.466C246.567 201.167 246.007 192.974 246.007 183.887C246.007 171.523 246.879 161.99 248.622 155.286C250.364 148.434 252.896 145.008 256.215 145.008C259.494 145.008 261.963 148.434 263.622 155.286C265.324 161.99 266.174 171.672 266.174 184.334V190.814H259.701V182.77C259.701 177.407 259.411 173.534 258.83 171.151C258.249 168.618 257.398 167.352 256.278 167.352C253.995 167.352 252.854 172.342 252.854 182.323C252.854 187.983 253.269 193.272 254.099 198.187C254.97 203.103 256.527 209.062 258.767 216.063C261.631 225.001 263.602 233.119 264.681 240.418C265.759 247.717 266.299 256.283 266.299 266.114C266.299 278.925 265.407 288.757 263.622 295.609C261.88 302.461 259.328 305.887 255.966 305.887Z" fill="#C8D844"/>
<path d="M227.557 147.242H236.831L243.927 303.653H237.08L235.835 272.594V273.041H228.055L226.81 303.653H220.461L227.557 147.242ZM235.026 251.814L231.976 174.502H231.852L228.864 251.814H235.026Z" fill="#C8D844"/>
<path d="M197.102 147.242H207.434C210.961 147.242 213.534 150.221 215.152 156.18C216.771 161.989 217.58 171.002 217.58 183.217V189.473C217.58 197.517 217.206 204.071 216.459 209.136C215.754 214.201 214.654 217.85 213.161 220.085V220.532C216.563 224.703 218.265 235.577 218.265 253.154V266.561C218.265 278.627 217.372 287.863 215.588 294.268C213.845 300.524 211.272 303.653 207.87 303.653H197.102V147.242ZM206.625 210.924C207.994 210.924 209.011 209.657 209.675 207.125C210.38 204.593 210.733 200.347 210.733 194.389V185.674C210.733 180.014 210.443 175.917 209.862 173.385C209.322 170.853 208.451 169.587 207.247 169.587H203.948V210.924H206.625ZM207.87 281.308C209.073 281.308 209.965 280.191 210.546 277.957C211.127 275.573 211.418 271.551 211.418 265.891V252.261C211.418 245.11 211.065 240.195 210.36 237.513C209.696 234.683 208.575 233.268 206.998 233.268H203.948V281.308H207.87Z" fill="#C8D844"/>
<path d="M174.488 147.242H193.162V169.587H181.335V210.924H190.734V233.268H181.335V281.308H193.162V303.653H174.488V147.242Z" fill="#C8D844"/>
<path d="M149.32 147.242H159.653C163.18 147.242 165.753 150.221 167.371 156.18C168.989 161.989 169.799 171.002 169.799 183.217V189.473C169.799 197.517 169.425 204.071 168.678 209.136C167.973 214.201 166.873 217.85 165.379 220.085V220.532C168.782 224.703 170.483 235.577 170.483 253.154V266.561C170.483 278.627 169.591 287.863 167.807 294.268C166.064 300.524 163.491 303.653 160.089 303.653H149.32V147.242ZM158.844 210.924C160.213 210.924 161.23 209.657 161.894 207.125C162.599 204.593 162.952 200.347 162.952 194.389V185.674C162.952 180.014 162.661 175.917 162.08 173.385C161.541 170.853 160.669 169.587 159.466 169.587H156.167V210.924H158.844ZM160.089 281.308C161.292 281.308 162.184 280.191 162.765 277.957C163.346 275.573 163.636 271.551 163.636 265.891V252.261C163.636 245.11 163.284 240.195 162.578 237.513C161.914 234.683 160.794 233.268 159.217 233.268H156.167V281.308H160.089Z" fill="#C8D844"/>
<path d="M658.107 175.195C654.787 175.195 652.277 171.995 650.575 165.593C648.874 159.05 648.023 149.732 648.023 137.641V129.105H654.497V139.348C654.497 149.021 655.679 153.857 658.045 153.857C659.207 153.857 660.078 152.719 660.659 150.443C661.281 148.025 661.593 144.184 661.593 138.921C661.593 132.662 661.178 127.185 660.348 122.491C659.518 117.654 657.982 111.893 655.742 105.207C652.92 96.6719 650.949 88.9902 649.829 82.1621C648.708 75.1917 648.148 67.3678 648.148 58.6904C648.148 46.8835 649.019 37.7793 650.762 31.3779C652.505 24.8343 655.036 21.5625 658.356 21.5625C661.634 21.5625 664.103 24.8343 665.763 31.3779C667.464 37.7793 668.315 47.0257 668.315 59.1172V65.3052H661.842V57.6235C661.842 52.5024 661.551 48.8039 660.97 46.5278C660.389 44.1095 659.539 42.9004 658.418 42.9004C656.136 42.9004 654.995 47.6659 654.995 57.1968C654.995 62.6024 655.41 67.6524 656.24 72.3467C657.111 77.041 658.667 82.7311 660.908 89.417C663.771 97.9521 665.742 105.705 666.821 112.675C667.9 119.646 668.44 127.825 668.44 137.214C668.44 149.448 667.547 158.836 665.763 165.38C664.02 171.924 661.468 175.195 658.107 175.195Z" fill="#C8D844"/>
<path d="M629.697 23.6973H638.972L646.068 173.063H639.221L637.976 143.403V143.83H630.195L628.95 173.063H622.602L629.697 23.6973ZM637.167 123.559L634.117 49.7295H633.992L631.005 123.559H637.167Z" fill="#C8D844"/>
<path d="M599.238 23.6973H609.571C613.098 23.6973 615.671 26.5423 617.289 32.2324C618.907 37.7803 619.717 46.3866 619.717 58.0513V64.0259C619.717 71.7075 619.343 77.9666 618.596 82.8032C617.891 87.6398 616.791 91.125 615.297 93.2588V93.6856C618.7 97.6686 620.401 108.053 620.401 124.839V137.642C620.401 149.164 619.509 157.984 617.725 164.101C615.982 170.075 613.409 173.063 610.007 173.063H599.238V23.6973ZM608.762 84.5103C610.131 84.5103 611.148 83.3011 611.812 80.8828C612.517 78.4645 612.87 74.4103 612.87 68.7202V60.3984C612.87 54.9928 612.579 51.0809 611.998 48.6626C611.459 46.2443 610.587 45.0352 609.384 45.0352H606.085V84.5103H608.762ZM610.007 151.725C611.21 151.725 612.102 150.658 612.683 148.524C613.264 146.248 613.554 142.407 613.554 137.001V123.985C613.554 117.157 613.202 112.463 612.496 109.902C611.832 107.2 610.712 105.848 609.135 105.848H606.085V151.725H610.007Z" fill="#C8D844"/>
<path d="M576.629 23.6973H595.302V45.0352H583.476V84.5103H592.875V105.848H583.476V151.725H595.302V173.063H576.629V23.6973Z" fill="#C8D844"/>
<path d="M551.461 23.6973H561.793C565.321 23.6973 567.893 26.5423 569.512 32.2324C571.13 37.7803 571.939 46.3866 571.939 58.0513V64.0259C571.939 71.7075 571.566 77.9666 570.819 82.8032C570.113 87.6398 569.014 91.125 567.52 93.2588V93.6856C570.923 97.6686 572.624 108.053 572.624 124.839V137.642C572.624 149.164 571.732 157.984 569.947 164.101C568.205 170.075 565.632 173.063 562.229 173.063H551.461V23.6973ZM560.984 84.5103C562.354 84.5103 563.37 83.3011 564.034 80.8828C564.74 78.4645 565.092 74.4103 565.092 68.7202V60.3984C565.092 54.9928 564.802 51.0809 564.221 48.6626C563.682 46.2443 562.81 45.0352 561.607 45.0352H558.308V84.5103H560.984ZM562.229 151.725C563.433 151.725 564.325 150.658 564.906 148.524C565.487 146.248 565.777 142.407 565.777 137.001V123.985C565.777 117.157 565.424 112.463 564.719 109.902C564.055 107.2 562.935 105.848 561.358 105.848H558.308V151.725H562.229Z" fill="#C8D844"/>
</g>
<path d="M689.5 0.5H0.5V322.5H689.5V0.5Z" stroke="#C3C84A"/>
</g>
<defs>
<clipPath id="clip0_521_4958">
<rect width="690" height="323" fill="white"/>
</clipPath>
</defs>
</svg>
