<svg width="335" height="715" viewBox="0 0 335 715" fill="none" xmlns="http://www.w3.org/2000/svg">
<g clip-path="url(#clip0_521_4999)">
<mask id="mask0_521_4999" style="mask-type:luminance" maskUnits="userSpaceOnUse" x="-1" y="0" width="336" height="715">
<path d="M334.809 714.264L334.809 0L-0.00241089 0L-0.00241089 714.264H334.809Z" fill="white"/>
</mask>
<g mask="url(#mask0_521_4999)">
<path d="M334.809 714.264L334.809 0L-0.00241089 0L-0.00241089 714.264H334.809Z" fill="#232023"/>
<path d="M296.975 139.751C288.047 139.751 281.295 137.049 276.719 131.645C272.143 126.12 269.855 118.254 269.855 108.045V100.839H287.266V109.486C287.266 117.653 290.446 121.737 296.808 121.737C299.933 121.737 302.276 120.776 303.839 118.854C305.513 116.812 306.35 113.57 306.35 109.126C306.35 103.842 305.234 99.2179 303.002 95.2546C300.77 91.1712 296.64 86.3072 290.614 80.6625C283.025 73.4565 277.723 66.9711 274.71 61.2064C271.697 55.3215 270.19 48.716 270.19 41.3899C270.19 31.4217 272.534 23.7353 277.221 18.3308C281.909 12.8062 288.716 10.0439 297.645 10.0439C306.461 10.0439 313.102 12.8062 317.566 18.3308C322.142 23.7353 324.43 31.5418 324.43 41.7502V46.9746H307.019V40.4892C307.019 36.1656 306.238 33.043 304.676 31.1214C303.113 29.0797 300.825 28.0589 297.812 28.0589C291.674 28.0589 288.605 32.0822 288.605 40.1289C288.605 44.6927 289.721 48.9562 291.953 52.9195C294.297 56.8828 298.482 61.6868 304.508 67.3314C312.209 74.5374 317.51 81.0828 320.412 86.9677C323.314 92.8526 324.764 99.7583 324.764 107.685C324.764 118.013 322.365 125.94 317.566 131.465C312.879 136.989 306.015 139.751 296.975 139.751Z" fill="#C8D844"/>
<path d="M220.565 11.8438H245.508L264.592 137.948H246.178L242.83 112.908V113.268H221.904L218.556 137.948H201.48L220.565 11.8438ZM240.653 96.1537L232.45 33.822H232.116L224.08 96.1537H240.653Z" fill="#C8D844"/>
<path d="M138.656 11.8438L166.445 11.8438C175.932 11.8438 182.851 14.2457 187.204 19.0497C191.556 23.7336 193.733 30.9997 193.733 40.8479V45.892C193.733 52.3774 192.728 57.6617 190.719 61.7451C188.822 65.8285 185.865 68.771 181.847 70.5725V70.9328C190.998 74.2956 195.574 83.0628 195.574 97.2345V108.043C195.574 117.772 193.175 125.218 188.376 130.382C183.688 135.426 176.769 137.948 167.617 137.948H138.656V11.8438ZM164.269 63.1863C167.952 63.1863 170.686 62.1655 172.472 60.1238C174.369 58.0821 175.318 54.6593 175.318 49.8554V42.8294C175.318 38.2657 174.537 34.9629 172.974 32.9212C171.523 30.8795 169.18 29.8587 165.943 29.8587H157.071V63.1863H164.269ZM167.617 119.933C170.854 119.933 173.253 119.033 174.816 117.231C176.378 115.31 177.159 112.067 177.159 107.503V96.5139C177.159 90.7492 176.211 86.7859 174.314 84.6241C172.528 82.3422 169.515 81.2012 165.274 81.2012H157.071V119.933H167.617Z" fill="#C8D844"/>
<path d="M77.8398 11.8438L128.061 11.8438V29.8587H96.2544V63.1863H121.533V81.2012H96.2544V119.933H128.061V137.948H77.8398V11.8438Z" fill="#C8D844"/>
<path d="M10.1562 11.8438L37.9456 11.8438C47.4319 11.8438 54.3513 14.2457 58.7038 19.0497C63.0564 23.7336 65.2327 30.9997 65.2327 40.8479V45.892C65.2327 52.3774 64.2283 57.6617 62.2194 61.7451C60.3222 65.8285 57.3646 68.771 53.3468 70.5725V70.9328C62.4983 74.2956 67.0742 83.0628 67.0742 97.2345V108.043C67.0742 117.772 64.6746 125.218 59.8757 130.382C55.1883 135.426 48.2689 137.948 39.1173 137.948H10.1562V11.8438ZM35.7693 63.1863C39.4523 63.1863 42.1865 62.1655 43.9722 60.1238C45.8695 58.0821 46.818 54.6593 46.818 49.8554V42.8294C46.818 38.2657 46.0368 34.9629 44.4743 32.9212C43.0236 30.8795 40.6798 29.8587 37.4433 29.8587H28.5709V63.1863H35.7693ZM39.1173 119.933C42.3539 119.933 44.7533 119.033 46.3158 117.231C47.8782 115.31 48.6596 112.067 48.6596 107.503V96.5139C48.6596 90.7492 47.7109 86.7859 45.8137 84.6241C44.028 82.3422 41.0146 81.2012 36.7737 81.2012H28.5709V119.933H39.1173Z" fill="#C8D844"/>
<path d="M296.975 421.986C288.047 421.986 281.295 419.284 276.719 413.879C272.143 408.355 269.855 400.488 269.855 390.28V383.074H287.266V391.721C287.266 399.888 290.446 403.971 296.808 403.971C299.933 403.971 302.276 403.01 303.839 401.089C305.513 399.047 306.35 395.804 306.35 391.36C306.35 386.076 305.234 381.452 303.002 377.489C300.77 373.406 296.64 368.542 290.614 362.897C283.025 355.691 277.723 349.206 274.71 343.441C271.697 337.556 270.19 330.95 270.19 323.624C270.19 313.656 272.534 305.97 277.221 300.565C281.909 295.041 288.716 292.278 297.645 292.278C306.461 292.278 313.102 295.041 317.566 300.565C322.142 305.97 324.43 313.776 324.43 323.985V329.209H307.019V322.724C307.019 318.4 306.238 315.277 304.676 313.356C303.113 311.314 300.825 310.293 297.812 310.293C291.674 310.293 288.605 314.317 288.605 322.363C288.605 326.927 289.721 331.191 291.953 335.154C294.297 339.117 298.482 343.921 304.508 349.566C312.209 356.772 317.51 363.317 320.412 369.202C323.314 375.087 324.764 381.993 324.764 389.919C324.764 400.248 322.365 408.174 317.566 413.699C312.879 419.224 306.015 421.986 296.975 421.986Z" fill="#C8D844"/>
<path d="M220.565 294.08H245.508L264.592 420.185H246.178L242.83 395.144V395.504H221.904L218.556 420.185H201.48L220.565 294.08ZM240.653 378.39L232.45 316.058H232.116L224.08 378.39H240.653Z" fill="#C8D844"/>
<path d="M138.656 294.08H166.445C175.932 294.08 182.851 296.482 187.204 301.286C191.556 305.97 193.733 313.236 193.733 323.084V328.128C193.733 334.614 192.728 339.898 190.719 343.981C188.822 348.065 185.865 351.007 181.847 352.809V353.169C190.998 356.532 195.574 365.299 195.574 379.471V390.28C195.574 400.008 193.175 407.454 188.376 412.618C183.688 417.663 176.769 420.185 167.617 420.185H138.656V294.08ZM164.269 345.423C167.952 345.423 170.686 344.402 172.472 342.36C174.369 340.318 175.318 336.896 175.318 332.092V325.066C175.318 320.502 174.537 317.199 172.974 315.158C171.523 313.116 169.18 312.095 165.943 312.095H157.071V345.423H164.269ZM167.617 402.17C170.854 402.17 173.253 401.269 174.816 399.467C176.378 397.546 177.159 394.303 177.159 389.739V378.75C177.159 372.985 176.211 369.022 174.314 366.86C172.528 364.579 169.515 363.438 165.274 363.438H157.071V402.17H167.617Z" fill="#C8D844"/>
<path d="M77.8398 294.08H128.061V312.095H96.2544V345.423H121.533V363.438H96.2544V402.17H128.061V420.185H77.8398V294.08Z" fill="#C8D844"/>
<path d="M10.1562 294.08H37.9456C47.4319 294.08 54.3513 296.482 58.7038 301.286C63.0564 305.97 65.2327 313.236 65.2327 323.084V328.128C65.2327 334.614 64.2283 339.898 62.2194 343.981C60.3222 348.065 57.3646 351.007 53.3468 352.809V353.169C62.4983 356.532 67.0742 365.299 67.0742 379.471V390.28C67.0742 400.008 64.6746 407.454 59.8757 412.618C55.1883 417.663 48.2689 420.185 39.1173 420.185H10.1562V294.08ZM35.7693 345.423C39.4523 345.423 42.1865 344.402 43.9722 342.36C45.8695 340.318 46.818 336.896 46.818 332.092V325.066C46.818 320.502 46.0368 317.199 44.4743 315.158C43.0236 313.116 40.6798 312.095 37.4433 312.095H28.5709V345.423H35.7693ZM39.1173 402.17C42.3539 402.17 44.7533 401.269 46.3158 399.467C47.8782 397.546 48.6596 394.303 48.6596 389.739V378.75C48.6596 372.985 47.7109 369.022 45.8137 366.86C44.028 364.579 41.0146 363.438 36.7737 363.438H28.5709V402.17H39.1173Z" fill="#C8D844"/>
<path d="M296.975 704.218C288.047 704.218 281.295 701.516 276.719 696.112C272.143 690.587 269.855 682.72 269.855 672.512V665.306H287.266V673.953C287.266 682.12 290.446 686.203 296.808 686.203C299.933 686.203 302.276 685.243 303.839 683.321C305.513 681.279 306.35 678.037 306.35 673.593C306.35 668.309 305.234 663.685 303.002 659.721C300.77 655.638 296.64 650.774 290.614 645.129C283.025 637.923 277.723 631.438 274.71 625.673C271.697 619.788 270.19 613.183 270.19 605.857C270.19 595.888 272.534 588.202 277.221 582.798C281.909 577.273 288.716 574.511 297.645 574.511C306.461 574.511 313.102 577.273 317.566 582.798C322.142 588.202 324.43 596.009 324.43 606.217V611.441H307.019V604.956C307.019 600.632 306.238 597.51 304.676 595.588C303.113 593.547 300.825 592.526 297.812 592.526C291.674 592.526 288.605 596.549 288.605 604.596C288.605 609.159 289.721 613.423 291.953 617.386C294.297 621.35 298.482 626.154 304.508 631.798C312.209 639.004 317.51 645.55 320.412 651.435C323.314 657.319 324.764 664.225 324.764 672.152C324.764 682.48 322.365 690.407 317.566 695.931C312.879 701.456 306.015 704.218 296.975 704.218Z" fill="#C8D844"/>
<path d="M220.565 576.312H245.508L264.592 702.417H246.178L242.83 677.376V677.737H221.904L218.556 702.417H201.48L220.565 576.312ZM240.653 660.622L232.45 598.292H232.116L224.08 660.622H240.653Z" fill="#C8D844"/>
<path d="M138.656 576.312H166.445C175.932 576.312 182.851 578.714 187.204 583.518C191.556 588.202 193.733 595.469 193.733 605.318V610.362C193.733 616.847 192.728 622.13 190.719 626.214C188.822 630.297 185.865 633.241 181.847 635.042V635.401C190.998 638.764 195.574 647.532 195.574 661.703V672.513C195.574 682.241 193.175 689.687 188.376 694.852C183.688 699.896 176.769 702.417 167.617 702.417H138.656V576.312ZM164.269 627.656C167.952 627.656 170.686 626.635 172.472 624.594C174.369 622.552 175.318 619.128 175.318 614.324V607.298C175.318 602.734 174.537 599.433 172.974 597.391C171.523 595.349 169.18 594.328 165.943 594.328H157.071V627.656H164.269ZM167.617 684.402C170.854 684.402 173.253 683.502 174.816 681.701C176.378 679.779 177.159 676.536 177.159 671.972V660.983C177.159 655.218 176.211 651.256 174.314 649.094C172.528 646.812 169.515 645.67 165.274 645.67H157.071V684.402H167.617Z" fill="#C8D844"/>
<path d="M77.8398 576.312H128.061V594.328H96.2544V627.656H121.533V645.67H96.2544V684.402H128.061V702.417H77.8398V576.312Z" fill="#C8D844"/>
<path d="M10.1562 576.312H37.9456C47.4319 576.312 54.3513 578.714 58.7038 583.518C63.0564 588.202 65.2327 595.469 65.2327 605.318V610.362C65.2327 616.847 64.2283 622.13 62.2194 626.214C60.3222 630.297 57.3646 633.241 53.3468 635.042V635.401C62.4983 638.764 67.0742 647.532 67.0742 661.703V672.513C67.0742 682.241 64.6746 689.687 59.8757 694.852C55.1883 699.896 48.2689 702.417 39.1173 702.417H10.1562V576.312ZM35.7693 627.656C39.4523 627.656 42.1865 626.635 43.9722 624.594C45.8695 622.552 46.818 619.128 46.818 614.324V607.298C46.818 602.734 46.0368 599.433 44.4743 597.391C43.0236 595.349 40.6798 594.328 37.4433 594.328H28.5709V627.656H35.7693ZM39.1173 684.402C42.3539 684.402 44.7533 683.502 46.3158 681.701C47.8782 679.779 48.6596 676.536 48.6596 671.972V660.983C48.6596 655.218 47.7109 651.256 45.8137 649.094C44.028 646.812 41.0146 645.67 36.7737 645.67H28.5709V684.402H39.1173Z" fill="#C8D844"/>
<path d="M287.265 250.601V241.954H269.855V249.16L269.862 250.11C270 259.858 272.286 267.408 276.719 272.76C281.152 277.995 287.627 280.695 296.144 280.859L296.975 280.867C306.015 280.867 312.878 278.104 317.565 272.58C322.364 267.055 324.764 259.128 324.764 248.8C324.764 241.121 323.402 234.4 320.679 228.637L320.412 228.083C317.601 222.382 312.538 216.061 305.223 209.12L304.508 208.447C298.482 202.802 294.296 197.998 291.953 194.035C289.79 190.195 288.675 186.074 288.608 181.671L288.605 181.244C288.605 173.197 291.674 169.174 297.812 169.174L298.092 169.177C300.967 169.239 303.162 170.258 304.675 172.236C306.238 174.158 307.019 177.281 307.019 181.604V188.09H324.429V182.865C324.429 172.657 322.141 164.85 317.565 159.446C313.241 154.094 306.874 151.335 298.465 151.167L297.645 151.159C288.716 151.159 281.908 153.921 277.221 159.446C272.533 164.85 270.19 172.537 270.19 182.505L270.194 183.19C270.285 190.243 271.791 196.621 274.71 202.322C277.723 208.086 283.024 214.571 290.613 221.777C296.64 227.422 300.769 232.287 303.001 236.37C305.233 240.333 306.349 244.957 306.349 250.241L306.347 250.654C306.297 254.886 305.46 257.991 303.838 259.969C302.276 261.891 299.932 262.852 296.808 262.852V262.251C299.826 262.251 301.993 261.327 303.418 259.574L303.42 259.572C304.962 257.691 305.791 254.625 305.791 250.241C305.791 245.051 304.696 240.538 302.524 236.681L302.52 236.674C300.334 232.675 296.259 227.862 290.247 222.231L290.244 222.228C282.635 215.002 277.281 208.465 274.224 202.616L274.221 202.611C271.158 196.63 269.632 189.923 269.632 182.505C269.632 172.439 272 164.586 276.813 159.036C281.634 153.357 288.61 150.559 297.645 150.559C306.572 150.559 313.387 153.36 317.987 159.052H317.986C322.681 164.604 324.987 172.573 324.988 182.865V188.69H306.461V181.604C306.461 177.333 305.685 174.39 304.255 172.632L304.25 172.625L304.245 172.618C302.812 170.746 300.7 169.775 297.812 169.775C294.861 169.775 292.739 170.736 291.337 172.572C289.919 174.432 289.163 177.288 289.163 181.244C289.163 185.695 290.249 189.85 292.428 193.72C294.729 197.608 298.865 202.365 304.874 207.994L305.591 208.669C312.93 215.632 318.048 222.009 320.904 227.801C323.856 233.788 325.322 240.794 325.322 248.8C325.322 259.221 322.901 267.313 317.977 272.984H317.978C313.155 278.668 306.122 281.467 296.975 281.467C287.942 281.467 281.018 278.73 276.306 273.165L276.302 273.159C271.606 267.489 269.297 259.46 269.297 249.16V241.354H287.823V250.601C287.823 254.615 288.607 257.514 290.079 259.403C291.534 261.272 293.741 262.251 296.808 262.251V262.852L296.512 262.849C290.347 262.723 287.265 258.641 287.265 250.601Z" fill="#C8D844"/>
<path d="M245.983 152.362L265.249 279.668H245.695L242.394 254.988H222.386L219.038 279.668H200.824L220.014 152.866L220.09 152.362H245.983ZM220.565 152.963L201.48 279.067H218.556L221.904 254.387H242.83V254.026L246.178 279.067H264.593L245.508 152.963H220.565ZM232.45 174.941L240.653 237.273H224.08L232.116 174.941H232.45ZM224.721 236.672H240.011L232.287 177.98L224.721 236.672Z" fill="#C8D844"/>
<path d="M195.574 249.163V238.354C195.574 224.182 190.998 215.415 181.846 212.052V211.691C185.864 209.89 188.821 206.947 190.719 202.864C192.665 198.908 193.669 193.826 193.729 187.616L193.732 187.011V181.967C193.732 172.273 191.623 165.081 187.406 160.39L187.203 160.169C182.987 155.515 176.361 153.115 167.327 152.97L166.445 152.963V152.362C176.001 152.362 183.096 154.78 187.598 159.744L187.807 159.973C192.165 164.819 194.29 172.191 194.29 181.967V187.011C194.29 193.557 193.277 198.948 191.212 203.145C189.391 207.058 186.62 209.957 182.919 211.834C187.178 213.619 190.422 216.629 192.628 220.855C194.978 225.358 196.132 231.205 196.132 238.354V249.163C196.132 258.995 193.705 266.615 188.77 271.926C183.943 277.12 176.859 279.668 167.617 279.668H138.098V152.362H166.445V152.963H138.656V279.067H167.617L168.468 279.06C177.058 278.909 183.619 276.468 188.154 271.736L188.375 271.501C193.024 266.498 195.421 259.354 195.566 250.068L195.574 249.163ZM176.601 248.622V237.633C176.601 231.896 175.648 228.139 173.907 226.155L173.896 226.143L173.887 226.13C172.253 224.042 169.437 222.921 165.273 222.921H157.628V260.452H167.617V261.052H157.07V222.32H165.273C169.514 222.32 172.528 223.461 174.313 225.743C176.21 227.905 177.159 231.868 177.159 237.633V248.622C177.159 253.186 176.378 256.429 174.815 258.35C173.253 260.152 170.853 261.052 167.617 261.052V260.452C170.761 260.452 172.984 259.578 174.403 257.944C175.824 256.189 176.601 253.135 176.601 248.622ZM174.76 190.974V183.948C174.759 179.432 173.982 176.302 172.543 174.422L172.537 174.414L172.531 174.405C171.22 172.561 169.072 171.578 165.943 171.578H157.628V203.705H164.269V204.305H157.07V170.978H165.943C169.179 170.978 171.523 171.999 172.974 174.04C174.536 176.082 175.318 179.385 175.318 183.948V190.974C175.318 195.778 174.369 199.201 172.472 201.243L172.301 201.431C170.514 203.347 167.837 204.305 164.269 204.305V203.705C167.863 203.705 170.423 202.71 172.065 200.831L172.071 200.824L172.077 200.818C173.819 198.945 174.76 195.719 174.76 190.974Z" fill="#C8D844"/>
<path d="M128.061 261.052H96.2538V222.32H121.532V204.305H96.2538V170.978H128.061V152.963H77.8392V279.067H128.061V261.052ZM128.619 171.578H96.8119V203.705H122.09V222.921H96.8119V260.452H128.619V279.668H77.2812V152.362H128.619V171.578Z" fill="#C8D844"/>
<path d="M67.0736 249.163V238.354C67.0736 224.182 62.498 215.415 53.3466 212.052V211.691C57.3642 209.89 60.3215 206.947 62.2187 202.864C64.1648 198.908 65.1687 193.826 65.2295 187.616L65.2323 187.011V181.967C65.2322 172.273 63.1235 165.081 58.906 160.39L58.7033 160.169C54.4868 155.515 47.8615 153.115 38.8272 152.97L37.9449 152.963V152.362C47.5008 152.362 54.5961 154.78 59.0979 159.744L59.3071 159.973C63.6647 164.819 65.7903 172.191 65.7903 181.967V187.011C65.7903 193.557 64.777 198.948 62.7119 203.145C60.8911 207.058 58.1203 209.957 54.4196 211.834C58.6784 213.619 61.9222 216.629 64.1282 220.855C66.4783 225.358 67.6316 231.205 67.6316 238.354V249.163C67.6316 258.995 65.2048 266.615 60.27 271.926C55.4434 277.12 48.3591 279.668 39.1171 279.668H9.59766V152.362H37.9449V152.963H10.1557V279.067H39.1171L39.9683 279.06C48.5578 278.909 55.1196 276.468 59.6537 271.736L59.8755 271.501C64.5244 266.498 66.9212 259.354 67.0665 250.068L67.0736 249.163ZM48.101 248.622V237.633C48.101 231.896 47.1485 228.139 45.4073 226.155L45.3964 226.143L45.3866 226.13C43.7529 224.042 40.9375 222.921 36.7733 222.921H29.1283V260.452H39.1171V261.052H28.5703V222.32H36.7733C41.0142 222.32 44.0276 223.461 45.8133 225.743C47.7105 227.905 48.659 231.868 48.659 237.633V248.622C48.659 253.186 47.8777 256.429 46.3152 258.35C44.7528 260.152 42.3535 261.052 39.1171 261.052V260.452C42.2614 260.452 44.4837 259.578 45.9032 257.944C47.324 256.189 48.101 253.135 48.101 248.622ZM46.2596 190.974V183.948C46.2596 179.432 45.4821 176.302 44.0433 174.422L44.0368 174.414L44.0308 174.405C42.7202 172.561 40.5719 171.578 37.443 171.578H29.1283V203.705H35.769V204.305H28.5703V170.978H37.443C40.6794 170.978 43.023 171.999 44.4738 174.04C46.0363 176.082 46.8176 179.385 46.8176 183.948V190.974C46.8176 195.778 45.8692 199.201 43.972 201.243L43.8014 201.431C42.0141 203.347 39.3367 204.305 35.769 204.305V203.705C39.3629 203.705 41.9227 202.71 43.5654 200.831L43.5714 200.824L43.5774 200.818C45.3188 198.945 46.2596 195.719 46.2596 190.974Z" fill="#C8D844"/>
<path d="M287.265 532.84V524.193H269.855V531.399L269.862 532.349C270 542.096 272.286 549.646 276.719 554.998C281.152 560.234 287.627 562.934 296.144 563.097L296.975 563.105C306.015 563.105 312.878 560.343 317.565 554.818C322.364 549.294 324.764 541.367 324.764 531.038C324.764 523.359 323.402 516.638 320.679 510.876L320.412 510.321C317.601 504.62 312.538 498.299 305.223 491.358L304.508 490.685C298.482 485.041 294.296 480.236 291.953 476.273C289.79 472.434 288.675 468.312 288.608 463.909L288.605 463.482C288.605 455.436 291.674 451.412 297.812 451.412L298.092 451.415C300.967 451.477 303.162 452.497 304.675 454.475C306.238 456.396 307.019 459.519 307.019 463.843V470.328H324.429V465.104C324.429 454.895 322.141 447.089 317.565 441.684C313.241 436.332 306.874 433.573 298.465 433.406L297.645 433.397C288.716 433.397 281.908 436.16 277.221 441.684C272.533 447.089 270.19 454.775 270.19 464.743L270.194 465.428C270.285 472.481 271.791 478.859 274.71 484.56C277.723 490.325 283.024 496.81 290.613 504.016C296.64 509.66 300.769 514.525 303.001 518.608C305.233 522.571 306.349 527.195 306.349 532.479L306.347 532.892C306.297 537.125 305.46 540.23 303.838 542.208C302.276 544.129 299.932 545.09 296.808 545.09V544.489C299.826 544.489 301.993 543.565 303.418 541.812L303.42 541.81C304.962 539.929 305.791 536.864 305.791 532.479C305.791 527.289 304.696 522.776 302.524 518.919L302.52 518.913C300.334 514.913 296.259 510.1 290.247 504.469L290.244 504.466C282.635 497.241 277.281 490.703 274.224 484.854L274.221 484.85C271.158 478.868 269.632 472.161 269.632 464.743C269.632 454.677 272 446.824 276.813 441.274C281.634 435.595 288.61 432.797 297.645 432.797C306.572 432.797 313.387 435.598 317.987 441.29H317.986C322.681 446.842 324.987 454.811 324.988 465.104V470.928H306.461V463.843C306.461 459.572 305.685 456.629 304.255 454.87L304.25 454.863L304.245 454.856C302.812 452.984 300.7 452.013 297.812 452.013C294.861 452.013 292.739 452.974 291.337 454.811C289.919 456.67 289.163 459.526 289.163 463.482C289.163 467.933 290.249 472.088 292.428 475.958C294.729 479.847 298.865 484.603 304.874 490.232L305.591 490.907C312.93 497.871 318.048 504.248 320.904 510.039C323.856 516.026 325.322 523.032 325.322 531.038C325.322 541.459 322.901 549.551 317.977 555.222L317.978 555.223C313.155 560.907 306.122 563.705 296.975 563.705C287.942 563.705 281.018 560.968 276.306 555.403L276.302 555.398C271.606 549.727 269.297 541.698 269.297 531.399V523.592H287.823V532.84C287.823 536.854 288.607 539.753 290.079 541.642C291.534 543.51 293.741 544.489 296.808 544.489V545.09L296.512 545.087C290.347 544.961 287.265 540.879 287.265 532.84Z" fill="#C8D844"/>
<path d="M245.983 434.6L265.249 561.905H245.695L242.394 537.225H222.386L219.038 561.905H200.824L220.014 435.103L220.09 434.6H245.983ZM220.565 435.2L201.48 561.305H218.556L221.904 536.624H242.83V536.264L246.178 561.305H264.593L245.508 435.2H220.565ZM232.45 457.178L240.653 519.51H224.08L232.116 457.178H232.45ZM224.721 518.91H240.011L232.287 460.217L224.721 518.91Z" fill="#C8D844"/>
<path d="M195.574 531.4V520.591C195.574 506.419 190.998 497.652 181.846 494.289V493.929C185.864 492.127 188.821 489.185 190.719 485.101C192.665 481.146 193.669 476.063 193.729 469.853L193.732 469.248V464.204C193.732 454.51 191.623 447.318 187.406 442.628L187.203 442.406C182.987 437.752 176.361 435.353 167.327 435.207L166.445 435.2V434.6C176.001 434.6 183.096 437.017 187.598 441.982L187.807 442.21C192.165 447.056 194.29 454.429 194.29 464.204V469.248C194.29 475.794 193.277 481.185 191.212 485.383C189.391 489.295 186.62 492.194 182.919 494.072C187.178 495.856 190.422 498.866 192.628 503.093C194.978 507.595 196.132 513.442 196.132 520.591V531.4C196.132 541.233 193.705 548.853 188.77 554.163C183.943 559.357 176.859 561.905 167.617 561.905H138.098V434.6H166.445V435.2H138.656V561.305H167.617L168.468 561.297C177.058 561.147 183.619 558.706 188.154 553.973L188.375 553.739C193.024 548.736 195.421 541.591 195.566 532.305L195.574 531.4ZM176.601 530.859V519.87C176.601 514.133 175.648 510.377 173.907 508.393L173.896 508.38L173.887 508.367C172.253 506.279 169.437 505.158 165.273 505.158H157.628V542.689H167.617V543.29H157.07V504.558H165.273C169.514 504.558 172.528 505.699 174.313 507.981C176.21 510.142 177.159 514.106 177.159 519.87V530.859C177.159 535.423 176.378 538.666 174.815 540.587C173.253 542.389 170.853 543.29 167.617 543.29V542.689C170.761 542.689 172.984 541.815 174.403 540.182C175.824 538.426 176.601 535.372 176.601 530.859ZM174.76 473.211V466.186C174.759 461.67 173.982 458.539 172.543 456.659L172.537 456.651L172.531 456.642C171.22 454.798 169.072 453.816 165.943 453.816H157.628V485.942H164.269V486.543H157.07V453.215H165.943C169.179 453.215 171.523 454.236 172.974 456.277C174.536 458.319 175.318 461.622 175.318 466.186V473.211C175.318 478.015 174.369 481.439 172.472 483.48L172.301 483.669C170.514 485.585 167.837 486.543 164.269 486.543V485.942C167.863 485.942 170.423 484.947 172.065 483.069L172.071 483.062L172.077 483.056C173.819 481.182 174.76 477.956 174.76 473.211Z" fill="#C8D844"/>
<path d="M128.061 543.29H96.2538V504.558H121.532V486.543H96.2538V453.215H128.061V435.2H77.8392V561.305H128.061V543.29ZM128.619 453.816H96.8119V485.942H122.09V505.158H96.8119V542.689H128.619V561.905H77.2812V434.6H128.619V453.816Z" fill="#C8D844"/>
<path d="M67.0736 531.4V520.591C67.0736 506.419 62.498 497.652 53.3466 494.289V493.929C57.3642 492.127 60.3215 489.185 62.2187 485.101C64.1648 481.146 65.1687 476.063 65.2295 469.853L65.2323 469.248V464.204C65.2322 454.51 63.1235 447.318 58.906 442.628L58.7033 442.406C54.4868 437.752 47.8615 435.353 38.8272 435.207L37.9449 435.2V434.6C47.5008 434.6 54.5961 437.017 59.0979 441.982L59.3071 442.21C63.6647 447.056 65.7903 454.429 65.7903 464.204V469.248C65.7903 475.794 64.777 481.185 62.7119 485.383C60.8911 489.295 58.1203 492.194 54.4196 494.072C58.6784 495.856 61.9222 498.866 64.1282 503.093C66.4783 507.595 67.6316 513.442 67.6316 520.591V531.4C67.6316 541.233 65.2048 548.853 60.27 554.163C55.4434 559.357 48.3591 561.905 39.1171 561.905H9.59766V434.6H37.9449V435.2H10.1557V561.305H39.1171L39.9683 561.297C48.5578 561.147 55.1196 558.706 59.6537 553.973L59.8755 553.739C64.5244 548.736 66.9212 541.591 67.0665 532.305L67.0736 531.4ZM48.101 530.859V519.87C48.101 514.133 47.1485 510.377 45.4073 508.393L45.3964 508.38L45.3866 508.367C43.7529 506.279 40.9375 505.158 36.7733 505.158H29.1283V542.689H39.1171V543.29H28.5703V504.558H36.7733C41.0142 504.558 44.0276 505.699 45.8133 507.981C47.7105 510.142 48.659 514.106 48.659 519.87V530.859C48.659 535.423 47.8777 538.666 46.3152 540.587C44.7528 542.389 42.3535 543.29 39.1171 543.29V542.689C42.2614 542.689 44.4837 541.815 45.9032 540.182C47.324 538.426 48.101 535.372 48.101 530.859ZM46.2596 473.211V466.186C46.2596 461.67 45.4821 458.539 44.0433 456.659L44.0368 456.651L44.0308 456.642C42.7202 454.798 40.5719 453.816 37.443 453.816H29.1283V485.942H35.769V486.543H28.5703V453.215H37.443C40.6794 453.215 43.023 454.236 44.4738 456.277C46.0363 458.319 46.8176 461.622 46.8176 466.186V473.211C46.8176 478.015 45.8692 481.439 43.972 483.48L43.8014 483.669C42.0141 485.585 39.3367 486.543 35.769 486.543V485.942C39.3629 485.942 41.9227 484.947 43.5654 483.069L43.5714 483.062L43.5774 483.056C45.3188 481.182 46.2596 477.956 46.2596 473.211Z" fill="#C8D844"/>
</g>
<path d="M334.313 713.764L334.312 0.5L0.501495 0.5L0.501495 713.764H334.313Z" stroke="#C8D844"/>
</g>
<defs>
<clipPath id="clip0_521_4999">
<rect width="335" height="715" fill="white"/>
</clipPath>
</defs>
</svg>
