<svg width="335" height="714" viewBox="0 0 335 714" fill="none" xmlns="http://www.w3.org/2000/svg">
<g clip-path="url(#clip0_521_4981)">
<mask id="mask0_521_4981" style="mask-type:luminance" maskUnits="userSpaceOnUse" x="0" y="0" width="335" height="714">
<path d="M335 714L335 0L0 0L0 714H335Z" fill="white"/>
</mask>
<g mask="url(#mask0_521_4981)">
<path d="M335 714L335 0L0 0L0 714H335Z" fill="#232023"/>
<path d="M22.332 22.333H81.7584C102.045 22.333 116.841 27.4062 126.149 37.5527C135.457 47.4454 140.111 62.7919 140.111 83.592V94.2458C140.111 107.943 137.963 119.105 133.667 127.729C129.61 136.353 123.285 142.568 114.694 146.373V147.134C134.264 154.237 144.049 172.754 144.049 202.686V225.515C144.049 246.062 138.918 261.789 128.655 272.696C118.631 283.35 103.834 288.677 84.2644 288.677H22.332V22.333ZM77.1045 130.773C84.9803 130.773 90.8275 128.617 94.6461 124.305C98.7033 119.992 100.732 112.763 100.732 102.617V87.7774C100.732 78.1383 99.0613 71.1627 95.72 66.8505C92.6175 62.5382 87.6056 60.3821 80.6845 60.3821H61.711V130.773H77.1045ZM84.2644 250.628C91.1855 250.628 96.3167 248.725 99.6579 244.92C102.999 240.862 104.67 234.013 104.67 224.374V201.164C104.67 188.988 102.641 180.617 98.584 176.051C94.7654 171.232 88.3216 168.822 79.2525 168.822H61.711V250.628H84.2644Z" fill="#C8D844"/>
<path d="M312.668 22.333V93.9498H290.095V48.5925H248.336V84.6397H225.763V48.5925H177.232V93.9498H154.66V22.333H312.668Z" fill="#C8D844"/>
<path d="M312.668 114.664V154.542C312.668 168.156 309.658 178.085 303.639 184.331C297.77 190.577 288.666 193.7 276.326 193.7H270.006C261.88 193.7 255.258 192.259 250.142 189.376C245.025 186.653 241.338 182.409 239.081 176.644H238.63C234.416 189.776 223.431 196.343 205.674 196.343H192.13C179.941 196.343 170.611 192.899 164.14 186.013C157.82 179.286 154.66 169.357 154.66 156.224V114.664H312.668ZM248.336 151.419C248.336 156.705 249.615 160.628 252.173 163.191C254.732 165.913 259.02 167.275 265.04 167.275H273.843C279.561 167.275 283.7 166.154 286.258 163.911C288.816 161.829 290.095 158.466 290.095 153.822V141.09H248.336V151.419ZM177.232 156.224C177.232 160.869 178.361 164.312 180.618 166.554C183.026 168.796 187.089 169.917 192.807 169.917H206.577C213.8 169.917 218.766 168.556 221.475 165.833C224.334 163.271 225.763 158.947 225.763 152.861V141.09H177.232V156.224Z" fill="#C8D844"/>
<path d="M202.436 217.06H264.885L312.665 524.834H266.561L258.179 463.719V464.598H205.789L197.407 524.834H154.656L202.436 217.06ZM252.73 422.829L232.193 270.7H231.355L211.237 422.829H252.73Z" fill="#C8D844"/>
<path d="M22.3359 621.04C22.3359 598.135 28.3845 580.813 40.4817 569.074C52.8478 557.335 70.456 551.466 93.3063 551.466H109.436V596.131H90.0804C71.8001 596.131 62.66 604.291 62.66 620.611C62.66 628.627 64.8106 634.64 69.1118 638.648C73.6819 642.943 80.9402 645.09 90.8868 645.09C102.715 645.09 113.065 642.227 121.936 636.501C131.076 630.775 141.964 620.181 154.599 604.72C170.728 585.251 185.245 571.651 198.149 563.92C211.321 556.19 226.107 552.325 242.505 552.325C264.818 552.325 282.023 558.337 294.12 570.362C306.486 582.388 312.669 599.853 312.669 622.758C312.669 645.377 306.486 662.412 294.12 673.865C282.023 685.604 264.549 691.473 241.699 691.473H230.005V646.808H244.521C254.199 646.808 261.189 644.804 265.49 640.796C270.06 636.787 272.345 630.918 272.345 623.187C272.345 607.44 263.339 599.566 245.328 599.566C235.112 599.566 225.569 602.43 216.698 608.156C207.826 614.168 197.073 624.905 184.438 640.366C168.309 660.122 153.658 673.722 140.485 681.166C127.313 688.61 111.855 692.332 94.1128 692.332C70.9936 692.332 53.251 686.176 40.8849 673.865C28.5189 661.84 22.3359 644.231 22.3359 621.04Z" fill="#C8D844"/>
<path d="M49.8913 506.733H57.5472V494.11H51.167L50.3259 494.115C41.6952 494.215 35.0105 495.873 30.2719 499.087C25.6363 502.301 23.2457 506.995 23.1009 513.171L23.0941 513.773C23.0942 520.328 25.5399 525.304 30.4313 528.703C35.3228 532.182 42.3413 533.922 51.4863 533.922C58.2852 533.922 64.2359 532.935 69.3383 530.961L69.8294 530.767C74.8771 528.728 80.4737 525.057 86.6191 519.754L87.2151 519.235C92.2129 514.866 96.4665 511.831 99.9756 510.132C103.375 508.564 107.024 507.756 110.923 507.707L111.301 507.704C118.425 507.704 121.988 509.93 121.988 514.38L121.985 514.583C121.93 516.668 121.027 518.259 119.276 519.357C117.575 520.49 114.81 521.056 110.982 521.056H105.239V533.68H109.865C118.904 533.68 125.816 532.021 130.601 528.703C135.339 525.567 137.783 520.951 137.931 514.854L137.938 514.259C137.938 507.785 135.492 502.849 130.601 499.45C125.816 496.052 119.01 494.353 110.184 494.353L109.578 494.356C103.333 494.422 97.6862 495.513 92.6384 497.63C87.5343 499.815 81.7923 503.658 75.4121 509.161C70.4143 513.53 66.1072 516.525 62.4918 518.143C58.9827 519.761 54.8888 520.571 50.2101 520.571L49.8445 520.569C46.0973 520.532 43.3479 519.926 41.5967 518.75C39.8954 517.617 39.0447 515.918 39.0447 513.652H39.5764C39.5764 515.84 40.395 517.412 41.9471 518.445L41.9487 518.446C43.6141 519.565 46.3284 520.166 50.2101 520.166C54.8056 520.166 58.8017 519.372 62.2166 517.797L62.2223 517.794C65.7634 516.209 70.0252 513.254 75.0108 508.895L75.0134 508.893C81.4109 503.376 87.199 499.494 92.3778 497.277L92.3819 497.275C97.6779 495.055 103.616 493.948 110.184 493.948C119.097 493.948 126.05 495.665 130.964 499.155C135.992 502.651 138.47 507.708 138.47 514.259C138.47 520.732 135.99 525.673 130.95 529.008C126.034 532.412 118.978 534.084 109.865 534.084H104.708V520.652H110.982C114.763 520.652 117.369 520.089 118.926 519.052L118.932 519.048L118.938 519.045C120.596 518.006 121.456 516.474 121.456 514.38C121.456 512.241 120.605 510.702 118.979 509.686C117.332 508.658 114.804 508.109 111.301 508.109C107.36 508.109 103.681 508.897 100.254 510.477C96.8116 512.145 92.6004 515.144 87.6165 519.501L87.0183 520.021C80.853 525.342 75.2067 529.053 70.0787 531.124C64.7781 533.264 58.5749 534.327 51.4863 534.327C42.2594 534.327 35.0946 532.571 30.0735 529.002C25.041 525.505 22.5625 520.405 22.5625 513.773C22.5625 507.224 24.986 502.204 29.9136 498.787L29.9183 498.784C34.9388 495.379 42.0477 493.705 51.167 493.705H58.0789V507.138H49.8913C46.3371 507.138 43.7703 507.706 42.0977 508.773C40.4433 509.829 39.5764 511.429 39.5764 513.652H39.0447L39.0473 513.438C39.1584 508.968 42.7733 506.733 49.8913 506.733Z" fill="#C8D844"/>
<path d="M136.873 476.798L24.1562 490.766V476.589L46.0083 474.196V459.689L24.1562 457.261V444.055L136.427 457.969L136.873 458.024V476.798ZM136.341 458.368L24.688 444.53V456.911L46.54 459.339V474.511H46.8594L24.688 476.939V490.291L136.341 476.453V458.368ZM116.882 466.986L61.693 472.933V460.917L116.882 466.743V466.986ZM62.2247 461.381V472.467L114.191 466.867L62.2247 461.381Z" fill="#C8D844"/>
<path d="M51.1658 440.249H60.736C73.2837 440.249 81.0464 436.931 84.0238 430.296H84.343C85.9381 433.209 88.5436 435.353 92.159 436.729C95.6614 438.14 100.161 438.868 105.659 438.912L106.195 438.914H110.661C119.244 438.914 125.612 437.385 129.765 434.327L129.961 434.18C134.082 431.123 136.206 426.319 136.335 419.768L136.341 419.129H136.873C136.873 426.057 134.733 431.202 130.337 434.466L130.135 434.618C125.844 437.777 119.316 439.318 110.661 439.318H106.195C100.399 439.318 95.6265 438.584 91.9098 437.086C88.4459 435.766 85.8792 433.757 84.2165 431.074C82.6363 434.162 79.9715 436.514 76.2291 438.113C72.2424 439.817 67.0658 440.653 60.736 440.653H51.1658C42.4599 440.653 35.7129 438.894 31.011 435.316C26.4122 431.816 24.1562 426.68 24.1562 419.979V398.575H136.873V419.129H136.341V398.98H24.688V419.979L24.6947 420.596C24.8277 426.824 26.9891 431.581 31.1792 434.869L31.3869 435.03C35.8165 438.401 42.1424 440.138 50.364 440.244L51.1658 440.249ZM51.6444 426.493H61.3743C66.4541 426.493 69.7799 425.802 71.5365 424.539L71.5473 424.532L71.5593 424.524C73.4078 423.34 74.4005 421.299 74.4005 418.279V412.736H41.1701V419.979H40.6385V412.332H74.9322V418.279C74.9322 421.354 73.9219 423.539 71.9015 424.834C69.9874 426.209 66.4783 426.897 61.3743 426.897H51.6444C47.6036 426.897 44.7324 426.331 43.031 425.198C41.4361 424.065 40.6385 422.325 40.6385 419.979H41.1701C41.1702 422.258 41.9439 423.87 43.3903 424.899C44.9446 425.929 47.6488 426.493 51.6444 426.493ZM102.686 425.157H108.907C112.905 425.157 115.677 424.594 117.341 423.55L117.349 423.546L117.356 423.541C118.989 422.591 119.859 421.033 119.859 418.765V412.736H91.4145V417.551H90.8828V412.332H120.391V418.765C120.391 421.111 119.487 422.811 117.679 423.863C115.872 424.995 112.947 425.562 108.907 425.562H102.686C98.4328 425.562 95.4019 424.874 93.5942 423.499L93.4275 423.375C91.7311 422.079 90.8828 420.138 90.8828 417.551H91.4145C91.4145 420.157 92.2956 422.013 93.9585 423.204L93.9649 423.208L93.9701 423.213C95.6293 424.475 98.4852 425.157 102.686 425.157Z" fill="#C8D844"/>
<path d="M40.6385 391.296V368.234H74.9322V386.562H90.8828V368.234H120.391V391.296H136.341V354.882H24.688V391.296H40.6385ZM119.859 391.701V368.638H91.4145V386.967H74.4005V368.638H41.1701V391.701H24.1562V354.478H136.873V391.701H119.859Z" fill="#C8D844"/>
<path d="M51.1658 347.078H60.736C73.2837 347.078 81.0464 343.76 84.0238 337.125H84.343C85.9381 340.038 88.5436 342.182 92.159 343.558C95.6614 344.969 100.161 345.697 105.659 345.741L106.195 345.743H110.661C119.244 345.743 125.612 344.214 129.765 341.156L129.961 341.009C134.082 337.952 136.206 333.148 136.335 326.598L136.341 325.958H136.873C136.873 332.886 134.733 338.031 130.337 341.295L130.135 341.447C125.844 344.606 119.316 346.147 110.661 346.147H106.195C100.399 346.147 95.6265 345.413 91.9098 343.915C88.4459 342.595 85.8792 340.586 84.2165 337.903C82.6363 340.991 79.9715 343.343 76.2291 344.942C72.2424 346.646 67.0658 347.483 60.736 347.483H51.1658C42.4599 347.483 35.7129 345.723 31.011 342.145C26.4122 338.645 24.1562 333.509 24.1562 326.808V305.404H136.873V325.958H136.341V305.809H24.688V326.808L24.6947 327.425C24.8277 333.653 26.9891 338.411 31.1792 341.698L31.3869 341.859C35.8165 345.23 42.1424 346.967 50.364 347.073L51.1658 347.078ZM51.6444 333.322H61.3743C66.4541 333.322 69.7799 332.631 71.5365 331.369L71.5473 331.361L71.5593 331.354C73.4078 330.169 74.4005 328.128 74.4005 325.108V319.565H41.1701V326.808H40.6385V319.161H74.9322V325.108C74.9322 328.183 73.9219 330.368 71.9015 331.663C69.9874 333.038 66.4783 333.726 61.3743 333.726H51.6444C47.6036 333.726 44.7324 333.16 43.031 332.027C41.4361 330.894 40.6385 329.154 40.6385 326.808H41.1701C41.1702 329.088 41.9439 330.699 43.3903 331.728C44.9446 332.758 47.6488 333.322 51.6444 333.322ZM102.686 331.987H108.907C112.905 331.986 115.677 331.423 117.341 330.38L117.349 330.375L117.356 330.37C118.989 329.42 119.859 327.863 119.859 325.594V319.565H91.4145V324.38H90.8828V319.161H120.391V325.594C120.391 327.94 119.487 329.64 117.679 330.692C115.872 331.825 112.947 332.391 108.907 332.391H102.686C98.4328 332.391 95.4019 331.703 93.5942 330.328L93.4275 330.204C91.7311 328.908 90.8828 326.967 90.8828 324.38H91.4145C91.4145 326.986 92.2956 328.842 93.9585 330.033L93.9649 330.037L93.9701 330.042C95.6293 331.304 98.4852 331.987 102.686 331.987Z" fill="#C8D844"/>
</g>
<path d="M334.5 713.5L334.5 0.5L0.5 0.5L0.5 713.5H334.5Z" stroke="#C3C84A"/>
</g>
<defs>
<clipPath id="clip0_521_4981">
<rect width="335" height="714" fill="white"/>
</clipPath>
</defs>
</svg>
