<svg width="72" height="72" viewBox="0 0 72 72" fill="none" xmlns="http://www.w3.org/2000/svg">
<g clip-path="url(#clip0_521_4727)">
<path d="M24.0748 20.0942L-0.00390625 6.85547V58.8649L24.0748 71.9997V20.0942Z" fill="#231F20"/>
<path d="M24.0748 20.0946L71.9961 13.2388L47.4453 0L-0.00390625 6.85579L24.0748 20.0946Z" fill="#2E2C2D"/>
<path d="M24.0781 20.0941V71.9995L71.9994 64.9168V13.2383L24.0781 20.0941Z" fill="#E0E454"/>
</g>
<path d="M55.136 54.7402L51.1942 54.8806C51.0636 54.6411 50.8692 53.7529 50.7823 52.4539C50.0753 54.3101 48.5673 55.381 46.4948 55.4549C43.7315 55.5533 41.9132 53.6243 41.7988 50.414C41.683 47.1631 42.9575 45.246 46.5511 43.3277C49.4655 41.7591 49.8588 41.3789 49.8183 40.2411L49.8038 39.8347C49.7445 38.1686 49.1916 37.4966 47.9725 37.54C46.6315 37.5878 46.0523 38.4628 46.1073 40.007L46.1348 40.7792L42.0711 40.9239L42.0523 40.3956C41.909 36.3726 43.899 33.9824 47.8814 33.8406C52.1889 33.6871 53.9767 35.902 54.1388 40.4533L54.4356 48.7839C54.5398 51.7098 54.8096 53.5718 55.136 54.7402ZM47.9886 51.699C49.4515 51.6469 50.1816 50.4409 50.1006 48.1652L49.9746 44.6298C49.664 45.0478 49.0283 45.4773 47.9165 46.2493C46.6451 47.1084 46.0325 48.1881 46.0803 49.5291C46.1324 50.992 46.7695 51.7424 47.9886 51.699Z" fill="black"/>
<defs>
<clipPath id="clip0_521_4727">
<rect width="72" height="72" fill="white"/>
</clipPath>
</defs>
</svg>
