<svg width="72" height="72" viewBox="0 0 72 72" fill="none" xmlns="http://www.w3.org/2000/svg">
<g clip-path="url(#clip0_521_4728)">
<path d="M24.0748 20.0942L-0.00390625 6.85547V58.8649L24.0748 71.9997V20.0942Z" fill="#231F20"/>
<path d="M24.0748 20.0946L71.9961 13.2388L47.4453 0L-0.00390625 6.85579L24.0748 20.0946Z" fill="#2E2C2D"/>
<path d="M24.0781 20.0941V71.9995L71.9994 64.9168V13.2383L24.0781 20.0941Z" fill="#E0E454"/>
</g>
<path d="M50.0351 35.7639C52.9204 35.6611 54.8127 37.384 54.9647 41.6508L55.3005 51.0786C55.4525 55.3455 53.6876 57.1986 50.8023 57.3014C48.8111 57.3723 47.1843 56.2503 46.4226 54.2837L45.9521 57.0673L42.823 57.1788L41.8098 28.7329L46.1173 28.5795L46.4459 37.8041C47.2558 36.5546 48.4909 35.8189 50.0351 35.7639ZM50.9829 50.9476L50.6673 42.0887C50.6167 40.6665 50.1712 39.5837 48.7489 39.6344C47.5298 39.6778 46.5457 40.608 46.6326 43.0462L46.8902 50.2796C46.9771 52.7178 48.0249 53.5756 49.244 53.5322C50.6663 53.4815 51.0336 52.3699 50.9829 50.9476Z" fill="black"/>
<defs>
<clipPath id="clip0_521_4728">
<rect width="72" height="72" fill="white"/>
</clipPath>
</defs>
</svg>
