<svg width="72" height="72" viewBox="0 0 72 72" fill="none" xmlns="http://www.w3.org/2000/svg">
<g clip-path="url(#clip0_521_4729)">
<path d="M24.0748 20.0942L-0.00390625 6.85547V58.8649L24.0748 71.9997V20.0942Z" fill="#231F20"/>
<path d="M24.0748 20.0946L71.9961 13.2388L47.4453 0L-0.00390625 6.85579L24.0748 20.0946Z" fill="#2E2C2D"/>
<path d="M24.0781 20.0941V71.9995L71.9994 64.9168V13.2383L24.0781 20.0941Z" fill="#E0E454"/>
</g>
<path d="M48.7299 55.3752C44.6255 55.5214 42.3443 53.1614 42.1937 48.9352L41.9013 40.7265C41.7508 36.5003 43.8583 33.9839 47.9627 33.8377C52.1076 33.69 54.1915 36.2199 54.3362 40.2836L54.3811 41.5433L50.2361 41.691L50.1768 40.0248C50.1218 38.4806 49.5617 37.6054 48.0987 37.6576C46.6358 37.7097 46.1394 38.6225 46.1944 40.1667L46.5157 49.1881C46.5707 50.7323 47.1309 51.6075 48.5938 51.5554C50.0567 51.5033 50.5531 50.5904 50.4981 49.0462L50.4243 46.9737L54.5693 46.8261L54.6286 48.4922C54.7734 52.5559 52.8748 55.2276 48.7299 55.3752Z" fill="black"/>
<defs>
<clipPath id="clip0_521_4729">
<rect width="72" height="72" fill="white"/>
</clipPath>
</defs>
</svg>
