<svg width="72" height="72" viewBox="0 0 72 72" fill="none" xmlns="http://www.w3.org/2000/svg">
<g clip-path="url(#clip0_521_4730)">
<path d="M24.0748 20.0942L-0.00390625 6.85547V58.8649L24.0748 71.9997V20.0942Z" fill="#231F20"/>
<path d="M24.0748 20.0946L71.9961 13.2388L47.4453 0L-0.00390625 6.85579L24.0748 20.0946Z" fill="#2E2C2D"/>
<path d="M24.0781 20.0941V71.9995L71.9994 64.9168V13.2383L24.0781 20.0941Z" fill="#E0E454"/>
</g>
<path d="M55.7049 56.7199L51.7631 56.8603C51.6325 56.6208 51.4382 55.7326 51.3106 54.4351C50.6428 56.2492 49.1362 57.3608 47.2263 57.4288C44.3817 57.5301 42.4894 55.8072 42.3374 51.5404L42.0015 42.1126C41.8495 37.8457 43.6145 35.9926 46.4591 35.8913C48.0033 35.8362 49.3283 36.4808 50.2251 37.6695L49.8965 28.4449L54.204 28.2914L55.0045 50.7636C55.1087 53.6895 55.3785 55.5516 55.7049 56.7199ZM48.5531 53.5568C49.7723 53.5134 50.7563 52.5832 50.6695 50.145L50.4118 42.9116C50.325 40.4734 49.2772 39.6156 48.0581 39.659C46.6358 39.7097 46.2685 40.8213 46.3192 42.2436L46.6347 51.1025C46.6854 52.5248 47.1309 53.6075 48.5531 53.5568Z" fill="black"/>
<defs>
<clipPath id="clip0_521_4730">
<rect width="72" height="72" fill="white"/>
</clipPath>
</defs>
</svg>
