<svg width="72" height="72" viewBox="0 0 72 72" fill="none" xmlns="http://www.w3.org/2000/svg">
<g clip-path="url(#clip0_521_4731)">
<path d="M24.0748 20.0942L-0.00390625 6.85547V58.8649L24.0748 71.9997V20.0942Z" fill="#231F20"/>
<path d="M24.0748 20.0946L71.9961 13.2388L47.4453 0L-0.00390625 6.85579L24.0748 20.0946Z" fill="#2E2C2D"/>
<path d="M24.0781 20.0941V71.9995L71.9994 64.9168V13.2383L24.0781 20.0941Z" fill="#E0E454"/>
</g>
<path d="M48.0439 33.8348C52.1889 33.6871 54.5108 36.0457 54.6642 40.3533L54.8408 45.311L46.3883 45.612L46.5128 49.1068C46.578 50.9355 47.334 51.6002 48.7563 51.5496C50.138 51.5004 50.8855 50.782 50.8203 48.9534L50.7928 48.1813L54.9378 48.0336L54.9508 48.3994C55.1043 52.7069 52.9561 55.2247 48.8111 55.3723C44.6662 55.52 42.3443 53.1614 42.1908 48.8539L41.9042 40.8078C41.7508 36.5003 43.899 33.9824 48.0439 33.8348ZM46.2667 42.1985L50.493 42.048L50.4235 40.0974C50.3584 38.2688 49.5617 37.6054 48.2206 37.6532C46.8796 37.701 46.1321 38.4193 46.1973 40.248L46.2667 42.1985Z" fill="black"/>
<defs>
<clipPath id="clip0_521_4731">
<rect width="72" height="72" fill="white"/>
</clipPath>
</defs>
</svg>
