<svg width="72" height="72" viewBox="0 0 72 72" fill="none" xmlns="http://www.w3.org/2000/svg">
<g clip-path="url(#clip0_521_4732)">
<path d="M24.0748 20.0942L-0.00390625 6.85547V58.8649L24.0748 71.9997V20.0942Z" fill="#231F20"/>
<path d="M24.0748 20.0946L71.9961 13.2388L47.4453 0L-0.00390625 6.85579L24.0748 20.0946Z" fill="#2E2C2D"/>
<path d="M24.0781 20.0941V71.9995L71.9994 64.9168V13.2383L24.0781 20.0941Z" fill="#E0E454"/>
</g>
<path d="M52.1241 31.8902C50.905 31.9337 50.4753 32.4372 50.5217 33.7376L50.6114 36.2571L53.7404 36.1456L53.8707 39.8029L50.7417 39.9144L51.3496 56.9819L47.0421 57.1353L46.4342 40.0678L44.0772 40.1518L43.947 36.4945L46.3039 36.4105L46.1939 33.3221C46.0737 29.9493 47.6805 28.2238 51.094 28.1022C51.988 28.0704 52.7238 28.1662 53.4654 28.4246L53.5957 32.0819C53.0616 31.9382 52.5711 31.8743 52.1241 31.8902Z" fill="black"/>
<defs>
<clipPath id="clip0_521_4732">
<rect width="72" height="72" fill="white"/>
</clipPath>
</defs>
</svg>
