<svg width="72" height="72" viewBox="0 0 72 72" fill="none" xmlns="http://www.w3.org/2000/svg">
<g clip-path="url(#clip0_521_4733)">
<path d="M24.0748 20.0942L-0.00390625 6.85547V58.8649L24.0748 71.9997V20.0942Z" fill="#231F20"/>
<path d="M24.0748 20.0946L71.9961 13.2388L47.4453 0L-0.00390625 6.85579L24.0748 20.0946Z" fill="#2E2C2D"/>
<path d="M24.0781 20.0941V71.9995L71.9994 64.9168V13.2383L24.0781 20.0941Z" fill="#E0E454"/>
</g>
<path d="M51.6592 31.1485L55.3978 31.0154L56.1461 52.0246C56.288 56.007 54.8306 58.5003 49.9949 58.6725C45.8905 58.8187 43.7471 56.9013 43.6197 53.3253L43.6154 53.2034L47.7604 53.0557L47.7719 53.3808C47.811 54.478 48.4466 55.1878 49.7876 55.14C51.2506 55.0879 51.9153 54.3318 51.8502 52.5032L51.7387 49.3741C50.9288 50.6236 49.6937 51.3593 48.1495 51.4143C45.2642 51.5171 43.3719 49.7942 43.2199 45.5273L42.9203 37.1155C42.7683 32.8486 44.5332 30.9955 47.4185 30.8927C49.2878 30.8261 50.8696 31.8277 51.6647 33.5896L51.6592 31.1485ZM49.4357 47.5438C50.6548 47.5004 51.6389 46.5702 51.552 44.132L51.3305 37.9145C51.2437 35.4763 50.1959 34.6185 48.9768 34.6619C47.5545 34.7126 47.1872 35.8242 47.2379 37.2465L47.5173 45.0894C47.5679 46.5117 48.0134 47.5945 49.4357 47.5438Z" fill="black"/>
<defs>
<clipPath id="clip0_521_4733">
<rect width="72" height="72" fill="white"/>
</clipPath>
</defs>
</svg>
