<svg width="72" height="72" viewBox="0 0 72 72" fill="none" xmlns="http://www.w3.org/2000/svg">
<g clip-path="url(#clip0_521_4734)">
<path d="M24.0748 20.0942L-0.00390625 6.85547V58.8649L24.0748 71.9997V20.0942Z" fill="#231F20"/>
<path d="M24.0748 20.0946L71.9961 13.2388L47.4453 0L-0.00390625 6.85579L24.0748 20.0946Z" fill="#2E2C2D"/>
<path d="M24.0781 20.0941V71.9995L71.9994 64.9168V13.2383L24.0781 20.0941Z" fill="#E0E454"/>
</g>
<path d="M50.0351 35.7639C52.9204 35.6611 54.7314 37.3869 54.8834 41.6537L55.4205 56.73L51.113 56.8835L50.5933 42.2948C50.5296 40.5068 50.0087 39.5895 48.7083 39.6358C47.4892 39.6793 46.5443 40.5674 46.6326 43.0462L47.1305 57.0253L42.823 57.1788L41.8098 28.7329L46.1173 28.5795L46.4444 37.7634C47.2137 36.5154 48.4909 35.8189 50.0351 35.7639Z" fill="black"/>
<defs>
<clipPath id="clip0_521_4734">
<rect width="72" height="72" fill="white"/>
</clipPath>
</defs>
</svg>
