<svg width="72" height="72" viewBox="0 0 72 72" fill="none" xmlns="http://www.w3.org/2000/svg">
<g clip-path="url(#clip0_521_4736)">
<path d="M24.0748 20.0942L-0.00390625 6.85547V58.8649L24.0748 71.9997V20.0942Z" fill="#231F20"/>
<path d="M24.0748 20.0946L71.9961 13.2388L47.4453 0L-0.00390625 6.85579L24.0748 20.0946Z" fill="#2E2C2D"/>
<path d="M24.0781 20.0941V71.9995L71.9994 64.9168V13.2383L24.0781 20.0941Z" fill="#E0E454"/>
</g>
<path d="M45.9936 31.8938L45.8257 27.18L50.1332 27.0265L50.3011 31.7404L45.9936 31.8938ZM46.94 61.8882C46.1272 61.9171 45.3914 61.8213 44.7717 61.5585L44.6429 57.9419C45.013 58.0507 45.4222 58.1175 45.8692 58.1016C46.6007 58.0756 46.9128 57.6982 46.8853 56.9261L46.0848 34.454L50.3923 34.3005L51.2087 57.2197C51.3173 60.2675 49.9065 61.7825 46.94 61.8882Z" fill="black"/>
<defs>
<clipPath id="clip0_521_4736">
<rect width="72" height="72" fill="white"/>
</clipPath>
</defs>
</svg>
