<svg width="72" height="72" viewBox="0 0 72 72" fill="none" xmlns="http://www.w3.org/2000/svg">
<g clip-path="url(#clip0_521_4739)">
<path d="M24.0748 20.0942L-0.00390625 6.85547V58.8649L24.0748 71.9997V20.0942Z" fill="#231F20"/>
<path d="M24.0748 20.0946L71.9961 13.2388L47.4453 0L-0.00390625 6.85579L24.0748 20.0946Z" fill="#2E2C2D"/>
<path d="M24.0781 20.0941V71.9995L71.9994 64.9168V13.2383L24.0781 20.0941Z" fill="#E0E454"/>
</g>
<path d="M55.1625 33.4744C58.0477 33.3716 59.8603 35.138 60.0108 39.3642L60.5478 54.4405L56.2403 54.594L55.7134 39.8021C55.6628 38.3798 55.2579 37.2957 53.8763 37.3449C52.6572 37.3883 51.7544 38.3156 51.8412 40.7538L52.3392 54.7329L48.0317 54.8864L47.5048 40.0945C47.4541 38.6722 47.0493 37.5881 45.6676 37.6373C44.4485 37.6807 43.5457 38.608 43.6326 41.0462L44.1305 55.0253L39.823 55.1788L39.0848 34.454L42.8234 34.3208L42.9901 36.7155C43.6578 34.9014 45.0846 33.8333 46.9539 33.7668C48.9451 33.6958 50.3978 34.4985 51.1973 36.3824C51.8665 34.609 53.3339 33.5395 55.1625 33.4744Z" fill="black"/>
<defs>
<clipPath id="clip0_521_4739">
<rect width="72" height="72" fill="white"/>
</clipPath>
</defs>
</svg>
