<svg width="72" height="72" viewBox="0 0 72 72" fill="none" xmlns="http://www.w3.org/2000/svg">
<g clip-path="url(#clip0_521_4740)">
<path d="M24.0748 20.0942L-0.00390625 6.85547V58.8649L24.0748 71.9997V20.0942Z" fill="#231F20"/>
<path d="M24.0748 20.0946L71.9961 13.2388L47.4453 0L-0.00390625 6.85579L24.0748 20.0946Z" fill="#2E2C2D"/>
<path d="M24.0781 20.0941V71.9995L71.9994 64.9168V13.2383L24.0781 20.0941Z" fill="#E0E454"/>
</g>
<path d="M50.0351 32.7639C52.9204 32.6611 54.7314 34.3869 54.8834 38.6537L55.4205 53.73L51.113 53.8835L50.5933 39.2948C50.5296 37.5068 50.0087 36.5895 48.7083 36.6358C47.4892 36.6793 46.5443 37.5674 46.6326 40.0462L47.1305 54.0253L42.823 54.1788L42.0848 33.454L45.8234 33.3208L45.9901 35.7155C46.6578 33.9014 48.1252 32.8319 50.0351 32.7639Z" fill="black"/>
<defs>
<clipPath id="clip0_521_4740">
<rect width="72" height="72" fill="white"/>
</clipPath>
</defs>
</svg>
