<svg width="72" height="72" viewBox="0 0 72 72" fill="none" xmlns="http://www.w3.org/2000/svg">
<g clip-path="url(#clip0_521_4741)">
<path d="M24.0748 20.0942L-0.00390625 6.85547V58.8649L24.0748 71.9997V20.0942Z" fill="#231F20"/>
<path d="M24.0748 20.0946L71.9961 13.2388L47.4453 0L-0.00390625 6.85579L24.0748 20.0946Z" fill="#2E2C2D"/>
<path d="M24.0781 20.0941V71.9995L71.9994 64.9168V13.2383L24.0781 20.0941Z" fill="#E0E454"/>
</g>
<path d="M49.7705 54.3738C45.7068 54.5185 43.3443 52.1614 43.1908 47.8539L42.9042 39.8078C42.7508 35.5003 44.9396 32.981 49.0033 32.8362C53.067 32.6915 55.4295 35.0486 55.5829 39.3562L55.8696 47.4023C56.023 51.7098 53.8342 54.229 49.7705 54.3738ZM49.6344 50.5539C51.1786 50.4989 51.6286 49.425 51.5765 47.9621L51.261 39.1032C51.2103 37.6809 50.7242 36.5997 49.1394 36.6561C47.5545 36.7126 47.1466 37.8257 47.1973 39.248L47.5128 48.1068C47.5649 49.5697 48.0902 50.6089 49.6344 50.5539Z" fill="black"/>
<defs>
<clipPath id="clip0_521_4741">
<rect width="72" height="72" fill="white"/>
</clipPath>
</defs>
</svg>
