<svg width="72" height="72" viewBox="0 0 72 72" fill="none" xmlns="http://www.w3.org/2000/svg">
<g clip-path="url(#clip0_521_4742)">
<path d="M24.0748 20.0942L-0.00390625 6.85547V58.8649L24.0748 71.9997V20.0942Z" fill="#231F20"/>
<path d="M24.0748 20.0946L71.9961 13.2388L47.4453 0L-0.00390625 6.85579L24.0748 20.0946Z" fill="#2E2C2D"/>
<path d="M24.0781 20.0941V71.9995L71.9994 64.9168V13.2383L24.0781 20.0941Z" fill="#E0E454"/>
</g>
<path d="M50.0351 30.7639C52.9204 30.6611 54.8127 32.384 54.9647 36.6508L55.3005 46.0786C55.4525 50.3455 53.6876 52.1986 50.8023 52.3014C49.2581 52.3564 47.9738 51.7105 47.077 50.5218L47.3549 58.324L43.0474 58.4775L42.0848 31.454L45.8234 31.3208L45.9915 33.7561C46.6593 31.942 48.1658 30.8305 50.0351 30.7639ZM50.9829 45.9476L50.6673 37.0887C50.6167 35.6665 50.1712 34.5837 48.7489 34.6344C47.5298 34.6778 46.5457 35.608 46.6326 38.0462L46.8902 45.2796C46.9771 47.7178 48.0249 48.5756 49.244 48.5322C50.6663 48.4815 51.0336 47.3699 50.9829 45.9476Z" fill="black"/>
<defs>
<clipPath id="clip0_521_4742">
<rect width="72" height="72" fill="white"/>
</clipPath>
</defs>
</svg>
