<svg width="72" height="72" viewBox="0 0 72 72" fill="none" xmlns="http://www.w3.org/2000/svg">
<g clip-path="url(#clip0_521_4743)">
<path d="M24.0748 20.0942L-0.00390625 6.85547V58.8649L24.0748 71.9997V20.0942Z" fill="#231F20"/>
<path d="M24.0748 20.0946L71.9961 13.2388L47.4453 0L-0.00390625 6.85579L24.0748 20.0946Z" fill="#2E2C2D"/>
<path d="M24.0781 20.0941V71.9995L71.9994 64.9168V13.2383L24.0781 20.0941Z" fill="#E0E454"/>
</g>
<path d="M50.35 31.1239L53.479 31.0125L54.4416 58.036L50.1341 58.1894L49.8562 50.3871C49.0463 51.6366 47.8111 52.3723 46.2669 52.4274C43.3817 52.5301 41.4894 50.8072 41.3374 46.5404L41.0015 37.1126C40.8495 32.8457 42.6145 30.9926 45.4997 30.8898C47.4909 30.8189 49.1178 31.9409 49.8795 33.9075L50.35 31.1239ZM47.5531 48.5568C48.7723 48.5134 49.7563 47.5832 49.6695 45.145L49.4118 37.9116C49.325 35.4734 48.2772 34.6156 47.0581 34.659C45.6358 34.7097 45.2685 35.8213 45.3192 37.2436L45.6347 46.1025C45.6854 47.5248 46.1309 48.6075 47.5531 48.5568Z" fill="black"/>
<defs>
<clipPath id="clip0_521_4743">
<rect width="72" height="72" fill="white"/>
</clipPath>
</defs>
</svg>
