<svg width="72" height="72" viewBox="0 0 72 72" fill="none" xmlns="http://www.w3.org/2000/svg">
<g clip-path="url(#clip0_521_4744)">
<path d="M24.0748 20.0942L-0.00390625 6.85547V58.8649L24.0748 71.9997V20.0942Z" fill="#231F20"/>
<path d="M24.0748 20.0946L71.9961 13.2388L47.4453 0L-0.00390625 6.85579L24.0748 20.0946Z" fill="#2E2C2D"/>
<path d="M24.0781 20.0941V71.9995L71.9994 64.9168V13.2383L24.0781 20.0941Z" fill="#E0E454"/>
</g>
<path d="M51.9132 33.7682C52.4415 33.7494 52.8101 33.8176 53.141 33.9686L53.2901 38.1542C52.9621 38.0845 52.5543 38.0583 52.1886 38.0714C49.791 38.1568 48.5906 39.8678 48.705 43.0781L49.1305 55.0253L44.823 55.1788L44.0848 34.454L47.8234 34.3208L48.0291 37.8127C48.5054 35.1916 49.8001 33.8435 51.9132 33.7682Z" fill="black"/>
<defs>
<clipPath id="clip0_521_4744">
<rect width="72" height="72" fill="white"/>
</clipPath>
</defs>
</svg>
