<svg width="72" height="72" viewBox="0 0 72 72" fill="none" xmlns="http://www.w3.org/2000/svg">
<g clip-path="url(#clip0_521_4745)">
<path d="M24.0748 20.0942L-0.00390625 6.85547V58.8649L24.0748 71.9997V20.0942Z" fill="#231F20"/>
<path d="M24.0748 20.0946L71.9961 13.2388L47.4453 0L-0.00390625 6.85579L24.0748 20.0946Z" fill="#2E2C2D"/>
<path d="M24.0781 20.0941V71.9995L71.9994 64.9168V13.2383L24.0781 20.0941Z" fill="#E0E454"/>
</g>
<path d="M49.2828 54.3912C45.3004 54.533 42.9408 52.2571 42.799 48.2747L42.7758 47.6245L46.9208 47.4769L46.9483 48.249C47.0148 50.1183 47.8507 50.7395 48.9479 50.7004C50.0451 50.6614 50.7955 50.0243 50.7376 48.3988C50.6826 46.8546 49.272 46.0911 47.6132 45.2144C45.374 44.0328 42.8038 42.7002 42.6649 38.7991C42.5418 35.345 44.452 32.9984 48.2718 32.8623C51.8072 32.7364 54.164 34.931 54.2986 38.7102L54.3145 39.1572L50.2508 39.302L50.2306 38.733C50.1712 37.0669 49.5008 36.5212 48.4442 36.5588C47.5502 36.5907 46.7969 37.1464 46.8476 38.5687C46.9084 40.2755 48.4031 41.1174 50.1432 41.9912C52.381 43.1322 54.8699 44.4676 55.0016 48.1656C55.1319 51.8229 53.2246 54.2508 49.2828 54.3912Z" fill="black"/>
<defs>
<clipPath id="clip0_521_4745">
<rect width="72" height="72" fill="white"/>
</clipPath>
</defs>
</svg>
