<svg width="72" height="72" viewBox="0 0 72 72" fill="none" xmlns="http://www.w3.org/2000/svg">
<g clip-path="url(#clip0_521_4746)">
<path d="M24.0748 20.0942L-0.00390625 6.85547V58.8649L24.0748 71.9997V20.0942Z" fill="#231F20"/>
<path d="M24.0748 20.0946L71.9961 13.2388L47.4453 0L-0.00390625 6.85579L24.0748 20.0946Z" fill="#2E2C2D"/>
<path d="M24.0781 20.0941V71.9995L71.9994 64.9168V13.2383L24.0781 20.0941Z" fill="#E0E454"/>
</g>
<path d="M52.8301 38.8044L49.701 38.9159L50.1237 50.7818C50.17 52.0822 50.6344 52.5539 51.8535 52.5105C52.3005 52.4946 52.7853 52.3959 53.3078 52.2146L53.438 55.8719C52.7167 56.1824 51.9896 56.3304 51.0956 56.3622C47.6821 56.4838 45.9566 54.877 45.8365 51.5042L45.3935 39.0693L43.0366 39.1533L42.9063 35.4959L45.4664 35.4047L45.6731 29.7824L49.371 29.6506L49.5708 35.2585L52.6998 35.1471L52.8301 38.8044Z" fill="black"/>
<defs>
<clipPath id="clip0_521_4746">
<rect width="72" height="72" fill="white"/>
</clipPath>
</defs>
</svg>
