<svg width="72" height="72" viewBox="0 0 72 72" fill="none" xmlns="http://www.w3.org/2000/svg">
<g clip-path="url(#clip0_521_4747)">
<path d="M24.0748 20.0942L-0.00390625 6.85547V58.8649L24.0748 71.9997V20.0942Z" fill="#231F20"/>
<path d="M24.0748 20.0946L71.9961 13.2388L47.4453 0L-0.00390625 6.85579L24.0748 20.0946Z" fill="#2E2C2D"/>
<path d="M24.0781 20.0941V71.9995L71.9994 64.9168V13.2383L24.0781 20.0941Z" fill="#E0E454"/>
</g>
<path d="M50.2528 34.163L54.5603 34.0096L55.2986 54.7344L51.56 54.8675L51.3933 52.4729C50.7255 54.2869 49.2581 55.3564 47.3482 55.4245C44.463 55.5272 42.6519 53.8015 42.4999 49.5346L41.9629 34.4583L46.2704 34.3049L46.7901 48.8935C46.8537 50.6815 47.3747 51.5988 48.6751 51.5525C49.8942 51.5091 50.8391 50.6209 50.7508 48.1421L50.2528 34.163Z" fill="black"/>
<defs>
<clipPath id="clip0_521_4747">
<rect width="72" height="72" fill="white"/>
</clipPath>
</defs>
</svg>
