<svg width="72" height="72" viewBox="0 0 72 72" fill="none" xmlns="http://www.w3.org/2000/svg">
<g clip-path="url(#clip0_521_4751)">
<path d="M24.0748 20.0942L-0.00390625 6.85547V58.8649L24.0748 71.9997V20.0942Z" fill="#231F20"/>
<path d="M24.0748 20.0946L71.9961 13.2388L47.4453 0L-0.00390625 6.85579L24.0748 20.0946Z" fill="#2E2C2D"/>
<path d="M24.0781 20.0941V71.9995L71.9994 64.9168V13.2383L24.0781 20.0941Z" fill="#E0E454"/>
</g>
<path d="M46.2156 58.8071C45.4435 58.8346 44.6279 58.7823 43.8849 58.4833L43.7546 54.826C44.248 54.9711 44.7792 55.0336 45.3481 55.0133C46.811 54.9612 47.3248 54.536 47.5615 53.1849L47.6327 52.8975L41.8657 31.4974L46.2545 31.341L49.5259 45.5062L51.4966 31.1543L55.5197 31.011L51.7296 53.6874C51.1241 57.2489 49.5479 58.6884 46.2156 58.8071Z" fill="black"/>
<defs>
<clipPath id="clip0_521_4751">
<rect width="72" height="72" fill="white"/>
</clipPath>
</defs>
</svg>
