<svg width="185" height="37" viewBox="0 0 185 37" fill="none" xmlns="http://www.w3.org/2000/svg">
<mask id="mask0_14_405" style="mask-type:luminance" maskUnits="userSpaceOnUse" x="0" y="0" width="21" height="42">
<path d="M20.3814 41.8868H0V0.000183105H20.3814V41.8868Z" fill="white"/>
</mask>
<g mask="url(#mask0_14_405)">
<path d="M0.0257568 41.8865H9.96186C13.3537 41.8865 15.8278 41.0885 17.384 39.4929C18.9403 37.9371 19.7183 35.5237 19.7183 32.2525V30.577C19.7183 28.4228 19.3593 26.6676 18.641 25.3113C17.9626 23.955 16.9051 22.9776 15.4686 22.3793V22.2595C18.7408 21.1425 20.3769 18.2306 20.3769 13.5233V9.93298C20.3769 6.70173 19.5189 4.22845 17.8029 2.51307C16.1271 0.837609 13.6529 -0.00012207 10.3808 -0.00012207H0.0257568V41.8865ZM9.18374 24.8326C10.5006 24.8326 11.4782 25.1718 12.1167 25.8498C12.795 26.528 13.1342 27.6649 13.1342 29.2607V31.5943C13.1342 33.1102 12.8549 34.2072 12.2962 34.8854C11.7775 35.5636 10.9395 35.9027 9.78228 35.9027H6.60992V24.8326H9.18374ZM10.3808 5.98367C11.538 5.98367 12.396 6.28287 12.9547 6.88124C13.5133 7.51954 13.7926 8.59661 13.7926 10.1125V13.7626C13.7926 15.6774 13.4534 16.9938 12.7751 17.7118C12.1366 18.4699 11.0592 18.8489 9.54286 18.8489H6.60992V5.98367H10.3808Z" fill="#E6E6E5"/>
</g>
<mask id="mask1_14_405" style="mask-type:luminance" maskUnits="userSpaceOnUse" x="21" y="15" width="13" height="27">
<path d="M33.0335 41.887H21.8957V15.9824H33.0335V41.887Z" fill="white"/>
</mask>
<g mask="url(#mask1_14_405)">
<path d="M21.8957 41.8702H32.9939V38.1718H25.9651V31.3301H31.5511V27.6317H25.9651V19.6806H32.9939V15.9822H21.8957V41.8702Z" fill="#E6E6E5"/>
</g>
<mask id="mask2_14_405" style="mask-type:luminance" maskUnits="userSpaceOnUse" x="34" y="25" width="9" height="17">
<path d="M42.3504 41.9241H34.5464V25.8664H42.3504V41.9241Z" fill="white"/>
</mask>
<g mask="url(#mask2_14_405)">
<path d="M34.5762 41.8666H38.3717C39.6673 41.8666 40.6123 41.5618 41.2068 40.9523C41.8013 40.3581 42.0985 39.4362 42.0985 38.1866V37.5467C42.0985 36.7237 41.9613 36.0533 41.6869 35.5353C41.4279 35.0171 41.0239 34.6437 40.4751 34.4152V34.3695C41.725 33.9428 42.3499 32.8305 42.3499 31.0323V29.6608C42.3499 28.4267 42.0223 27.4819 41.3669 26.8266C40.7266 26.1866 39.7816 25.8666 38.5317 25.8666H34.5762V41.8666ZM38.0744 35.3524C38.5774 35.3524 38.9509 35.4819 39.1948 35.7409C39.454 35.9999 39.5834 36.4343 39.5834 37.0438V37.9352C39.5834 38.5143 39.4767 38.9333 39.2634 39.1924C39.0652 39.4514 38.7451 39.5809 38.3031 39.5809H37.0913V35.3524H38.0744ZM38.5317 28.1523C38.9738 28.1523 39.3015 28.2666 39.5148 28.4952C39.7282 28.7389 39.835 29.1504 39.835 29.7296V31.1238C39.835 31.8552 39.7054 32.3581 39.4463 32.6323C39.2024 32.9218 38.7908 33.0666 38.2117 33.0666H37.0913V28.1523H38.5317Z" fill="#E6E6E5"/>
</g>
<mask id="mask3_14_405" style="mask-type:luminance" maskUnits="userSpaceOnUse" x="43" y="31" width="6" height="11">
<path d="M48.9462 41.8862H43.5668V31.9637H48.9462V41.8862Z" fill="white"/>
</mask>
<g mask="url(#mask3_14_405)">
<path d="M45.1942 41.8527H47.2998L48.9107 31.9638H47.3563L47.0736 33.9275V33.8992H45.3072L45.0246 31.9638H43.5832L45.1942 41.8527ZM46.89 35.2413L46.1975 40.1291H46.1692L45.491 35.2413H46.89Z" fill="#E6E6E5"/>
</g>
<mask id="mask4_14_405" style="mask-type:luminance" maskUnits="userSpaceOnUse" x="50" y="35" width="3" height="7">
<path d="M52.9596 41.9998H50.0047V35.6372H52.9596V41.9998Z" fill="white"/>
</mask>
<g mask="url(#mask4_14_405)">
<path d="M51.4616 35.7001C50.9958 35.7001 50.6436 35.831 50.4048 36.0929C50.1661 36.3607 50.0467 36.742 50.0467 37.2367V37.5859H50.9551V37.1669C50.9551 36.7711 51.121 36.5731 51.4529 36.5731C51.616 36.5731 51.7382 36.6198 51.8197 36.7129C51.9071 36.8118 51.9507 36.969 51.9507 37.1844C51.9507 37.4404 51.8925 37.6646 51.776 37.8567C51.6596 38.0545 51.4442 38.2902 51.1298 38.5639C50.7338 38.9132 50.4572 39.2275 50.3 39.5069C50.1428 39.7921 50.0642 40.1122 50.0642 40.4673C50.0642 40.9505 50.1865 41.3229 50.4311 41.5848C50.6755 41.8526 51.0308 41.9865 51.4966 41.9865C51.9565 41.9865 52.3029 41.8526 52.5358 41.5848C52.7746 41.3229 52.8939 40.9446 52.8939 40.4498V40.1966H51.9856V40.5109C51.9856 40.7205 51.9449 40.8718 51.8634 40.965C51.7819 41.0639 51.6625 41.1133 51.5053 41.1133C51.185 41.1133 51.0249 40.9183 51.0249 40.5284C51.0249 40.3072 51.0832 40.1005 51.1996 39.9084C51.3218 39.7164 51.5403 39.4836 51.8547 39.2099C52.2564 38.8608 52.533 38.5435 52.6843 38.2582C52.8357 37.973 52.9115 37.6384 52.9115 37.2542C52.9115 36.7536 52.7863 36.3694 52.5358 36.1016C52.2914 35.834 51.9332 35.7001 51.4616 35.7001Z" fill="#E6E6E5"/>
</g>
<mask id="mask5_14_405" style="mask-type:luminance" maskUnits="userSpaceOnUse" x="164" y="0" width="21" height="42">
<path d="M164.613 41.8866H184.994V0H164.613V41.8866Z" fill="white"/>
</mask>
<g mask="url(#mask5_14_405)">
<path d="M184.975 41.8864H175.038C171.646 41.8864 169.172 41.0885 167.616 39.4929C166.059 37.937 165.282 35.5236 165.282 32.2524V30.577C165.282 28.4228 165.641 26.6676 166.358 25.3112C167.037 23.955 168.095 22.9775 169.531 22.3792V22.2595C166.259 21.1425 164.623 18.2305 164.623 13.5232V9.93292C164.623 6.70167 165.48 4.22839 167.197 2.51301C168.872 0.837548 171.347 -0.000183105 174.619 -0.000183105H184.975V41.8864ZM175.815 24.8325C174.499 24.8325 173.522 25.1717 172.884 25.8498C172.204 26.528 171.865 27.6649 171.865 29.2606V31.5942C171.865 33.1101 172.144 34.2071 172.704 34.8853C173.223 35.5635 174.06 35.9026 175.218 35.9026H178.389V24.8325H175.815ZM174.619 5.98361C173.462 5.98361 172.603 6.28281 172.045 6.88117C171.487 7.51948 171.207 8.59655 171.207 10.1124V13.7625C171.207 15.6774 171.547 16.9937 172.225 17.7118C172.863 18.4698 173.941 18.8488 175.458 18.8488H178.389V5.98361H174.619Z" fill="#E6E6E5"/>
</g>
<mask id="mask6_14_405" style="mask-type:luminance" maskUnits="userSpaceOnUse" x="151" y="15" width="13" height="27">
<path d="M151.965 41.8863H163.103V15.9818H151.965V41.8863Z" fill="white"/>
</mask>
<g mask="url(#mask6_14_405)">
<path d="M163.105 41.8693H152.008V38.171H159.035V31.3292H153.45V27.6309H159.035V19.6797H152.008V15.9814H163.105V41.8693Z" fill="#E6E6E5"/>
</g>
<mask id="mask7_14_405" style="mask-type:luminance" maskUnits="userSpaceOnUse" x="142" y="25" width="9" height="17">
<path d="M142.642 41.9241H150.446V25.8664H142.642V41.9241Z" fill="white"/>
</mask>
<g mask="url(#mask7_14_405)">
<path d="M150.426 41.8666H146.63C145.334 41.8666 144.389 41.5618 143.794 40.9523C143.201 40.3581 142.903 39.4362 142.903 38.1866V37.5467C142.903 36.7237 143.04 36.0533 143.315 35.5353C143.574 35.0171 143.978 34.6437 144.527 34.4152V34.3695C143.277 33.9428 142.652 32.8305 142.652 31.0323V29.6608C142.652 28.4267 142.979 27.4819 143.635 26.8266C144.275 26.1866 145.219 25.8666 146.47 25.8666H150.426V41.8666ZM146.928 35.3524C146.424 35.3524 146.051 35.4819 145.807 35.7409C145.547 35.9999 145.418 36.4343 145.418 37.0438V37.9352C145.418 38.5143 145.524 38.9333 145.738 39.1924C145.937 39.4514 146.257 39.5809 146.699 39.5809H147.91V35.3524H146.928ZM146.47 28.1523C146.028 28.1523 145.7 28.2666 145.486 28.4952C145.274 28.7389 145.166 29.1504 145.166 29.7296V31.1238C145.166 31.8552 145.296 32.3581 145.556 32.6323C145.799 32.9218 146.21 33.0666 146.79 33.0666H147.91V28.1523H146.47Z" fill="#E6E6E5"/>
</g>
<mask id="mask8_14_405" style="mask-type:luminance" maskUnits="userSpaceOnUse" x="136" y="31" width="6" height="11">
<path d="M136.054 41.8864H141.433V31.9639H136.054V41.8864Z" fill="white"/>
</mask>
<g mask="url(#mask8_14_405)">
<path d="M139.806 41.8527H137.701L136.09 31.9638H137.645L137.926 33.9275V33.8992H139.693L139.976 31.9638H141.418L139.806 41.8527ZM138.11 35.2413L138.803 40.1291H138.832L139.509 35.2413H138.11Z" fill="#E6E6E5"/>
</g>
<mask id="mask9_14_405" style="mask-type:luminance" maskUnits="userSpaceOnUse" x="132" y="35" width="3" height="7">
<path d="M132.038 41.9999H134.993V35.6374H132.038V41.9999Z" fill="white"/>
</mask>
<g mask="url(#mask9_14_405)">
<path d="M133.537 35.7009C134.003 35.7009 134.355 35.8318 134.594 36.0937C134.833 36.3615 134.952 36.7428 134.952 37.2375V37.5867H134.044V37.1676C134.044 36.7719 133.878 36.5739 133.546 36.5739C133.383 36.5739 133.261 36.6205 133.179 36.7137C133.092 36.8126 133.048 36.9697 133.048 37.1852C133.048 37.4412 133.106 37.6654 133.223 37.8575C133.339 38.0553 133.555 38.291 133.869 38.5647C134.265 38.914 134.542 39.2282 134.699 39.5077C134.856 39.7929 134.934 40.113 134.934 40.4681C134.934 40.9511 134.812 41.3237 134.568 41.5856C134.323 41.8534 133.968 41.9873 133.502 41.9873C133.042 41.9873 132.696 41.8534 132.463 41.5856C132.224 41.3237 132.105 40.9454 132.105 40.4506V40.1974H133.013V40.5117C133.013 40.7213 133.054 40.8726 133.135 40.9657C133.217 41.0647 133.336 41.1141 133.493 41.1141C133.814 41.1141 133.974 40.9191 133.974 40.5292C133.974 40.308 133.916 40.1013 133.799 39.9092C133.677 39.7172 133.458 39.4844 133.144 39.2107C132.742 38.8616 132.466 38.5443 132.314 38.259C132.163 37.9738 132.087 37.6391 132.087 37.255C132.087 36.7543 132.212 36.3702 132.463 36.1024C132.707 35.8348 133.065 35.7009 133.537 35.7009Z" fill="#E6E6E5"/>
</g>
</svg>
