<svg width="138" height="118" viewBox="0 0 138 118" fill="none" xmlns="http://www.w3.org/2000/svg">
<g clip-path="url(#clip0_520_3944)">
<mask id="mask0_520_3944" style="mask-type:luminance" maskUnits="userSpaceOnUse" x="1" y="50" width="16" height="32">
<path d="M16.5948 81.5239H1.62109V50.7415H16.5948V81.5239Z" fill="white"/>
</mask>
<g mask="url(#mask0_520_3944)">
<path d="M1.64062 81.5241H8.94044C11.4324 81.5241 13.25 80.9377 14.3933 79.7651C15.5367 78.6217 16.1083 76.8481 16.1083 74.4441V73.2128C16.1083 71.6297 15.8445 70.3398 15.3168 69.343C14.8184 68.3463 14.0415 67.628 12.9861 67.1883V67.1003C15.3901 66.2794 16.5921 64.1394 16.5921 60.68V58.0415C16.5921 55.6669 15.9618 53.8493 14.7011 52.5886C13.4698 51.3573 11.6522 50.7417 9.24826 50.7417H1.64062V81.5241ZM8.36877 68.9912C9.33621 68.9912 10.0545 69.2405 10.5235 69.7388C11.0219 70.2372 11.2711 71.0727 11.2711 72.2454V73.9604C11.2711 75.0744 11.0659 75.8806 10.6555 76.379C10.2743 76.8774 9.65869 77.1266 8.80853 77.1266H6.47785V68.9912H8.36877ZM9.24826 55.1392C10.0984 55.1392 10.7288 55.3591 11.1392 55.7988C11.5496 56.2679 11.7548 57.0594 11.7548 58.1734V60.8559C11.7548 62.2631 11.5056 63.2305 11.0073 63.7582C10.5382 64.3153 9.74663 64.5938 8.63262 64.5938H6.47785V55.1392H9.24826Z" fill="#E6E6E5"/>
</g>
<mask id="mask1_520_3944" style="mask-type:luminance" maskUnits="userSpaceOnUse" x="17" y="62" width="9" height="20">
<path d="M25.8897 81.5239H17.707V62.4867H25.8897V81.5239Z" fill="white"/>
</mask>
<g mask="url(#mask1_520_3944)">
<path d="M17.707 81.5118H25.8606V78.7939H20.6967V73.7659H24.8006V71.048H20.6967V65.2047H25.8606V62.4868H17.707V81.5118Z" fill="#E6E6E5"/>
</g>
<mask id="mask2_520_3944" style="mask-type:luminance" maskUnits="userSpaceOnUse" x="27" y="69" width="6" height="13">
<path d="M32.7373 81.5518H27.0039V69.751H32.7373V81.5518Z" fill="white"/>
</mask>
<g mask="url(#mask2_520_3944)">
<path d="M27.0234 81.5094H29.8119C30.7637 81.5094 31.458 81.2854 31.8948 80.8375C32.3315 80.4008 32.5499 79.7233 32.5499 78.805V78.3347C32.5499 77.7299 32.4491 77.2372 32.2475 76.8565C32.0571 76.4757 31.7604 76.2013 31.3572 76.0334V75.9998C32.2755 75.6862 32.7346 74.8688 32.7346 73.5473V72.5394C32.7346 71.6324 32.4939 70.9381 32.0124 70.4565C31.542 69.9862 30.8477 69.751 29.9294 69.751H27.0234V81.5094ZM29.5935 76.7221C29.963 76.7221 30.2374 76.8173 30.4166 77.0076C30.6069 77.198 30.7021 77.5172 30.7021 77.9651V78.6202C30.7021 79.0458 30.6237 79.3537 30.467 79.5441C30.3214 79.7345 30.0862 79.8296 29.7615 79.8296H28.8712V76.7221H29.5935ZM29.9294 71.4308C30.2542 71.4308 30.495 71.5148 30.6517 71.6828C30.8085 71.8619 30.8869 72.1643 30.8869 72.5899V73.6145C30.8869 74.152 30.7917 74.5216 30.6013 74.7231C30.4222 74.9359 30.1198 75.0423 29.6943 75.0423H28.8712V71.4308H29.9294Z" fill="#E6E6E5"/>
</g>
<mask id="mask3_520_3944" style="mask-type:luminance" maskUnits="userSpaceOnUse" x="33" y="74" width="5" height="8">
<path d="M37.5811 81.5239H33.6289V74.2319H37.5811V81.5239Z" fill="white"/>
</mask>
<g mask="url(#mask3_520_3944)">
<path d="M34.8242 81.4992H36.371L37.5546 74.2319H36.4126L36.2049 75.675V75.6542H34.9072L34.6996 74.2319H33.6406L34.8242 81.4992ZM36.07 76.6405L35.5613 80.2326H35.5405L35.0422 76.6405H36.07Z" fill="#E6E6E5"/>
</g>
<mask id="mask4_520_3944" style="mask-type:luminance" maskUnits="userSpaceOnUse" x="38" y="76" width="3" height="6">
<path d="M40.5303 81.6074H38.3594V76.9316H40.5303V81.6074Z" fill="white"/>
</mask>
<g mask="url(#mask4_520_3944)">
<path d="M39.4301 76.9785C39.0879 76.9785 38.8291 77.0747 38.6537 77.2672C38.4783 77.464 38.3906 77.7442 38.3906 78.1078V78.3644H39.0579V78.0564C39.0579 77.7656 39.1799 77.6201 39.4237 77.6201C39.5435 77.6201 39.6333 77.6543 39.6932 77.7228C39.7573 77.7955 39.7894 77.911 39.7894 78.0693C39.7894 78.2575 39.7467 78.4222 39.6611 78.5634C39.5755 78.7088 39.4173 78.882 39.1863 79.0831C38.8954 79.3398 38.6922 79.5707 38.5767 79.7761C38.4612 79.9857 38.4035 80.221 38.4035 80.4819C38.4035 80.8369 38.4933 81.1107 38.673 81.3032C38.8526 81.5 39.1136 81.5984 39.4558 81.5984C39.7937 81.5984 40.0482 81.5 40.2193 81.3032C40.3947 81.1107 40.4824 80.8327 40.4824 80.4691V80.283H39.8151V80.514C39.8151 80.668 39.7852 80.7792 39.7253 80.8476C39.6654 80.9204 39.5777 80.9567 39.4622 80.9567C39.2269 80.9567 39.1093 80.8134 39.1093 80.5268C39.1093 80.3643 39.1521 80.2124 39.2376 80.0712C39.3274 79.9301 39.4879 79.759 39.7188 79.5579C40.014 79.3012 40.2172 79.0681 40.3284 78.8585C40.4396 78.6489 40.4952 78.4029 40.4952 78.1206C40.4952 77.7527 40.4033 77.4704 40.2193 77.2736C40.0397 77.0769 39.7766 76.9785 39.4301 76.9785Z" fill="#E6E6E5"/>
</g>
<mask id="mask5_520_3944" style="mask-type:luminance" maskUnits="userSpaceOnUse" x="34" y="84" width="10" height="21">
<path d="M43.9332 104.838H34.082V84.5863H43.9332V104.838Z" fill="white"/>
</mask>
<g mask="url(#mask5_520_3944)">
<path d="M34.0938 104.837H38.8963C40.5357 104.837 41.7315 104.451 42.4837 103.68C43.2359 102.928 43.6119 101.761 43.6119 100.179V99.369C43.6119 98.3275 43.4384 97.4789 43.0912 96.8231C42.7634 96.1673 42.2521 95.6948 41.5578 95.4055V95.3477C43.1394 94.8076 43.9301 93.3997 43.9301 91.1238V89.3879C43.9301 87.8256 43.5155 86.6299 42.6861 85.8005C41.876 84.9904 40.6803 84.5854 39.0988 84.5854H34.0938V104.837ZM38.5201 96.5917C39.1565 96.5917 39.6292 96.7556 39.9378 97.0835C40.2656 97.4114 40.4296 97.9611 40.4296 98.7326V99.8609C40.4296 100.594 40.2946 101.124 40.0246 101.452C39.7738 101.78 39.3688 101.944 38.8095 101.944H37.2761V96.5917H38.5201ZM39.0988 87.4785C39.6581 87.4785 40.0728 87.6231 40.3428 87.9124C40.6128 88.221 40.7477 88.7418 40.7477 89.4747V91.2395C40.7477 92.1653 40.5839 92.8017 40.256 93.1489C39.9474 93.5154 39.4265 93.6986 38.6936 93.6986H37.2761V87.4785H39.0988Z" fill="#E6E6E5"/>
</g>
<mask id="mask6_520_3944" style="mask-type:luminance" maskUnits="userSpaceOnUse" x="44" y="92" width="7" height="13">
<path d="M50.0474 104.838H44.6641V92.3134H50.0474V104.838Z" fill="white"/>
</mask>
<g mask="url(#mask6_520_3944)">
<path d="M44.6641 104.829H50.0283V103.041H46.6309V99.7335H49.3309V97.9454H46.6309V94.1011H50.0283V92.313H44.6641V104.829Z" fill="#E6E6E5"/>
</g>
<mask id="mask7_520_3944" style="mask-type:luminance" maskUnits="userSpaceOnUse" x="50" y="97" width="5" height="8">
<path d="M54.5532 104.856H50.7812V97.0922H54.5532V104.856Z" fill="white"/>
</mask>
<g mask="url(#mask7_520_3944)">
<path d="M50.7969 104.828H52.6314C53.2576 104.828 53.7144 104.68 54.0017 104.386C54.289 104.098 54.4327 103.653 54.4327 103.049V102.739C54.4327 102.341 54.3664 102.017 54.2338 101.767C54.1085 101.516 53.9133 101.336 53.6481 101.225V101.203C54.2522 100.997 54.5542 100.459 54.5542 99.5893V98.9263C54.5542 98.3295 54.3959 97.8727 54.0791 97.5559C53.7696 97.2465 53.3128 97.0918 52.7087 97.0918H50.7969V104.828ZM52.4877 101.678C52.7308 101.678 52.9113 101.741 53.0292 101.866C53.1544 101.991 53.2171 102.201 53.2171 102.496V102.927C53.2171 103.207 53.1655 103.41 53.0624 103.535C52.9666 103.66 52.8119 103.723 52.5982 103.723H52.0125V101.678H52.4877ZM52.7087 98.1969C52.9224 98.1969 53.0808 98.2522 53.1839 98.3627C53.2871 98.4805 53.3386 98.6795 53.3386 98.9594V99.6336C53.3386 99.9872 53.276 100.231 53.1508 100.363C53.0329 100.503 52.834 100.573 52.554 100.573H52.0125V98.1969H52.7087Z" fill="#E6E6E5"/>
</g>
<mask id="mask8_520_3944" style="mask-type:luminance" maskUnits="userSpaceOnUse" x="55" y="100" width="3" height="5">
<path d="M57.7368 104.838H55.1367V100.041H57.7368V104.838Z" fill="white"/>
</mask>
<g mask="url(#mask8_520_3944)">
<path d="M55.9232 104.821H56.9409L57.7195 100.04H56.9682L56.8316 100.99V100.976H55.9778L55.8412 100.04H55.1445L55.9232 104.821ZM56.7428 101.625L56.4081 103.988H56.3945L56.0666 101.625H56.7428Z" fill="#E6E6E5"/>
</g>
<mask id="mask9_520_3944" style="mask-type:luminance" maskUnits="userSpaceOnUse" x="58" y="101" width="2" height="4">
<path d="M59.6782 104.892H58.25V101.816H59.6782V104.892Z" fill="white"/>
</mask>
<g mask="url(#mask9_520_3944)">
<path d="M58.9534 101.847C58.7283 101.847 58.558 101.91 58.4426 102.037C58.3272 102.166 58.2695 102.351 58.2695 102.59V102.759H58.7086V102.556C58.7086 102.365 58.7888 102.269 58.9492 102.269C59.028 102.269 59.0871 102.292 59.1265 102.337C59.1687 102.384 59.1898 102.46 59.1898 102.565C59.1898 102.688 59.1617 102.797 59.1054 102.89C59.0491 102.985 58.945 103.099 58.793 103.232C58.6016 103.4 58.4679 103.552 58.392 103.687C58.316 103.825 58.278 103.98 58.278 104.152C58.278 104.385 58.3371 104.566 58.4553 104.692C58.5735 104.822 58.7451 104.886 58.9703 104.886C59.1926 104.886 59.3601 104.822 59.4726 104.692C59.588 104.566 59.6457 104.383 59.6457 104.143V104.021H59.2067V104.173C59.2067 104.274 59.187 104.347 59.1476 104.392C59.1082 104.44 59.0505 104.464 58.9745 104.464C58.8197 104.464 58.7423 104.37 58.7423 104.181C58.7423 104.074 58.7705 103.975 58.8268 103.882C58.8859 103.789 58.9914 103.676 59.1434 103.544C59.3375 103.375 59.4712 103.222 59.5444 103.084C59.6176 102.946 59.6542 102.784 59.6542 102.598C59.6542 102.356 59.5936 102.171 59.4726 102.041C59.3544 101.912 59.1814 101.847 58.9534 101.847Z" fill="#E6E6E5"/>
</g>
<mask id="mask10_520_3944" style="mask-type:luminance" maskUnits="userSpaceOnUse" x="57" y="108" width="5" height="10">
<path d="M61.3268 117.054H57.3672V108.914H61.3268V117.054Z" fill="white"/>
</mask>
<g mask="url(#mask10_520_3944)">
<path d="M57.375 117.054H59.3053C59.9643 117.054 60.4449 116.899 60.7473 116.589C61.0496 116.287 61.2008 115.818 61.2008 115.182V114.857C61.2008 114.438 61.131 114.097 60.9915 113.833C60.8597 113.57 60.6543 113.38 60.3752 113.263V113.24C61.0109 113.023 61.3287 112.457 61.3287 111.542V110.845C61.3287 110.217 61.162 109.736 60.8287 109.403C60.5031 109.077 60.0224 108.914 59.3867 108.914H57.375V117.054ZM59.1542 113.74C59.41 113.74 59.5999 113.806 59.724 113.938C59.8558 114.07 59.9217 114.291 59.9217 114.601V115.054C59.9217 115.349 59.8674 115.562 59.7589 115.694C59.6581 115.826 59.4953 115.891 59.2705 115.891H58.6541V113.74H59.1542ZM59.3867 110.077C59.6116 110.077 59.7782 110.135 59.8868 110.252C59.9953 110.376 60.0496 110.585 60.0496 110.88V111.589C60.0496 111.961 59.9837 112.217 59.8519 112.356C59.7278 112.504 59.5185 112.577 59.2239 112.577H58.6541V110.077H59.3867Z" fill="#E6E6E5"/>
</g>
<mask id="mask11_520_3944" style="mask-type:luminance" maskUnits="userSpaceOnUse" x="61" y="112" width="3" height="6">
<path d="M63.7849 117.054H61.6211V112.02H63.7849V117.054Z" fill="white"/>
</mask>
<g mask="url(#mask11_520_3944)">
<path d="M61.6211 117.051H63.7772V116.332H62.4117V115.003H63.4969V114.284H62.4117V112.739H63.7772V112.02H61.6211V117.051Z" fill="#E6E6E5"/>
</g>
<mask id="mask12_520_3944" style="mask-type:luminance" maskUnits="userSpaceOnUse" x="64" y="113" width="2" height="5">
<path d="M65.5943 117.062H64.0781V113.941H65.5943V117.062Z" fill="white"/>
</mask>
<g mask="url(#mask12_520_3944)">
<path d="M64.0859 117.05H64.8233C65.075 117.05 65.2586 116.991 65.3741 116.873C65.4896 116.757 65.5473 116.578 65.5473 116.335V116.211C65.5473 116.051 65.5207 115.921 65.4674 115.82C65.417 115.719 65.3386 115.647 65.232 115.602V115.593C65.4748 115.511 65.5962 115.294 65.5962 114.945V114.678C65.5962 114.439 65.5325 114.255 65.4052 114.128C65.2808 114.003 65.0972 113.941 64.8544 113.941H64.0859V117.05ZM64.7656 115.784C64.8633 115.784 64.9358 115.81 64.9832 115.86C65.0335 115.91 65.0587 115.995 65.0587 116.113V116.286C65.0587 116.399 65.038 116.48 64.9965 116.531C64.958 116.581 64.8958 116.606 64.81 116.606H64.5745V115.784H64.7656ZM64.8544 114.385C64.9403 114.385 65.0039 114.407 65.0454 114.452C65.0869 114.499 65.1076 114.579 65.1076 114.692V114.963C65.1076 115.105 65.0824 115.203 65.0321 115.256C64.9847 115.312 64.9047 115.34 64.7922 115.34H64.5745V114.385H64.8544Z" fill="#E6E6E5"/>
</g>
<mask id="mask13_520_3944" style="mask-type:luminance" maskUnits="userSpaceOnUse" x="65" y="115" width="2" height="3">
<path d="M66.8771 117.054H65.832V115.125H66.8771V117.054Z" fill="white"/>
</mask>
<g mask="url(#mask13_520_3944)">
<path d="M66.1489 117.048H66.558L66.8709 115.126H66.5689L66.514 115.507V115.502H66.1709L66.116 115.126H65.8359L66.1489 117.048ZM66.4783 115.763L66.3438 116.713H66.3383L66.2066 115.763H66.4783Z" fill="#E6E6E5"/>
</g>
<mask id="mask14_520_3944" style="mask-type:luminance" maskUnits="userSpaceOnUse" x="67" y="115" width="1" height="3">
<path d="M67.6561 117.076H67.082V115.839H67.6561V117.076Z" fill="white"/>
</mask>
<g mask="url(#mask14_520_3944)">
<path d="M67.3647 115.852C67.2742 115.852 67.2058 115.878 67.1594 115.929C67.113 115.981 67.0898 116.055 67.0898 116.151V116.219H67.2663V116.137C67.2663 116.06 67.2985 116.022 67.363 116.022C67.3947 116.022 67.4185 116.031 67.4343 116.049C67.4513 116.068 67.4597 116.099 67.4597 116.141C67.4597 116.19 67.4484 116.234 67.4258 116.271C67.4032 116.31 67.3613 116.356 67.3002 116.409C67.2233 116.477 67.1696 116.538 67.1391 116.592C67.1085 116.647 67.0932 116.71 67.0932 116.779C67.0932 116.873 67.117 116.945 67.1645 116.996C67.212 117.048 67.281 117.074 67.3715 117.074C67.4609 117.074 67.5282 117.048 67.5734 116.996C67.6198 116.945 67.643 116.871 67.643 116.775V116.726H67.4665V116.787C67.4665 116.828 67.4586 116.857 67.4428 116.875C67.4269 116.895 67.4037 116.904 67.3732 116.904C67.311 116.904 67.2799 116.866 67.2799 116.791C67.2799 116.748 67.2912 116.707 67.3138 116.67C67.3376 116.633 67.38 116.587 67.4411 116.534C67.5191 116.466 67.5729 116.405 67.6023 116.349C67.6317 116.294 67.6464 116.229 67.6464 116.154C67.6464 116.057 67.6221 115.982 67.5734 115.93C67.5259 115.878 67.4563 115.852 67.3647 115.852Z" fill="#E6E6E5"/>
</g>
<mask id="mask15_520_3944" style="mask-type:luminance" maskUnits="userSpaceOnUse" x="0" y="0" width="15" height="31">
<path d="M14.9737 30.7822H0V-0.000173569H14.9737V30.7822Z" fill="white"/>
</mask>
<g mask="url(#mask15_520_3944)">
<path d="M0.0195312 30.7824H7.31935C9.81127 30.7824 11.6289 30.196 12.7722 29.0234C13.9156 27.88 14.4872 26.1064 14.4872 23.7024V22.4711C14.4872 20.888 14.2234 19.5981 13.6957 18.6013C13.1973 17.6046 12.4204 16.8863 11.365 16.4466V16.3586C13.769 15.5377 14.971 13.3977 14.971 9.93831V7.29982C14.971 4.92518 14.3407 3.10757 13.08 1.84694C11.8488 0.615647 10.0311 0 7.62717 0H0.0195312V30.7824ZM6.74768 18.2495C7.71512 18.2495 8.43336 18.4988 8.90244 18.9971C9.4008 19.4955 9.65001 20.331 9.65001 21.5037V23.2187C9.65001 24.3327 9.44478 25.1389 9.03436 25.6373C8.65323 26.1357 8.03758 26.3849 7.18742 26.3849H4.85676V18.2495H6.74768ZM7.62717 4.39748C8.47733 4.39748 9.10767 4.61736 9.51809 5.0571C9.9285 5.52619 10.1337 6.31773 10.1337 7.43174V10.1142C10.1337 11.5214 9.88453 12.4888 9.38616 13.0165C8.91708 13.5736 8.12553 13.8521 7.01152 13.8521H4.85676V4.39748H7.62717Z" fill="#E6E6E5"/>
</g>
<mask id="mask16_520_3944" style="mask-type:luminance" maskUnits="userSpaceOnUse" x="16" y="11" width="9" height="20">
<path d="M24.2686 30.7822H16.0859V11.745H24.2686V30.7822Z" fill="white"/>
</mask>
<g mask="url(#mask16_520_3944)">
<path d="M16.0859 30.7701H24.2395V28.0522H19.0756V23.0242H23.1795V20.3063H19.0756V14.463H24.2395V11.7451H16.0859V30.7701Z" fill="#E6E6E5"/>
</g>
<mask id="mask17_520_3944" style="mask-type:luminance" maskUnits="userSpaceOnUse" x="25" y="19" width="7" height="12">
<path d="M31.1162 30.8101H25.3828V19.0093H31.1162V30.8101Z" fill="white"/>
</mask>
<g mask="url(#mask17_520_3944)">
<path d="M25.4023 30.7677H28.1908C29.1426 30.7677 29.8369 30.5437 30.2737 30.0958C30.7104 29.6591 30.9288 28.9816 30.9288 28.0633V27.593C30.9288 26.9882 30.828 26.4955 30.6264 26.1148C30.4361 25.734 30.1393 25.4596 29.7361 25.2917V25.2581C30.6544 24.9445 31.1135 24.1271 31.1135 22.8056V21.7977C31.1135 20.8907 30.8728 20.1964 30.3913 19.7148C29.9209 19.2445 29.2266 19.0093 28.3083 19.0093H25.4023V30.7677ZM27.9724 25.9804C28.3419 25.9804 28.6163 26.0756 28.7955 26.2659C28.9859 26.4563 29.081 26.7755 29.081 27.2234V27.8785C29.081 28.3041 29.0026 28.612 28.8459 28.8024C28.7003 28.9928 28.4651 29.0879 28.1404 29.0879H27.2501V25.9804H27.9724ZM28.3083 20.6891C28.6331 20.6891 28.8739 20.7731 29.0306 20.9411C29.1874 21.1202 29.2658 21.4226 29.2658 21.8482V22.8728C29.2658 23.4103 29.1706 23.7799 28.9803 23.9814C28.8011 24.1942 28.4987 24.3006 28.0732 24.3006H27.2501V20.6891H28.3083Z" fill="#E6E6E5"/>
</g>
<mask id="mask18_520_3944" style="mask-type:luminance" maskUnits="userSpaceOnUse" x="32" y="23" width="4" height="8">
<path d="M35.96 30.7822H32.0078V23.4902H35.96V30.7822Z" fill="white"/>
</mask>
<g mask="url(#mask18_520_3944)">
<path d="M33.2031 30.7575H34.75L35.9335 23.4902H34.7915L34.5838 24.9333V24.9125H33.2861L33.0785 23.4902H32.0195L33.2031 30.7575ZM34.4489 25.8988L33.9402 29.4909H33.9194L33.4211 25.8988H34.4489Z" fill="#E6E6E5"/>
</g>
<mask id="mask19_520_3944" style="mask-type:luminance" maskUnits="userSpaceOnUse" x="36" y="26" width="3" height="5">
<path d="M38.9092 30.8657H36.7383V26.1899H38.9092V30.8657Z" fill="white"/>
</mask>
<g mask="url(#mask19_520_3944)">
<path d="M37.809 26.2363C37.4668 26.2363 37.208 26.3325 37.0326 26.525C36.8572 26.7218 36.7695 27.002 36.7695 27.3656V27.6222H37.4369V27.3143C37.4369 27.0234 37.5588 26.8779 37.8026 26.8779C37.9224 26.8779 38.0122 26.9122 38.0721 26.9806C38.1363 27.0533 38.1683 27.1688 38.1683 27.3271C38.1683 27.5153 38.1256 27.68 38.04 27.8212C37.9545 27.9666 37.7962 28.1398 37.5652 28.3409C37.2743 28.5976 37.0711 28.8286 36.9556 29.0339C36.8401 29.2435 36.7824 29.4788 36.7824 29.7397C36.7824 30.0948 36.8722 30.3685 37.0519 30.561C37.2315 30.7578 37.4925 30.8562 37.8347 30.8562C38.1726 30.8562 38.4271 30.7578 38.5982 30.561C38.7736 30.3685 38.8613 30.0905 38.8613 29.7269V29.5408H38.194V29.7718C38.194 29.9258 38.1641 30.037 38.1042 30.1055C38.0443 30.1782 37.9566 30.2145 37.8411 30.2145C37.6058 30.2145 37.4882 30.0712 37.4882 29.7846C37.4882 29.6221 37.531 29.4702 37.6165 29.329C37.7063 29.1879 37.8668 29.0168 38.0978 28.8157C38.3929 28.5591 38.5961 28.3259 38.7073 28.1163C38.8185 27.9067 38.8742 27.6608 38.8742 27.3784C38.8742 27.0105 38.7822 26.7282 38.5982 26.5314C38.4186 26.3347 38.1555 26.2363 37.809 26.2363Z" fill="#E6E6E5"/>
</g>
<mask id="mask20_520_3944" style="mask-type:luminance" maskUnits="userSpaceOnUse" x="32" y="33" width="11" height="22">
<path d="M42.3121 54.0962H32.4609V33.8446H42.3121V54.0962Z" fill="white"/>
</mask>
<g mask="url(#mask20_520_3944)">
<path d="M32.4766 54.0962H37.2791C38.9185 54.0962 40.1143 53.7105 40.8665 52.939C41.6187 52.1868 41.9948 51.0199 41.9948 49.4384V48.6283C41.9948 47.5868 41.8212 46.7382 41.474 46.0824C41.1462 45.4266 40.635 44.9541 39.9407 44.6648V44.6069C41.5223 44.0669 42.313 42.6589 42.313 40.383V38.6472C42.313 37.0849 41.8984 35.8891 41.069 35.0598C40.2589 34.2497 39.0632 33.8447 37.4816 33.8447H32.4766V54.0962ZM36.903 45.851C37.5395 45.851 38.012 46.0149 38.3206 46.3428C38.6485 46.6706 38.8124 47.2203 38.8124 47.9918V49.1201C38.8124 49.853 38.6774 50.3835 38.4074 50.7113C38.1566 51.0392 37.7516 51.2031 37.1923 51.2031H35.6589V45.851H36.903ZM37.4816 36.7378C38.0409 36.7378 38.4556 36.8824 38.7256 37.1717C38.9956 37.4803 39.1306 38.0011 39.1306 38.734V40.4988C39.1306 41.4245 38.9667 42.061 38.6388 42.4082C38.3302 42.7747 37.8095 42.9579 37.0766 42.9579H35.6589V36.7378H37.4816Z" fill="#E6E6E5"/>
</g>
<mask id="mask21_520_3944" style="mask-type:luminance" maskUnits="userSpaceOnUse" x="43" y="41" width="6" height="14">
<path d="M48.4263 54.0962H43.043V41.5717H48.4263V54.0962Z" fill="white"/>
</mask>
<g mask="url(#mask21_520_3944)">
<path d="M43.043 54.0882H48.4072V52.3002H45.0098V48.9923H47.7098V47.2042H45.0098V43.3599H48.4072V41.5718H43.043V54.0882Z" fill="#E6E6E5"/>
</g>
<mask id="mask22_520_3944" style="mask-type:luminance" maskUnits="userSpaceOnUse" x="49" y="46" width="4" height="9">
<path d="M52.9321 54.1143H49.1602V46.3505H52.9321V54.1143Z" fill="white"/>
</mask>
<g mask="url(#mask22_520_3944)">
<path d="M49.1758 54.0864H51.0103C51.6365 54.0864 52.0933 53.939 52.3806 53.6443C52.6679 53.357 52.8116 52.9113 52.8116 52.3071V51.9977C52.8116 51.5999 52.7453 51.2757 52.6127 51.0252C52.4874 50.7747 52.2922 50.5942 52.027 50.4837V50.4616C52.6311 50.2553 52.9331 49.7175 52.9331 48.8481V48.1851C52.9331 47.5883 52.7748 47.1315 52.458 46.8147C52.1485 46.5053 51.6918 46.3506 51.0876 46.3506H49.1758V54.0864ZM50.8666 50.9368C51.1097 50.9368 51.2902 50.9994 51.4081 51.1247C51.5334 51.2499 51.596 51.4599 51.596 51.7546V52.1856C51.596 52.4655 51.5444 52.6681 51.4413 52.7934C51.3455 52.9186 51.1908 52.9813 50.9771 52.9813H50.3914V50.9368H50.8666ZM51.0876 47.4557C51.3013 47.4557 51.4597 47.511 51.5628 47.6215C51.666 47.7393 51.7175 47.9383 51.7175 48.2182V48.8924C51.7175 49.246 51.6549 49.4891 51.5297 49.6217C51.4118 49.7617 51.2129 49.8317 50.9329 49.8317H50.3914V47.4557H51.0876Z" fill="#E6E6E5"/>
</g>
<mask id="mask23_520_3944" style="mask-type:luminance" maskUnits="userSpaceOnUse" x="53" y="49" width="4" height="6">
<path d="M56.1157 54.0962H53.5156V49.2988H56.1157V54.0962Z" fill="white"/>
</mask>
<g mask="url(#mask23_520_3944)">
<path d="M54.3021 54.0799H55.3198L56.0984 49.2988H55.3471L55.2105 50.2482V50.2346H54.3567L54.2201 49.2988H53.5234L54.3021 54.0799ZM55.1217 50.8834L54.787 53.2466H54.7734L54.4455 50.8834H55.1217Z" fill="#E6E6E5"/>
</g>
<mask id="mask24_520_3944" style="mask-type:luminance" maskUnits="userSpaceOnUse" x="56" y="51" width="3" height="4">
<path d="M58.0571 54.1509H56.6289V51.0747H58.0571V54.1509Z" fill="white"/>
</mask>
<g mask="url(#mask24_520_3944)">
<path d="M57.3323 51.1055C57.1072 51.1055 56.9369 51.1689 56.8215 51.2955C56.7061 51.425 56.6484 51.6093 56.6484 51.8485V52.0174H57.0875V51.8147C57.0875 51.6234 57.1677 51.5277 57.3281 51.5277C57.4069 51.5277 57.466 51.5502 57.5054 51.5952C57.5476 51.6431 57.5687 51.7191 57.5687 51.8232C57.5687 51.947 57.5406 52.0554 57.4843 52.1482C57.428 52.2439 57.3239 52.3579 57.1719 52.4902C56.9805 52.659 56.8468 52.811 56.7709 52.9461C56.6949 53.084 56.6569 53.2388 56.6569 53.4104C56.6569 53.644 56.716 53.8241 56.8342 53.9508C56.9524 54.0802 57.124 54.145 57.3492 54.145C57.5715 54.145 57.739 54.0802 57.8515 53.9508C57.9669 53.8241 58.0246 53.6412 58.0246 53.402V53.2796H57.5856V53.4315C57.5856 53.5329 57.5659 53.606 57.5265 53.6511C57.4871 53.6989 57.4294 53.7228 57.3534 53.7228C57.1986 53.7228 57.1212 53.6285 57.1212 53.44C57.1212 53.333 57.1494 53.2331 57.2057 53.1403C57.2648 53.0474 57.3703 52.9348 57.5223 52.8026C57.7165 52.6337 57.8501 52.4803 57.9233 52.3424C57.9965 52.2045 58.0331 52.0427 58.0331 51.857C58.0331 51.6149 57.9726 51.4292 57.8515 51.2997C57.7333 51.1703 57.5603 51.1055 57.3323 51.1055Z" fill="#E6E6E5"/>
</g>
<mask id="mask25_520_3944" style="mask-type:luminance" maskUnits="userSpaceOnUse" x="55" y="58" width="5" height="9">
<path d="M59.7057 66.313H55.7461V58.173H59.7057V66.313Z" fill="white"/>
</mask>
<g mask="url(#mask25_520_3944)">
<path d="M55.75 66.3129H57.6803C58.3393 66.3129 58.8199 66.1579 59.1223 65.8478C59.4246 65.5455 59.5758 65.0764 59.5758 64.4407V64.1151C59.5758 63.6965 59.506 63.3554 59.3665 63.0918C59.2347 62.8282 59.0293 62.6383 58.7502 62.522V62.4988C59.3859 62.2817 59.7037 61.7158 59.7037 60.801V60.1033C59.7037 59.4753 59.537 58.9947 59.2037 58.6613C58.8781 58.3357 58.3974 58.1729 57.7617 58.1729H55.75V66.3129ZM57.5292 62.9988C57.785 62.9988 57.9749 63.0647 58.099 63.1965C58.2308 63.3283 58.2967 63.5492 58.2967 63.8593V64.3128C58.2967 64.6074 58.2424 64.8206 58.1339 64.9524C58.0331 65.0842 57.8703 65.1501 57.6455 65.1501H57.0291V62.9988H57.5292ZM57.7617 59.3358C57.9866 59.3358 58.1532 59.3939 58.2618 59.5102C58.3703 59.6343 58.4246 59.8436 58.4246 60.1382V60.8475C58.4246 61.2196 58.3587 61.4755 58.2269 61.615C58.1028 61.7623 57.8935 61.8359 57.5989 61.8359H57.0291V59.3358H57.7617Z" fill="#E6E6E5"/>
</g>
<mask id="mask26_520_3944" style="mask-type:luminance" maskUnits="userSpaceOnUse" x="60" y="61" width="3" height="6">
<path d="M62.1638 66.3125H60V61.2784H62.1638V66.3125Z" fill="white"/>
</mask>
<g mask="url(#mask26_520_3944)">
<path d="M60 66.3097H62.1561V65.591H60.7906V64.2614H61.8758V63.5427H60.7906V61.9975H62.1561V61.2788H60V66.3097Z" fill="#E6E6E5"/>
</g>
<mask id="mask27_520_3944" style="mask-type:luminance" maskUnits="userSpaceOnUse" x="62" y="63" width="2" height="4">
<path d="M63.9732 66.3198H62.457V63.1993H63.9732V66.3198Z" fill="white"/>
</mask>
<g mask="url(#mask27_520_3944)">
<path d="M62.4648 66.3085H63.2022C63.4539 66.3085 63.6375 66.2493 63.753 66.1309C63.8685 66.0154 63.9262 65.8362 63.9262 65.5934V65.469C63.9262 65.3091 63.8996 65.1788 63.8463 65.0781C63.7959 64.9774 63.7175 64.9049 63.6109 64.8605V64.8516C63.8537 64.7687 63.9751 64.5525 63.9751 64.2031V63.9365C63.9751 63.6967 63.9114 63.5131 63.7841 63.3857C63.6597 63.2614 63.4761 63.1992 63.2333 63.1992H62.4648V66.3085ZM63.1445 65.0426C63.2422 65.0426 63.3147 65.0678 63.3621 65.1181C63.4125 65.1684 63.4376 65.2528 63.4376 65.3713V65.5445C63.4376 65.657 63.4169 65.7385 63.3754 65.7888C63.3369 65.8392 63.2748 65.8643 63.1889 65.8643H62.9535V65.0426H63.1445ZM63.2333 63.6434C63.3192 63.6434 63.3828 63.6656 63.4243 63.71C63.4658 63.7574 63.4865 63.8373 63.4865 63.9499V64.2208C63.4865 64.363 63.4613 64.4607 63.411 64.514C63.3636 64.5703 63.2836 64.5984 63.1711 64.5984H62.9535V63.6434H63.2333Z" fill="#E6E6E5"/>
</g>
<mask id="mask28_520_3944" style="mask-type:luminance" maskUnits="userSpaceOnUse" x="64" y="64" width="2" height="3">
<path d="M65.256 66.3125H64.2109V64.3842H65.256V66.3125Z" fill="white"/>
</mask>
<g mask="url(#mask28_520_3944)">
<path d="M64.5278 66.306H64.9369L65.2498 64.3843H64.9478L64.8929 64.7659V64.7604H64.5498L64.4949 64.3843H64.2148L64.5278 66.306ZM64.8573 65.0212L64.7227 65.9711H64.7172L64.5855 65.0212H64.8573Z" fill="#E6E6E5"/>
</g>
<mask id="mask29_520_3944" style="mask-type:luminance" maskUnits="userSpaceOnUse" x="65" y="65" width="2" height="2">
<path d="M66.035 66.3345H65.4609V65.098H66.035V66.3345Z" fill="white"/>
</mask>
<g mask="url(#mask29_520_3944)">
<path d="M65.7435 65.1108C65.653 65.1108 65.5846 65.1362 65.5382 65.1871C65.4918 65.2392 65.4688 65.3133 65.4688 65.4094V65.4773H65.6451V65.3958C65.6451 65.3189 65.6774 65.2805 65.7418 65.2805C65.7735 65.2805 65.7973 65.2895 65.8131 65.3076C65.8301 65.3268 65.8385 65.3574 65.8385 65.3992C65.8385 65.449 65.8272 65.4926 65.8046 65.5299C65.782 65.5683 65.7401 65.6142 65.679 65.6673C65.6021 65.7352 65.5484 65.7963 65.5179 65.8506C65.4873 65.906 65.472 65.9682 65.472 66.0372C65.472 66.1311 65.4959 66.2035 65.5434 66.2544C65.5909 66.3064 65.6598 66.3325 65.7503 66.3325C65.8397 66.3325 65.907 66.3064 65.9522 66.2544C65.9986 66.2035 66.0218 66.13 66.0218 66.0338V65.9846H65.8453V66.0457C65.8453 66.0864 65.8374 66.1158 65.8216 66.1339C65.8057 66.1532 65.7826 66.1628 65.752 66.1628C65.6898 66.1628 65.6587 66.1249 65.6587 66.0491C65.6587 66.0061 65.67 65.966 65.6926 65.9286C65.7164 65.8913 65.7588 65.8461 65.8199 65.7929C65.8979 65.725 65.9517 65.6634 65.9811 65.6079C66.0105 65.5525 66.0252 65.4875 66.0252 65.4128C66.0252 65.3155 66.0009 65.2409 65.9522 65.1888C65.9047 65.1368 65.8352 65.1108 65.7435 65.1108Z" fill="#E6E6E5"/>
</g>
<mask id="mask30_520_3944" style="mask-type:luminance" maskUnits="userSpaceOnUse" x="122" y="50" width="16" height="32">
<path d="M122.561 81.5239H137.535V50.7415H122.561V81.5239Z" fill="white"/>
</mask>
<g mask="url(#mask30_520_3944)">
<path d="M137.518 81.5241H130.218C127.726 81.5241 125.908 80.9377 124.765 79.7651C123.622 78.6217 123.05 76.8481 123.05 74.4441V73.2128C123.05 71.6297 123.314 70.3398 123.841 69.343C124.34 68.3463 125.117 67.628 126.172 67.1883V67.1003C123.768 66.2794 122.566 64.1394 122.566 60.68V58.0415C122.566 55.6669 123.196 53.8493 124.457 52.5886C125.688 51.3573 127.506 50.7417 129.91 50.7417H137.518V81.5241ZM130.789 68.9912C129.822 68.9912 129.104 69.2405 128.635 69.7388C128.136 70.2372 127.887 71.0727 127.887 72.2454V73.9604C127.887 75.0744 128.092 75.8806 128.503 76.379C128.884 76.8774 129.5 77.1266 130.35 77.1266H132.68V68.9912H130.789ZM129.91 55.1392C129.06 55.1392 128.429 55.3591 128.019 55.7988C127.609 56.2679 127.403 57.0594 127.403 58.1734V60.8559C127.403 62.2631 127.653 63.2305 128.151 63.7582C128.62 64.3153 129.412 64.5938 130.526 64.5938H132.68V55.1392H129.91Z" fill="#E6E6E5"/>
</g>
<mask id="mask31_520_3944" style="mask-type:luminance" maskUnits="userSpaceOnUse" x="113" y="62" width="9" height="20">
<path d="M113.267 81.5239H121.449V62.4867H113.267V81.5239Z" fill="white"/>
</mask>
<g mask="url(#mask31_520_3944)">
<path d="M121.45 81.5113H113.297V78.7934H118.461V73.7654H114.357V71.0475H118.461V65.2042H113.297V62.4863H121.45V81.5113Z" fill="#E6E6E5"/>
</g>
<mask id="mask32_520_3944" style="mask-type:luminance" maskUnits="userSpaceOnUse" x="106" y="69" width="7" height="13">
<path d="M106.419 81.5518H112.152V69.751H106.419V81.5518Z" fill="white"/>
</mask>
<g mask="url(#mask32_520_3944)">
<path d="M112.133 81.5094H109.344C108.393 81.5094 107.698 81.2854 107.261 80.8375C106.825 80.4008 106.606 79.7233 106.606 78.805V78.3347C106.606 77.7299 106.707 77.2372 106.909 76.8565C107.099 76.4757 107.396 76.2013 107.799 76.0334V75.9998C106.881 75.6862 106.422 74.8688 106.422 73.5473V72.5394C106.422 71.6324 106.662 70.9381 107.144 70.4565C107.614 69.9862 108.309 69.751 109.227 69.751H112.133V81.5094ZM109.563 76.7221C109.193 76.7221 108.919 76.8173 108.74 77.0076C108.549 77.198 108.454 77.5172 108.454 77.9651V78.6202C108.454 79.0458 108.533 79.3537 108.689 79.5441C108.835 79.7345 109.07 79.8296 109.395 79.8296H110.285V76.7221H109.563ZM109.227 71.4308C108.902 71.4308 108.661 71.5148 108.505 71.6828C108.348 71.8619 108.269 72.1643 108.269 72.5899V73.6145C108.269 74.152 108.365 74.5216 108.555 74.7231C108.734 74.9359 109.036 75.0423 109.462 75.0423H110.285V71.4308H109.227Z" fill="#E6E6E5"/>
</g>
<mask id="mask33_520_3944" style="mask-type:luminance" maskUnits="userSpaceOnUse" x="101" y="74" width="5" height="8">
<path d="M101.575 81.5239H105.527V74.2319H101.575V81.5239Z" fill="white"/>
</mask>
<g mask="url(#mask33_520_3944)">
<path d="M104.332 81.4992H102.785L101.602 74.2319H102.744L102.951 75.675V75.6542H104.249L104.457 74.2319H105.516L104.332 81.4992ZM103.086 76.6405L103.595 80.2326H103.616L104.114 76.6405H103.086Z" fill="#E6E6E5"/>
</g>
<mask id="mask34_520_3944" style="mask-type:luminance" maskUnits="userSpaceOnUse" x="98" y="76" width="3" height="6">
<path d="M98.626 81.6074H100.797V76.9316H98.626V81.6074Z" fill="white"/>
</mask>
<g mask="url(#mask34_520_3944)">
<path d="M99.7253 76.9785C100.067 76.9785 100.326 77.0747 100.502 77.2672C100.677 77.464 100.765 77.7442 100.765 78.1078V78.3644H100.097V78.0564C100.097 77.7656 99.9756 77.6201 99.7318 77.6201C99.612 77.6201 99.5221 77.6543 99.4622 77.7228C99.398 77.7955 99.366 77.911 99.366 78.0693C99.366 78.2575 99.4088 78.4222 99.4944 78.5634C99.5799 78.7088 99.7382 78.882 99.9692 79.0831C100.26 79.3398 100.463 79.5707 100.579 79.7761C100.694 79.9857 100.752 80.221 100.752 80.4819C100.752 80.8369 100.662 81.1107 100.482 81.3032C100.303 81.5 100.042 81.5984 99.6997 81.5984C99.3617 81.5984 99.1072 81.5 98.9361 81.3032C98.7607 81.1107 98.673 80.8327 98.673 80.4691V80.283H99.3404V80.514C99.3404 80.668 99.3703 80.7792 99.4302 80.8476C99.4901 80.9204 99.5778 80.9567 99.6933 80.9567C99.9285 80.9567 100.046 80.8134 100.046 80.5268C100.046 80.3643 100.003 80.2124 99.9178 80.0712C99.828 79.9301 99.6676 79.759 99.4366 79.5579C99.1414 79.3012 98.9383 79.0681 98.827 78.8585C98.7158 78.6489 98.6602 78.4029 98.6602 78.1206C98.6602 77.7527 98.7522 77.4704 98.9361 77.2736C99.1158 77.0769 99.3789 76.9785 99.7253 76.9785Z" fill="#E6E6E5"/>
</g>
<mask id="mask35_520_3944" style="mask-type:luminance" maskUnits="userSpaceOnUse" x="95" y="84" width="11" height="21">
<path d="M95.2231 104.838H105.074V84.5863H95.2231V104.838Z" fill="white"/>
</mask>
<g mask="url(#mask35_520_3944)">
<path d="M105.06 104.838H100.257C98.6173 104.838 97.4215 104.452 96.6693 103.68C95.9171 102.928 95.541 101.761 95.541 100.18V99.3695C95.541 98.328 95.7145 97.4794 96.0617 96.8236C96.3896 96.1678 96.9007 95.6953 97.595 95.406V95.3481C96.0135 94.8081 95.2227 93.4001 95.2227 91.1242V89.3884C95.2227 87.8261 95.6374 86.6303 96.4667 85.801C97.2768 84.9909 98.4726 84.5859 100.055 84.5859H105.06V104.838ZM100.633 96.5922C99.9963 96.5922 99.5238 96.7561 99.2152 97.084C98.8873 97.4119 98.7234 97.9615 98.7234 98.733V99.8613C98.7234 100.594 98.8584 101.125 99.1284 101.453C99.3791 101.781 99.7842 101.944 100.344 101.944H101.877V96.5922H100.633ZM100.055 87.479C99.4949 87.479 99.0802 87.6236 98.8101 87.9129C98.5401 88.2215 98.4051 88.7423 98.4051 89.4752V91.24C98.4051 92.1658 98.5691 92.8022 98.8969 93.1494C99.2055 93.5159 99.7263 93.6991 100.46 93.6991H101.877V87.479H100.055Z" fill="#E6E6E5"/>
</g>
<mask id="mask36_520_3944" style="mask-type:luminance" maskUnits="userSpaceOnUse" x="89" y="92" width="6" height="13">
<path d="M89.1128 104.838H94.4961V92.3134H89.1128V104.838Z" fill="white"/>
</mask>
<g mask="url(#mask36_520_3944)">
<path d="M94.4931 104.829H89.1289V103.041H92.5262V99.7335H89.8262V97.9454H92.5262V94.1011H89.1289V92.313H94.4931V104.829Z" fill="#E6E6E5"/>
</g>
<mask id="mask37_520_3944" style="mask-type:luminance" maskUnits="userSpaceOnUse" x="84" y="97" width="5" height="8">
<path d="M84.603 104.856H88.375V97.0922H84.603V104.856Z" fill="white"/>
</mask>
<g mask="url(#mask37_520_3944)">
<path d="M88.359 104.828H86.5245C85.8983 104.828 85.4415 104.68 85.1542 104.386C84.8668 104.098 84.7232 103.653 84.7232 103.049V102.739C84.7232 102.341 84.7895 102.017 84.9221 101.767C85.0473 101.516 85.2426 101.336 85.5078 101.225V101.203C84.9037 100.997 84.6016 100.459 84.6016 99.5893V98.9263C84.6016 98.3295 84.76 97.8727 85.0768 97.5559C85.3862 97.2465 85.843 97.0918 86.4471 97.0918H88.359V104.828ZM86.6682 101.678C86.425 101.678 86.2445 101.741 86.1267 101.866C86.0014 101.991 85.9388 102.201 85.9388 102.496V102.927C85.9388 103.207 85.9904 103.41 86.0935 103.535C86.1893 103.66 86.344 103.723 86.5576 103.723H87.1434V101.678H86.6682ZM86.4471 98.1969C86.2335 98.1969 86.0751 98.2522 85.9719 98.3627C85.8688 98.4805 85.8172 98.6795 85.8172 98.9594V99.6336C85.8172 99.9872 85.8798 100.231 86.0051 100.363C86.123 100.503 86.3219 100.573 86.6018 100.573H87.1434V98.1969H86.4471Z" fill="#E6E6E5"/>
</g>
<mask id="mask38_520_3944" style="mask-type:luminance" maskUnits="userSpaceOnUse" x="81" y="100" width="4" height="5">
<path d="M81.4194 104.838H84.0195V100.041H81.4194V104.838Z" fill="white"/>
</mask>
<g mask="url(#mask38_520_3944)">
<path d="M83.2299 104.821H82.2122L81.4336 100.04H82.1849L82.3215 100.99V100.976H83.1752L83.3118 100.04H84.0085L83.2299 104.821ZM82.4103 101.625L82.7449 103.988H82.7586L83.0864 101.625H82.4103Z" fill="#E6E6E5"/>
</g>
<mask id="mask39_520_3944" style="mask-type:luminance" maskUnits="userSpaceOnUse" x="79" y="101" width="2" height="4">
<path d="M79.478 104.892H80.9062V101.816H79.478V104.892Z" fill="white"/>
</mask>
<g mask="url(#mask39_520_3944)">
<path d="M80.2008 101.847C80.4259 101.847 80.5962 101.91 80.7115 102.037C80.8269 102.166 80.8846 102.351 80.8846 102.59V102.759H80.4456V102.556C80.4456 102.365 80.3654 102.269 80.205 102.269C80.1262 102.269 80.0671 102.292 80.0277 102.337C79.9855 102.384 79.9644 102.46 79.9644 102.565C79.9644 102.688 79.9925 102.797 80.0488 102.89C80.1051 102.985 80.2092 103.099 80.3612 103.232C80.5525 103.4 80.6862 103.552 80.7622 103.687C80.8382 103.825 80.8762 103.98 80.8762 104.152C80.8762 104.385 80.8171 104.566 80.6989 104.692C80.5807 104.822 80.409 104.886 80.1839 104.886C79.9615 104.886 79.7941 104.822 79.6815 104.692C79.5661 104.566 79.5084 104.383 79.5084 104.143V104.021H79.9475V104.173C79.9475 104.274 79.9672 104.347 80.0066 104.392C80.046 104.44 80.1037 104.464 80.1796 104.464C80.3344 104.464 80.4118 104.37 80.4118 104.181C80.4118 104.074 80.3837 103.975 80.3274 103.882C80.2683 103.789 80.1628 103.676 80.0108 103.544C79.8166 103.375 79.6829 103.222 79.6098 103.084C79.5366 102.946 79.5 102.784 79.5 102.598C79.5 102.356 79.5605 102.171 79.6815 102.041C79.7997 101.912 79.9728 101.847 80.2008 101.847Z" fill="#E6E6E5"/>
</g>
<mask id="mask40_520_3944" style="mask-type:luminance" maskUnits="userSpaceOnUse" x="77" y="108" width="5" height="10">
<path d="M77.8295 117.054H81.7891V108.914H77.8295V117.054Z" fill="white"/>
</mask>
<g mask="url(#mask40_520_3944)">
<path d="M81.7819 117.054H79.8515C79.1926 117.054 78.7119 116.899 78.4096 116.589C78.1072 116.287 77.9561 115.818 77.9561 115.182V114.857C77.9561 114.438 78.0258 114.097 78.1654 113.833C78.2972 113.57 78.5026 113.38 78.7817 113.263V113.24C78.146 113.023 77.8281 112.457 77.8281 111.542V110.845C77.8281 110.217 77.9948 109.736 78.3282 109.403C78.6538 109.077 79.1344 108.914 79.7701 108.914H81.7819V117.054ZM80.0027 113.74C79.7469 113.74 79.5569 113.806 79.4329 113.938C79.3011 114.07 79.2352 114.291 79.2352 114.601V115.054C79.2352 115.349 79.2895 115.562 79.398 115.694C79.4988 115.826 79.6616 115.891 79.8864 115.891H80.5027V113.74H80.0027ZM79.7701 110.077C79.5453 110.077 79.3786 110.135 79.2701 110.252C79.1616 110.376 79.1073 110.585 79.1073 110.88V111.589C79.1073 111.961 79.1732 112.217 79.305 112.356C79.429 112.504 79.6383 112.577 79.9329 112.577H80.5027V110.077H79.7701Z" fill="#E6E6E5"/>
</g>
<mask id="mask41_520_3944" style="mask-type:luminance" maskUnits="userSpaceOnUse" x="75" y="112" width="3" height="6">
<path d="M75.3714 117.054H77.5352V112.02H75.3714V117.054Z" fill="white"/>
</mask>
<g mask="url(#mask41_520_3944)">
<path d="M77.535 117.051H75.3789V116.332H76.7444V115.003H75.6591V114.284H76.7444V112.739H75.3789V112.02H77.535V117.051Z" fill="#E6E6E5"/>
</g>
<mask id="mask42_520_3944" style="mask-type:luminance" maskUnits="userSpaceOnUse" x="73" y="113" width="3" height="5">
<path d="M73.5659 117.062H75.082V113.941H73.5659V117.062Z" fill="white"/>
</mask>
<g mask="url(#mask42_520_3944)">
<path d="M75.0727 117.05H74.3354C74.0836 117.05 73.9 116.991 73.7846 116.873C73.6691 116.757 73.6113 116.578 73.6113 116.335V116.211C73.6113 116.051 73.638 115.921 73.6913 115.82C73.7416 115.719 73.8201 115.647 73.9267 115.602V115.593C73.6839 115.511 73.5625 115.294 73.5625 114.945V114.678C73.5625 114.439 73.6261 114.255 73.7535 114.128C73.8778 114.003 74.0614 113.941 74.3043 113.941H75.0727V117.05ZM74.3931 115.784C74.2954 115.784 74.2228 115.81 74.1754 115.86C74.1251 115.91 74.0999 115.995 74.0999 116.113V116.286C74.0999 116.399 74.1207 116.48 74.1621 116.531C74.2006 116.581 74.2628 116.606 74.3487 116.606H74.5841V115.784H74.3931ZM74.3043 114.385C74.2184 114.385 74.1547 114.407 74.1133 114.452C74.0718 114.499 74.0511 114.579 74.0511 114.692V114.963C74.0511 115.105 74.0762 115.203 74.1266 115.256C74.174 115.312 74.2539 115.34 74.3664 115.34H74.5841V114.385H74.3043Z" fill="#E6E6E5"/>
</g>
<mask id="mask43_520_3944" style="mask-type:luminance" maskUnits="userSpaceOnUse" x="72" y="115" width="2" height="3">
<path d="M72.2752 117.054H73.3203V115.125H72.2752V117.054Z" fill="white"/>
</mask>
<g mask="url(#mask43_520_3944)">
<path d="M73.0072 117.048H72.5982L72.2852 115.126H72.5872L72.6421 115.507V115.502H72.9853L73.0402 115.126H73.3202L73.0072 117.048ZM72.6778 115.763L72.8123 116.713H72.8178L72.9496 115.763H72.6778Z" fill="#E6E6E5"/>
</g>
<mask id="mask44_520_3944" style="mask-type:luminance" maskUnits="userSpaceOnUse" x="71" y="115" width="2" height="3">
<path d="M71.5002 117.076H72.0742V115.839H71.5002V117.076Z" fill="white"/>
</mask>
<g mask="url(#mask44_520_3944)">
<path d="M71.7894 115.852C71.8799 115.852 71.9484 115.878 71.9947 115.929C72.0411 115.981 72.0643 116.055 72.0643 116.151V116.219H71.8878V116.137C71.8878 116.06 71.8556 116.022 71.7911 116.022C71.7595 116.022 71.7357 116.031 71.7199 116.049C71.7029 116.068 71.6944 116.099 71.6944 116.141C71.6944 116.19 71.7057 116.234 71.7283 116.271C71.751 116.31 71.7928 116.356 71.8539 116.409C71.9308 116.477 71.9846 116.538 72.0151 116.592C72.0456 116.647 72.0609 116.71 72.0609 116.779C72.0609 116.873 72.0372 116.945 71.9896 116.996C71.9421 117.048 71.8731 117.074 71.7826 117.074C71.6933 117.074 71.626 117.048 71.5807 116.996C71.5343 116.945 71.5112 116.871 71.5112 116.775V116.726H71.6876V116.787C71.6876 116.828 71.6955 116.857 71.7114 116.875C71.7272 116.895 71.7504 116.904 71.7809 116.904C71.8432 116.904 71.8743 116.866 71.8743 116.791C71.8743 116.748 71.863 116.707 71.8403 116.67C71.8166 116.633 71.7742 116.587 71.7131 116.534C71.635 116.466 71.5813 116.405 71.5519 116.349C71.5225 116.294 71.5078 116.229 71.5078 116.154C71.5078 116.057 71.5321 115.982 71.5807 115.93C71.6282 115.878 71.6978 115.852 71.7894 115.852Z" fill="#E6E6E5"/>
</g>
<mask id="mask45_520_3944" style="mask-type:luminance" maskUnits="userSpaceOnUse" x="120" y="0" width="16" height="31">
<path d="M120.94 30.7822H135.914V-0.000173569H120.94V30.7822Z" fill="white"/>
</mask>
<g mask="url(#mask45_520_3944)">
<path d="M135.897 30.7824H128.597C126.105 30.7824 124.287 30.196 123.144 29.0234C122 27.88 121.429 26.1064 121.429 23.7024V22.4711C121.429 20.888 121.693 19.5981 122.22 18.6013C122.719 17.6046 123.496 16.8863 124.551 16.4466V16.3586C122.147 15.5377 120.945 13.3977 120.945 9.93831V7.29982C120.945 4.92518 121.575 3.10757 122.836 1.84694C124.067 0.615647 125.885 0 128.289 0H135.897V30.7824ZM129.168 18.2495C128.201 18.2495 127.483 18.4988 127.014 18.9971C126.515 19.4955 126.266 20.331 126.266 21.5037V23.2187C126.266 24.3327 126.471 25.1389 126.882 25.6373C127.263 26.1357 127.878 26.3849 128.729 26.3849H131.059V18.2495H129.168ZM128.289 4.39748C127.439 4.39748 126.808 4.61736 126.398 5.0571C125.988 5.52619 125.782 6.31773 125.782 7.43174V10.1142C125.782 11.5214 126.032 12.4888 126.53 13.0165C126.999 13.5736 127.791 13.8521 128.905 13.8521H131.059V4.39748H128.289Z" fill="#E6E6E5"/>
</g>
<mask id="mask46_520_3944" style="mask-type:luminance" maskUnits="userSpaceOnUse" x="111" y="11" width="9" height="20">
<path d="M111.645 30.7822H119.828V11.745H111.645V30.7822Z" fill="white"/>
</mask>
<g mask="url(#mask46_520_3944)">
<path d="M119.829 30.7696H111.676V28.0517H116.839V23.0237H112.736V20.3058H116.839V14.4625H111.676V11.7446H119.829V30.7696Z" fill="#E6E6E5"/>
</g>
<mask id="mask47_520_3944" style="mask-type:luminance" maskUnits="userSpaceOnUse" x="104" y="19" width="7" height="12">
<path d="M104.798 30.8101H110.531V19.0093H104.798V30.8101Z" fill="white"/>
</mask>
<g mask="url(#mask47_520_3944)">
<path d="M110.512 30.7677H107.723C106.771 30.7677 106.077 30.5437 105.64 30.0958C105.204 29.6591 104.985 28.9816 104.985 28.0633V27.593C104.985 26.9882 105.086 26.4955 105.288 26.1148C105.478 25.734 105.775 25.4596 106.178 25.2917V25.2581C105.26 24.9445 104.801 24.1271 104.801 22.8056V21.7977C104.801 20.8907 105.041 20.1964 105.523 19.7148C105.993 19.2445 106.687 19.0093 107.606 19.0093H110.512V30.7677ZM107.942 25.9804C107.572 25.9804 107.298 26.0756 107.119 26.2659C106.928 26.4563 106.833 26.7755 106.833 27.2234V27.8785C106.833 28.3041 106.911 28.612 107.068 28.8024C107.214 28.9928 107.449 29.0879 107.774 29.0879H108.664V25.9804H107.942ZM107.606 20.6891C107.281 20.6891 107.04 20.7731 106.883 20.9411C106.727 21.1202 106.648 21.4226 106.648 21.8482V22.8728C106.648 23.4103 106.743 23.7799 106.934 23.9814C107.113 24.1942 107.415 24.3006 107.841 24.3006H108.664V20.6891H107.606Z" fill="#E6E6E5"/>
</g>
<mask id="mask48_520_3944" style="mask-type:luminance" maskUnits="userSpaceOnUse" x="99" y="23" width="5" height="8">
<path d="M99.9541 30.7822H103.906V23.4902H99.9541V30.7822Z" fill="white"/>
</mask>
<g mask="url(#mask48_520_3944)">
<path d="M102.711 30.7575H101.164L99.9805 23.4902H101.123L101.33 24.9333V24.9125H102.628L102.836 23.4902H103.895L102.711 30.7575ZM101.465 25.8988L101.974 29.4909H101.995L102.493 25.8988H101.465Z" fill="#E6E6E5"/>
</g>
<mask id="mask49_520_3944" style="mask-type:luminance" maskUnits="userSpaceOnUse" x="97" y="26" width="3" height="5">
<path d="M97.0049 30.8657H99.1758V26.1899H97.0049V30.8657Z" fill="white"/>
</mask>
<g mask="url(#mask49_520_3944)">
<path d="M98.1043 26.2368C98.4465 26.2368 98.7053 26.333 98.8807 26.5255C99.056 26.7223 99.1437 27.0025 99.1437 27.3661V27.6227H98.4764V27.3147C98.4764 27.0239 98.3545 26.8784 98.1107 26.8784C97.9909 26.8784 97.9011 26.9126 97.8412 26.9811C97.777 27.0538 97.7449 27.1693 97.7449 27.3276C97.7449 27.5158 97.7877 27.6805 97.8733 27.8217C97.9588 27.9671 98.1171 28.1403 98.3481 28.3414C98.639 28.5981 98.8422 28.829 98.9577 29.0344C99.0731 29.244 99.1309 29.4793 99.1309 29.7402C99.1309 30.0952 99.0411 30.369 98.8614 30.5615C98.6817 30.7583 98.4208 30.8567 98.0786 30.8567C97.7407 30.8567 97.4861 30.7583 97.315 30.5615C97.1396 30.369 97.0519 30.091 97.0519 29.7274V29.5413H97.7193V29.7723C97.7193 29.9263 97.7492 30.0375 97.8091 30.1059C97.869 30.1787 97.9567 30.215 98.0722 30.215C98.3074 30.215 98.4251 30.0717 98.4251 29.7851C98.4251 29.6226 98.3823 29.4707 98.2967 29.3295C98.2069 29.1884 98.0465 29.0173 97.8155 28.8162C97.5203 28.5596 97.3172 28.3264 97.2059 28.1168C97.0947 27.9072 97.0391 27.6612 97.0391 27.3789C97.0391 27.011 97.1311 26.7287 97.315 26.5319C97.4947 26.3352 97.7578 26.2368 98.1043 26.2368Z" fill="#E6E6E5"/>
</g>
<mask id="mask50_520_3944" style="mask-type:luminance" maskUnits="userSpaceOnUse" x="93" y="33" width="11" height="22">
<path d="M93.602 54.0962H103.453V33.8446H93.602V54.0962Z" fill="white"/>
</mask>
<g mask="url(#mask50_520_3944)">
<path d="M103.442 54.0962H98.6395C97.0001 54.0962 95.8043 53.7105 95.0521 52.939C94.2999 52.1868 93.9238 51.0199 93.9238 49.4384V48.6283C93.9238 47.5868 94.0974 46.7382 94.4445 46.0824C94.7724 45.4266 95.2835 44.9541 95.9779 44.6648V44.6069C94.3963 44.0669 93.6055 42.6589 93.6055 40.383V38.6472C93.6055 37.0849 94.0202 35.8891 94.8496 35.0598C95.6596 34.2497 96.8554 33.8447 98.437 33.8447H103.442V54.0962ZM99.0156 45.851C98.3791 45.851 97.9066 46.0149 97.598 46.3428C97.2701 46.6706 97.1062 47.2203 97.1062 47.9918V49.1201C97.1062 49.853 97.2412 50.3835 97.5112 50.7113C97.7619 51.0392 98.167 51.2031 98.7263 51.2031H100.26V45.851H99.0156ZM98.437 36.7378C97.8777 36.7378 97.463 36.8824 97.193 37.1717C96.9229 37.4803 96.7879 38.0011 96.7879 38.734V40.4988C96.7879 41.4245 96.9519 42.061 97.2797 42.4082C97.5884 42.7747 98.1091 42.9579 98.842 42.9579H100.26V36.7378H98.437Z" fill="#E6E6E5"/>
</g>
<mask id="mask51_520_3944" style="mask-type:luminance" maskUnits="userSpaceOnUse" x="87" y="41" width="6" height="14">
<path d="M87.4917 54.0962H92.875V41.5717H87.4917V54.0962Z" fill="white"/>
</mask>
<g mask="url(#mask51_520_3944)">
<path d="M92.872 54.0882H87.5078V52.3002H90.9051V48.9923H88.2051V47.2042H90.9051V43.3599H87.5078V41.5718H92.872V54.0882Z" fill="#E6E6E5"/>
</g>
<mask id="mask52_520_3944" style="mask-type:luminance" maskUnits="userSpaceOnUse" x="82" y="46" width="5" height="9">
<path d="M82.9819 54.1143H86.7539V46.3505H82.9819V54.1143Z" fill="white"/>
</mask>
<g mask="url(#mask52_520_3944)">
<path d="M86.7379 54.0864H84.9034C84.2772 54.0864 83.8204 53.939 83.5331 53.6443C83.2457 53.357 83.1021 52.9113 83.1021 52.3071V51.9977C83.1021 51.5999 83.1684 51.2757 83.301 51.0252C83.4262 50.7747 83.6215 50.5942 83.8867 50.4837V50.4616C83.2826 50.2553 82.9805 49.7175 82.9805 48.8481V48.1851C82.9805 47.5883 83.1389 47.1315 83.4557 46.8147C83.7651 46.5053 84.2219 46.3506 84.826 46.3506H86.7379V54.0864ZM85.0471 50.9368C84.8039 50.9368 84.6234 50.9994 84.5056 51.1247C84.3803 51.2499 84.3177 51.4599 84.3177 51.7546V52.1856C84.3177 52.4655 84.3693 52.6681 84.4724 52.7934C84.5682 52.9186 84.7229 52.9813 84.9366 52.9813H85.5223V50.9368H85.0471ZM84.826 47.4557C84.6124 47.4557 84.454 47.511 84.3508 47.6215C84.2477 47.7393 84.1961 47.9383 84.1961 48.2182V48.8924C84.1961 49.246 84.2587 49.4891 84.384 49.6217C84.5019 49.7617 84.7008 49.8317 84.9808 49.8317H85.5223V47.4557H84.826Z" fill="#E6E6E5"/>
</g>
<mask id="mask53_520_3944" style="mask-type:luminance" maskUnits="userSpaceOnUse" x="79" y="49" width="4" height="6">
<path d="M79.7983 54.0962H82.3984V49.2988H79.7983V54.0962Z" fill="white"/>
</mask>
<g mask="url(#mask53_520_3944)">
<path d="M81.6088 54.0799H80.5911L79.8125 49.2988H80.5638L80.7004 50.2482V50.2346H81.5541L81.6907 49.2988H82.3874L81.6088 54.0799ZM80.7892 50.8834L81.1238 53.2466H81.1375L81.4654 50.8834H80.7892Z" fill="#E6E6E5"/>
</g>
<mask id="mask54_520_3944" style="mask-type:luminance" maskUnits="userSpaceOnUse" x="77" y="51" width="3" height="4">
<path d="M77.8569 54.1509H79.2852V51.0747H77.8569V54.1509Z" fill="white"/>
</mask>
<g mask="url(#mask54_520_3944)">
<path d="M78.5797 51.1055C78.8048 51.1055 78.9751 51.1689 79.0904 51.2955C79.2058 51.425 79.2635 51.6093 79.2635 51.8485V52.0174H78.8245V51.8147C78.8245 51.6234 78.7443 51.5277 78.5839 51.5277C78.5051 51.5277 78.446 51.5502 78.4066 51.5952C78.3644 51.6431 78.3433 51.7191 78.3433 51.8232C78.3433 51.947 78.3714 52.0554 78.4277 52.1482C78.484 52.2439 78.5881 52.3579 78.7401 52.4902C78.9314 52.659 79.0651 52.811 79.1411 52.9461C79.2171 53.084 79.2551 53.2388 79.2551 53.4104C79.2551 53.644 79.196 53.8241 79.0778 53.9508C78.9596 54.0802 78.7879 54.145 78.5628 54.145C78.3404 54.145 78.173 54.0802 78.0604 53.9508C77.945 53.8241 77.8873 53.6412 77.8873 53.402V53.2796H78.3264V53.4315C78.3264 53.5329 78.3461 53.606 78.3855 53.6511C78.4249 53.6989 78.4826 53.7228 78.5586 53.7228C78.7133 53.7228 78.7907 53.6285 78.7907 53.44C78.7907 53.333 78.7626 53.2331 78.7063 53.1403C78.6472 53.0474 78.5417 52.9348 78.3897 52.8026C78.1955 52.6337 78.0618 52.4803 77.9887 52.3424C77.9155 52.2045 77.8789 52.0427 77.8789 51.857C77.8789 51.6149 77.9394 51.4292 78.0604 51.2997C78.1786 51.1703 78.3517 51.1055 78.5797 51.1055Z" fill="#E6E6E5"/>
</g>
<mask id="mask55_520_3944" style="mask-type:luminance" maskUnits="userSpaceOnUse" x="76" y="58" width="5" height="9">
<path d="M76.2084 66.313H80.168V58.173H76.2084V66.313Z" fill="white"/>
</mask>
<g mask="url(#mask55_520_3944)">
<path d="M80.1569 66.3129H78.2265C77.5676 66.3129 77.0869 66.1579 76.7846 65.8478C76.4822 65.5455 76.3311 65.0764 76.3311 64.4407V64.1151C76.3311 63.6965 76.4008 63.3554 76.5404 63.0918C76.6722 62.8282 76.8776 62.6383 77.1567 62.522V62.4988C76.521 62.2817 76.2031 61.7158 76.2031 60.801V60.1033C76.2031 59.4753 76.3698 58.9947 76.7032 58.6613C77.0288 58.3357 77.5094 58.1729 78.1451 58.1729H80.1569V66.3129ZM78.3777 62.9988C78.1219 62.9988 77.9319 63.0647 77.8079 63.1965C77.6761 63.3283 77.6102 63.5492 77.6102 63.8593V64.3128C77.6102 64.6074 77.6645 64.8206 77.773 64.9524C77.8738 65.0842 78.0366 65.1501 78.2614 65.1501H78.8777V62.9988H78.3777ZM78.1451 59.3358C77.9203 59.3358 77.7536 59.3939 77.6451 59.5102C77.5366 59.6343 77.4823 59.8436 77.4823 60.1382V60.8475C77.4823 61.2196 77.5482 61.4755 77.68 61.615C77.804 61.7623 78.0133 61.8359 78.3079 61.8359H78.8777V59.3358H78.1451Z" fill="#E6E6E5"/>
</g>
<mask id="mask56_520_3944" style="mask-type:luminance" maskUnits="userSpaceOnUse" x="73" y="61" width="3" height="6">
<path d="M73.7503 66.3125H75.9141V61.2784H73.7503V66.3125Z" fill="white"/>
</mask>
<g mask="url(#mask56_520_3944)">
<path d="M75.9139 66.3097H73.7578V65.591H75.1233V64.2614H74.0381V63.5427H75.1233V61.9975H73.7578V61.2788H75.9139V66.3097Z" fill="#E6E6E5"/>
</g>
<mask id="mask57_520_3944" style="mask-type:luminance" maskUnits="userSpaceOnUse" x="71" y="63" width="3" height="4">
<path d="M71.9448 66.3198H73.4609V63.1993H71.9448V66.3198Z" fill="white"/>
</mask>
<g mask="url(#mask57_520_3944)">
<path d="M73.4516 66.3085H72.7143C72.4625 66.3085 72.279 66.2493 72.1635 66.1309C72.048 66.0154 71.9902 65.8362 71.9902 65.5934V65.469C71.9902 65.3091 72.0169 65.1788 72.0702 65.0781C72.1205 64.9774 72.199 64.9049 72.3056 64.8605V64.8516C72.0628 64.7687 71.9414 64.5525 71.9414 64.2031V63.9365C71.9414 63.6967 72.005 63.5131 72.1324 63.3857C72.2567 63.2614 72.4403 63.1992 72.6832 63.1992H73.4516V66.3085ZM72.772 65.0426C72.6743 65.0426 72.6017 65.0678 72.5544 65.1181C72.504 65.1684 72.4788 65.2528 72.4788 65.3713V65.5445C72.4788 65.657 72.4996 65.7385 72.541 65.7888C72.5795 65.8392 72.6417 65.8643 72.7276 65.8643H72.963V65.0426H72.772ZM72.6832 63.6434C72.5973 63.6434 72.5336 63.6656 72.4922 63.71C72.4507 63.7574 72.43 63.8373 72.43 63.9499V64.2208C72.43 64.363 72.4551 64.4607 72.5055 64.514C72.5529 64.5703 72.6328 64.5984 72.7454 64.5984H72.963V63.6434H72.6832Z" fill="#E6E6E5"/>
</g>
<mask id="mask58_520_3944" style="mask-type:luminance" maskUnits="userSpaceOnUse" x="70" y="64" width="2" height="3">
<path d="M70.6541 66.3125H71.6992V64.3842H70.6541V66.3125Z" fill="white"/>
</mask>
<g mask="url(#mask58_520_3944)">
<path d="M71.3862 66.3065H70.9771L70.6641 64.3848H70.9661L71.021 64.7664V64.7609H71.3642L71.4191 64.3848H71.6991L71.3862 66.3065ZM71.0567 65.0217L71.1912 65.9716H71.1967L71.3285 65.0217H71.0567Z" fill="#E6E6E5"/>
</g>
<mask id="mask59_520_3944" style="mask-type:luminance" maskUnits="userSpaceOnUse" x="69" y="65" width="2" height="2">
<path d="M69.8791 66.3345H70.4531V65.098H69.8791V66.3345Z" fill="white"/>
</mask>
<g mask="url(#mask59_520_3944)">
<path d="M70.1722 65.1104C70.2627 65.1104 70.3312 65.1358 70.3775 65.1868C70.4239 65.2388 70.4471 65.3129 70.4471 65.409V65.4769H70.2706V65.3955C70.2706 65.3185 70.2384 65.2801 70.1739 65.2801C70.1423 65.2801 70.1185 65.2891 70.1027 65.3072C70.0857 65.3265 70.0772 65.357 70.0772 65.3988C70.0772 65.4486 70.0885 65.4922 70.1112 65.5295C70.1338 65.568 70.1756 65.6138 70.2367 65.6669C70.3136 65.7348 70.3674 65.7959 70.3979 65.8502C70.4284 65.9056 70.4437 65.9678 70.4437 66.0368C70.4437 66.1307 70.42 66.2031 70.3725 66.254C70.3249 66.3061 70.2559 66.3321 70.1654 66.3321C70.0761 66.3321 70.0088 66.3061 69.9635 66.254C69.9172 66.2031 69.894 66.1296 69.894 66.0334V65.9842H70.0704V66.0453C70.0704 66.086 70.0783 66.1154 70.0942 66.1335C70.11 66.1528 70.1332 66.1624 70.1638 66.1624C70.226 66.1624 70.2571 66.1245 70.2571 66.0487C70.2571 66.0057 70.2458 65.9656 70.2231 65.9282C70.1994 65.8909 70.157 65.8457 70.0959 65.7925C70.0178 65.7246 69.9641 65.663 69.9347 65.6075C69.9053 65.5521 69.8906 65.4871 69.8906 65.4124C69.8906 65.3151 69.9149 65.2405 69.9635 65.1884C70.011 65.1364 70.0806 65.1104 70.1722 65.1104Z" fill="#E6E6E5"/>
</g>
</g>
<defs>
<clipPath id="clip0_520_3944">
<rect width="138" height="118" fill="white"/>
</clipPath>
</defs>
</svg>
