<svg width="1400" height="738" viewBox="0 0 1400 738" fill="none" xmlns="http://www.w3.org/2000/svg">
<g clip-path="url(#clip0_535_6322)">
<path d="M810.602 458.337L853.779 433.305L897.821 458.337L854.643 483.368L810.602 458.337Z" fill="#C0D03E"/>
<path d="M853.781 535.158L896.959 510.126L941 535.158L897.823 560.19L853.781 535.158Z" fill="#C0D03E"/>
<path d="M767.426 330.59L810.604 305.558L854.645 330.59L811.467 355.621L767.426 330.59Z" fill="#C0D03E"/>
<path d="M680.207 25.2684L724.248 0.236789L767.426 25.2684L724.248 50.2999L680.207 25.2684Z" fill="#C0D03E"/>
<path d="M724.246 50.0633V101.421L767.424 75.9581V25.0317L724.246 50.0633Z" fill="#C0D03E"/>
<path d="M636.164 203.705L680.205 178.674L723.383 203.705L680.205 228.737L636.164 203.705Z" fill="#C0D03E"/>
<path d="M592.125 229.6L636.166 204.568L679.344 229.6L636.166 254.632L592.125 229.6Z" fill="#C0D03E"/>
<path d="M548.082 255.495L592.123 230.463L635.301 255.495L592.123 280.527L548.082 255.495Z" fill="#C0D03E"/>
<path d="M504.043 332.316L548.084 307.284L591.262 332.316L548.084 357.347L504.043 332.316Z" fill="#C0D03E"/>
<path d="M724.246 202.842V254.2L767.424 228.737V177.811L724.246 202.842Z" fill="#C0D03E"/>
<path d="M724.246 151.916V203.274L767.424 177.811V126.884L724.246 151.916Z" fill="#C0D03E"/>
<path d="M724.246 100.99V152.347L767.424 126.884V75.958L724.246 100.99Z" fill="#C0D03E"/>
<path d="M460 409.137L504.041 384.105L547.219 409.137L504.041 434.169L460 409.137Z" fill="#C0D03E"/>
<path d="M681.934 379.789L725.975 354.758L769.153 379.789L725.975 404.821L681.934 379.789Z" fill="#C0D03E"/>
<path d="M637.027 354.758L681.941 329.727L725.973 354.758L681.941 379.79L637.027 354.758Z" fill="#C0D03E"/>
<path d="M724.246 253.768L767.424 228.737L811.465 253.768L768.287 278.8L724.246 253.768Z" fill="#C0D03E"/>
<path d="M557.34 516.695L602.253 491.663L646.286 516.695L602.253 541.726L557.34 516.695Z" fill="#C0D03E"/>
<path d="M768.289 278.8V330.158L811.467 305.126V253.769L768.289 278.8Z" fill="#C0D03E"/>
<path d="M768.289 329.726V381.084L811.467 356.053V304.695L768.289 329.726Z" fill="#C0D03E"/>
<path d="M768.289 380.653V432.011L811.467 406.979V355.621L768.289 380.653Z" fill="#C0D03E"/>
<path d="M725.977 404.821V456.179L769.154 431.147V379.79L725.977 404.821Z" fill="#C0D03E"/>
<path d="M725.977 455.747V507.105L769.154 482.074V430.716L725.977 455.747Z" fill="#C0D03E"/>
<path d="M725.977 506.674V558.032L769.154 533V481.642L725.977 506.674Z" fill="#C0D03E"/>
<path d="M602.488 541.2V592.557L645.666 567.526V516.168L602.488 541.2Z" fill="#C0D03E"/>
<path d="M602.488 592.126V643.484L645.666 618.453V567.095L602.488 592.126Z" fill="#C0D03E"/>
<path d="M460.621 513.242L505.535 488.21L549.567 513.242L505.535 538.274L460.621 513.242Z" fill="#C0D03E"/>
<path d="M505.77 537.747V589.105L548.947 564.074V512.716L505.77 537.747Z" fill="#C0D03E"/>
<path d="M504.043 381.516L548.084 357.347L602.246 390.674L558.214 415.705L504.043 381.516Z" fill="#C0D03E"/>
<path d="M558.445 415.179V466.537L601.623 441.505V390.147L558.445 415.179Z" fill="#C0D03E"/>
<path d="M558.445 466.105V517.463L601.623 492.432V441.074L558.445 466.105Z" fill="#C0D03E"/>
<path d="M725.977 557.6V608.958L769.154 583.926V532.568L725.977 557.6Z" fill="#C0D03E"/>
<path d="M724.248 50.1895V253.77L768.287 278.8V737.568L724.246 712.536V712.535L680.207 687.505V76.1162L680 76L680.449 24.6416L724.248 50.1895ZM680.205 228.736V687.506L636.164 662.474V662.472L592.125 637.441V637.309L548.082 612.41V612.409L504.043 587.379V332.316L548 357.3V306L548.082 306.045V255.495L592.125 279.85V229.601L636.164 254.63V203.705L680.205 228.736ZM811.467 661.61L768.289 686.643V431.579L811.467 406.548V661.61ZM504.041 434.168V587.379L460 562.347V409.137L504.041 434.168ZM592.123 534.32L592.125 534.321V382.816L592.123 382.814V534.32Z" fill="#E6E6E5"/>
<path d="M811.469 355.621V406.979L854.646 381.947V330.589L811.469 355.621Z" fill="#C0D03E"/>
<path d="M811.469 406.547V457.905L854.646 432.874V381.516L811.469 406.547Z" fill="#C0D03E"/>
<path d="M811.469 457.473V508.831L854.646 483.8V432.442L811.469 457.473Z" fill="#C0D03E"/>
<path d="M811.469 508.4V559.758L854.646 534.726V483.368L811.469 508.4Z" fill="#C0D03E"/>
<path d="M767.426 533.431V584.789L811.467 559.758V508.4L767.426 533.431Z" fill="#C0D03E"/>
<path d="M854.645 483.368V534.726L897.822 509.695V458.337L854.645 483.368Z" fill="#C0D03E"/>
<path d="M811.469 559.327V610.684L854.646 585.653V534.295L811.469 559.327Z" fill="#C0D03E"/>
<path d="M854.645 534.295V585.653L897.822 560.621V509.263L854.645 534.295Z" fill="#C0D03E"/>
<path d="M854.645 585.221V636.579L897.822 611.547V560.189L854.645 585.221Z" fill="#C0D03E"/>
<path d="M897.82 560.19V611.548L940.998 586.516V535.158L897.82 560.19Z" fill="#C0D03E"/>
<path d="M811.469 610.252V661.61L854.646 636.579V585.221L811.469 610.252Z" fill="#C0D03E"/>
<path d="M854.645 636.148V687.506L897.822 662.474V611.116L854.645 636.148Z" fill="#C0D03E"/>
<path d="M897.82 611.116V662.473L940.998 637.442V586.084L897.82 611.116Z" fill="#C0D03E"/>
<path d="M811.469 661.179V712.537L854.646 687.505V636.147L811.469 661.179Z" fill="#C0D03E"/>
<path d="M768.289 686.21V737.568L811.467 712.537V661.179L768.289 686.21Z" fill="#C0D03E"/>
<path d="M681.934 379.789L725.975 354.758L769.153 379.789L725.975 404.821L681.934 379.789Z" fill="#C0D03E"/>
<path d="M637.027 354.758L681.941 329.727L725.973 354.758L681.941 379.79L637.027 354.758Z" fill="#C0D03E"/>
<path d="M557.34 516.695L602.253 491.663L646.286 516.695L602.253 541.726L557.34 516.695Z" fill="#C0D03E"/>
<path d="M725.977 404.821V456.179L769.154 431.147V379.79L725.977 404.821Z" fill="#C0D03E"/>
<path d="M725.977 455.747V507.105L769.154 482.074V430.716L725.977 455.747Z" fill="#C0D03E"/>
<path d="M725.977 506.674V558.032L769.154 533V481.642L725.977 506.674Z" fill="#C0D03E"/>
<path d="M602.488 541.2V592.557L645.666 567.526V516.168L602.488 541.2Z" fill="#C0D03E"/>
<path d="M602.488 592.126V643.484L645.666 618.453V567.095L602.488 592.126Z" fill="#C0D03E"/>
<path d="M460.621 513.242L505.535 488.21L549.567 513.242L505.535 538.274L460.621 513.242Z" fill="#C0D03E"/>
<path d="M505.77 537.747V589.105L548.947 564.074V512.716L505.77 537.747Z" fill="#C0D03E"/>
<path d="M504.043 381.516L548.084 357.347L602.246 390.674L558.214 415.705L504.043 381.516Z" fill="#C0D03E"/>
<path d="M558.445 415.179V466.537L601.623 441.505V390.147L558.445 415.179Z" fill="#C0D03E"/>
<path d="M558.445 466.105V517.463L601.623 492.432V441.074L558.445 466.105Z" fill="#C0D03E"/>
<path d="M725.977 557.6V608.958L769.154 583.926V532.568L725.977 557.6Z" fill="#C0D03E"/>
</g>
<g clip-path="url(#clip1_535_6322)">
<path d="M1259.42 244.26L1307.44 217.01L1352.69 244.26L1306.52 271.51L1259.42 244.26Z" fill="#E6E6E5"/>
<path d="M1167.07 81.2222L1214.17 54.4341L1260.34 81.2222L1214.17 108.01L1167.07 81.2222Z" fill="#C0D03E"/>
<path d="M1214.17 108.01V162.972L1260.34 135.722V81.2222L1214.17 108.01Z" fill="#C0D03E"/>
<path d="M1167.07 81.2222V136.184L1214.17 162.972V108.01L1167.07 81.2222Z" fill="#E6E6E5"/>
<path d="M1167.07 517.223V572.185L1214.17 598.973V544.011L1167.07 517.223Z" fill="#E6E6E5"/>
<path d="M1119.98 163.434L1167.08 136.646L1213.25 163.434L1167.08 190.222L1119.98 163.434Z" fill="#C0D03E"/>
<path d="M1072.88 191.146L1119.98 164.358L1166.15 191.146L1119.98 217.934L1072.88 191.146Z" fill="#C0D03E"/>
<path d="M1025.79 218.858L1072.89 192.07L1119.06 218.858L1072.89 245.646L1025.79 218.858Z" fill="#C0D03E"/>
<path d="M1119.98 163.434V218.396L1167.08 245.184V190.222L1119.98 163.434Z" fill="#E6E6E5"/>
<path d="M1214.17 162.51V217.472L1260.34 190.222V135.722L1214.17 162.51Z" fill="#C0D03E"/>
<path d="M1214.17 490.434V545.396L1260.34 518.146V463.646L1214.17 490.434Z" fill="#C0D03E"/>
<path d="M1214.17 544.011V598.973L1260.34 571.723V517.223L1214.17 544.011Z" fill="#C0D03E"/>
<path d="M1167.07 135.722V190.684L1214.17 217.472V162.51L1167.07 135.722Z" fill="#E6E6E5"/>
<path d="M1261.27 298.298V353.26L1307.44 326.01L1307 271.5L1261.27 298.298Z" fill="#C0D03E"/>
<path d="M1306.52 271.51V326.472L1352.69 299.222V244.246L1306.52 271.51Z" fill="#C0D03E"/>
<path d="M1353.61 352.798V407.76L1399.79 380.51V326.01L1353.61 352.798Z" fill="#C0D03E"/>
<path d="M1261.27 352.798V407.76L1307.44 380.51V326.01L1261.27 352.798Z" fill="#C0D03E"/>
<path d="M1261.27 407.298V462.26L1307.44 435.01V380.51L1261.27 407.298Z" fill="#C0D03E"/>
<path d="M1261.27 461.798V516.76L1307.44 489.51V435.01L1261.27 461.798Z" fill="#C0D03E"/>
<path d="M1306.52 435.01V489.972L1352.69 462.722V408.222L1306.52 435.01Z" fill="#C0D03E"/>
<path d="M1306.52 382.358V437.32L1352.69 410.07V355.57L1306.52 382.358Z" fill="#C0D03E"/>
<path d="M1214.17 271.51V326.472L1261.27 353.26V298.298L1214.17 271.51Z" fill="#E6E6E5"/>
<path d="M1167.07 190.222V245.184L1214.17 271.972V217.01L1167.07 190.222Z" fill="#E6E6E5"/>
<path d="M1119.98 217.934V272.896L1167.08 299.684V244.722L1119.98 217.934Z" fill="#E6E6E5"/>
<path d="M1167.07 244.722V299.684L1214.17 326.472V271.51L1167.07 244.722Z" fill="#E6E6E5"/>
<path d="M1214.17 326.01V380.972L1261.27 407.76V352.798L1214.17 326.01Z" fill="#E6E6E5"/>
<path d="M1119.98 272.434V327.396L1167.08 354.184V299.222L1119.98 272.434Z" fill="#E6E6E5"/>
<path d="M1072.88 191.146V246.108L1119.98 272.896V217.934L1072.88 191.146Z" fill="#E6E6E5"/>
<path d="M1072.88 245.646V300.608L1119.98 327.396V272.434L1072.88 245.646Z" fill="#E6E6E5"/>
<path d="M1025.79 218.858V273.82L1072.89 300.608V245.646L1025.79 218.858Z" fill="#E6E6E5"/>
<path d="M1167.07 299.222V354.184L1214.17 380.972V326.01L1167.07 299.222Z" fill="#E6E6E5"/>
<path d="M1214.17 380.51V435.472L1261.27 462.26V407.298L1214.17 380.51Z" fill="#E6E6E5"/>
<path d="M1119.98 326.934V381.896L1167.08 408.684V353.722L1119.98 326.934Z" fill="#E6E6E5"/>
<path d="M1072.88 300.146V355.108L1119.98 381.896V326.934L1072.88 300.146Z" fill="#E6E6E5"/>
<path d="M1167.07 353.722V408.684L1214.17 435.472V380.51L1167.07 353.722Z" fill="#E6E6E5"/>
<path d="M1214.17 217.01L1260.34 190.222L1307.44 217.01L1261 244L1214.17 217.01Z" fill="#C0D03E"/>
<path d="M1261.19 243.703V299L1307.52 271.381L1307.21 216.881L1261.19 243.703Z" fill="#C0D03E"/>
<path d="M1214.17 217.01V271.972L1261.27 298.76V243.798L1214.17 217.01Z" fill="#E6E6E5"/>
<path d="M1119.98 381.434V436.396L1167.08 463.184V408.222L1119.98 381.434Z" fill="#E6E6E5"/>
<path d="M1167.07 408.222V463.184L1214.17 489.972V435.01L1167.07 408.222Z" fill="#E6E6E5"/>
<path d="M1214.17 435.01V489.972L1261.27 516.76V461.798L1214.17 435.01Z" fill="#E6E6E5"/>
<path d="M1167.07 462.722V517.684L1214.17 544.472V489.51L1167.07 462.722Z" fill="#E6E6E5"/>
<path d="M1306.52 326.01L1352.69 299.222L1399.79 326.01L1353.62 352.798L1306.52 326.01Z" fill="#C0D03E"/>
<path d="M1306.52 326.01V380.972L1353.62 407.76V352.798L1306.52 326.01Z" fill="#C0D03E"/>
<path d="M1167.83 298.788V353.75L1214 326.5V272L1167.83 298.788Z" fill="#C0D03E"/>
<path d="M1168 352.798V407.76L1214.17 380.51V326.01L1168 352.798Z" fill="#C0D03E"/>
<path d="M1120.9 271.51L1168 244.722L1214 272L1168 299L1120.9 271.51Z" fill="#C0D03E"/>
</g>
<g clip-path="url(#clip2_535_6322)">
<path d="M140.578 225.26L92.5584 198.01L47.309 225.26L93.4818 252.51L140.578 225.26Z" fill="#E6E6E5"/>
<path d="M232.926 62.2222L185.829 35.4341L139.657 62.2222L185.829 89.0104L232.926 62.2222Z" fill="#C0D03E"/>
<path d="M185.828 89.0103V143.972L139.655 116.722V62.2222L185.828 89.0103Z" fill="#C0D03E"/>
<path d="M232.926 62.2222V117.184L185.829 143.972V89.0103L232.926 62.2222Z" fill="#E6E6E5"/>
<path d="M232.926 498.222V553.184L185.829 579.972V525.01L232.926 498.222Z" fill="#E6E6E5"/>
<path d="M280.02 144.434L232.923 117.646L186.75 144.434L232.923 171.222L280.02 144.434Z" fill="#C0D03E"/>
<path d="M327.117 172.146L280.021 145.358L233.848 172.146L280.021 198.934L327.117 172.146Z" fill="#C0D03E"/>
<path d="M374.211 199.858L327.115 173.07L280.942 199.858L327.115 226.646L374.211 199.858Z" fill="#C0D03E"/>
<path d="M280.02 144.434V199.396L232.923 226.184V171.222L280.02 144.434Z" fill="#E6E6E5"/>
<path d="M185.828 143.51V198.472L139.655 171.222V116.722L185.828 143.51Z" fill="#C0D03E"/>
<path d="M185.828 471.434V526.396L139.655 499.146V444.646L185.828 471.434Z" fill="#C0D03E"/>
<path d="M185.828 525.01V579.972L139.655 552.722V498.222L185.828 525.01Z" fill="#C0D03E"/>
<path d="M232.926 116.722V171.684L185.829 198.472V143.51L232.926 116.722Z" fill="#E6E6E5"/>
<path d="M138.73 279.298V334.26L92.5576 307.01L93 252.5L138.73 279.298Z" fill="#C0D03E"/>
<path d="M93.4805 252.51V307.472L47.3076 280.222V225.246L93.4805 252.51Z" fill="#C0D03E"/>
<path d="M46.3867 333.798V388.76L0.213879 361.51V307.01L46.3867 333.798Z" fill="#C0D03E"/>
<path d="M138.73 333.798V388.76L92.5576 361.51V307.01L138.73 333.798Z" fill="#C0D03E"/>
<path d="M138.73 388.298V443.26L92.5576 416.01V361.51L138.73 388.298Z" fill="#C0D03E"/>
<path d="M138.73 442.798V497.76L92.5576 470.51V416.01L138.73 442.798Z" fill="#C0D03E"/>
<path d="M93.4805 416.01V470.972L47.3076 443.722V389.222L93.4805 416.01Z" fill="#C0D03E"/>
<path d="M93.4805 363.358V418.32L47.3076 391.07V336.57L93.4805 363.358Z" fill="#C0D03E"/>
<path d="M185.828 252.51V307.472L138.732 334.26V279.298L185.828 252.51Z" fill="#E6E6E5"/>
<path d="M232.926 171.222V226.184L185.829 252.972V198.01L232.926 171.222Z" fill="#E6E6E5"/>
<path d="M280.02 198.934V253.896L232.923 280.684V225.722L280.02 198.934Z" fill="#E6E6E5"/>
<path d="M232.926 225.722V280.684L185.829 307.472V252.51L232.926 225.722Z" fill="#E6E6E5"/>
<path d="M185.828 307.01V361.972L138.732 388.76V333.798L185.828 307.01Z" fill="#E6E6E5"/>
<path d="M280.02 253.434V308.396L232.923 335.184V280.222L280.02 253.434Z" fill="#E6E6E5"/>
<path d="M327.117 172.146V227.108L280.021 253.896V198.934L327.117 172.146Z" fill="#E6E6E5"/>
<path d="M327.117 226.646V281.608L280.021 308.396V253.434L327.117 226.646Z" fill="#E6E6E5"/>
<path d="M374.211 199.858V254.82L327.115 281.608V226.646L374.211 199.858Z" fill="#E6E6E5"/>
<path d="M232.926 280.222V335.184L185.829 361.972V307.01L232.926 280.222Z" fill="#E6E6E5"/>
<path d="M185.828 361.51V416.472L138.732 443.26V388.298L185.828 361.51Z" fill="#E6E6E5"/>
<path d="M280.02 307.934V362.896L232.923 389.684V334.722L280.02 307.934Z" fill="#E6E6E5"/>
<path d="M327.117 281.146V336.108L280.021 362.896V307.934L327.117 281.146Z" fill="#E6E6E5"/>
<path d="M232.926 334.722V389.684L185.829 416.472V361.51L232.926 334.722Z" fill="#E6E6E5"/>
<path d="M185.828 198.01L139.655 171.222L92.559 198.01L139 225L185.828 198.01Z" fill="#C0D03E"/>
<path d="M138.812 224.703V280L92.4827 252.381L92.7874 197.881L138.812 224.703Z" fill="#C0D03E"/>
<path d="M185.828 198.01V252.972L138.732 279.76V224.798L185.828 198.01Z" fill="#E6E6E5"/>
<path d="M280.02 362.434V417.396L232.923 444.184V389.222L280.02 362.434Z" fill="#E6E6E5"/>
<path d="M232.926 389.222V444.184L185.829 470.972V416.01L232.926 389.222Z" fill="#E6E6E5"/>
<path d="M185.828 416.01V470.972L138.732 497.76V442.798L185.828 416.01Z" fill="#E6E6E5"/>
<path d="M232.926 443.722V498.684L185.829 525.472V470.51L232.926 443.722Z" fill="#E6E6E5"/>
<path d="M93.4805 307.01L47.3076 280.222L0.211333 307.01L46.3842 333.798L93.4805 307.01Z" fill="#C0D03E"/>
<path d="M93.4805 307.01V361.972L46.3842 388.76V333.798L93.4805 307.01Z" fill="#C0D03E"/>
<path d="M232.172 279.788V334.75L185.999 307.5V253L232.172 279.788Z" fill="#C0D03E"/>
<path d="M232 333.798V388.76L185.827 361.51V307.01L232 333.798Z" fill="#C0D03E"/>
<path d="M279.098 252.51L232.001 225.722L186 253L232 280L279.098 252.51Z" fill="#C0D03E"/>
</g>
<defs>
<clipPath id="clip0_535_6322">
<rect width="481" height="738" fill="white" transform="translate(460)"/>
</clipPath>
<clipPath id="clip1_535_6322">
<rect width="374" height="545" fill="white" transform="translate(1026 54)"/>
</clipPath>
<clipPath id="clip2_535_6322">
<rect width="374" height="545" fill="white" transform="matrix(-1 0 0 1 374 35)"/>
</clipPath>
</defs>
</svg>
