<svg width="1440" height="790" viewBox="0 0 1440 790" fill="none" xmlns="http://www.w3.org/2000/svg">
<g clip-path="url(#clip0_520_3397)">
<path d="M-76.0625 2.12402H71.47C121.833 2.12402 158.568 17.0379 181.675 46.8658C204.783 75.948 216.336 121.063 216.336 182.21V213.529C216.336 253.796 211.004 286.607 200.339 311.961C190.267 337.315 174.565 355.584 153.235 366.769V369.006C201.82 389.886 226.112 444.321 226.112 532.314V599.426C226.112 659.828 213.374 706.061 187.896 738.126C163.011 769.445 126.277 785.105 77.6912 785.105H-76.0625V2.12402ZM59.9163 320.909C79.4688 320.909 93.9846 314.57 103.465 301.894C113.537 289.217 118.574 267.965 118.574 238.137V194.514C118.574 166.178 114.426 145.67 106.131 132.994C98.4284 120.317 85.9859 113.978 68.8038 113.978H21.7V320.909H59.9163ZM77.6912 673.25C94.8734 673.25 107.613 667.658 115.907 656.472C124.202 644.541 128.35 624.407 128.35 596.071V527.84C128.35 492.046 123.313 467.438 113.241 454.016C103.761 439.847 87.7634 432.763 65.2488 432.763H21.7V673.25H77.6912Z" fill="#E6E6E5"/>
<mask id="mask0_520_3397" style="mask-type:luminance" maskUnits="userSpaceOnUse" x="248" y="2" width="166" height="485">
<path d="M414 2.12402H248.625V486.354H414V2.12402Z" fill="white"/>
</mask>
<g mask="url(#mask0_520_3397)">
<path d="M248.648 2.43555H413.436V71.5668H309.07V199.459H392.013V268.591H309.07V417.223H413.436V486.354H248.648V2.43555Z" fill="#E6E6E5"/>
</g>
<mask id="mask1_520_3397" style="mask-type:luminance" maskUnits="userSpaceOnUse" x="436" y="1" width="117" height="301">
<path d="M552.375 1.41602H436.5V301.582H552.375V1.41602Z" fill="white"/>
</mask>
<g mask="url(#mask1_520_3397)">
<path d="M436.918 2.49609H493.273C512.511 2.49609 526.543 8.19298 535.37 19.5868C544.196 30.6956 548.61 47.9287 548.61 71.2859V83.2494C548.61 98.631 546.573 111.164 542.499 120.849C538.651 130.534 532.654 137.512 524.506 141.785V142.639C543.065 150.614 552.344 171.408 552.344 205.021V230.657C552.344 253.729 547.478 271.389 537.746 283.638C528.24 295.6 514.208 301.582 495.65 301.582H436.918V2.49609ZM488.86 124.267C496.328 124.267 501.873 121.846 505.495 117.003C509.342 112.161 511.266 104.043 511.266 92.6492V75.9859C511.266 65.1618 509.682 57.3286 506.513 52.4863C503.571 47.6438 498.818 45.2227 492.255 45.2227H474.262V124.267H488.86ZM495.65 258.856C502.213 258.856 507.079 256.719 510.248 252.447C513.416 247.89 515 240.198 515 229.374V203.311C515 189.639 513.077 180.239 509.229 175.112C505.608 169.699 499.497 166.993 490.897 166.993H474.262V258.856H495.65Z" fill="#E6E6E5"/>
</g>
<mask id="mask2_520_3397" style="mask-type:luminance" maskUnits="userSpaceOnUse" x="570" y="2" width="81" height="186">
<path d="M650.25 2.12402H570.375V187.604H650.25V2.12402Z" fill="white"/>
</mask>
<g mask="url(#mask2_520_3397)">
<path d="M594.564 2.75293H625.828L649.747 187.604H626.667L622.469 150.897V151.425H596.242L592.046 187.604H570.645L594.564 2.75293ZM619.742 126.339L609.461 34.9699H609.042L598.969 126.339H619.742Z" fill="#E6E6E5"/>
</g>
<mask id="mask3_520_3397" style="mask-type:luminance" maskUnits="userSpaceOnUse" x="666" y="0" width="44" height="119">
<path d="M709.875 0H666V118.934H709.875V0Z" fill="white"/>
</mask>
<g mask="url(#mask3_520_3397)">
<path d="M687.61 117.734C680.694 117.734 675.463 115.285 671.918 110.389C668.374 105.384 666.602 98.2571 666.602 89.0085V82.4801H680.088V90.3141C680.088 97.7131 682.552 101.413 687.48 101.413C689.901 101.413 691.716 100.542 692.927 98.8012C694.224 96.9515 694.872 94.0137 694.872 89.9878C694.872 85.2003 694.007 81.0111 692.278 77.4204C690.549 73.721 687.351 69.3144 682.682 64.2004C676.803 57.6719 672.697 51.7964 670.362 46.5735C668.028 41.2421 666.861 35.2577 666.861 28.6203C666.861 19.5895 668.676 12.6257 672.308 7.72939C675.939 2.72425 681.212 0.22168 688.129 0.22168C694.958 0.22168 700.103 2.72425 703.561 7.72939C707.105 12.6257 708.878 19.6982 708.878 28.9469V33.68H695.391V27.8044C695.391 23.8874 694.786 21.0583 693.575 19.3173C692.365 17.4676 690.593 16.5428 688.258 16.5428C683.503 16.5428 681.126 20.1878 681.126 27.4779C681.126 31.6127 681.99 35.4753 683.719 39.0659C685.535 42.6565 688.777 47.0088 693.446 52.1228C699.411 58.6513 703.517 64.5812 705.765 69.9127C708.013 75.2444 709.137 81.5007 709.137 88.682C709.137 98.0394 707.278 105.221 703.561 110.226C699.93 115.231 694.613 117.734 687.61 117.734Z" fill="#E6E6E5"/>
</g>
<mask id="mask4_520_3397" style="mask-type:luminance" maskUnits="userSpaceOnUse" x="248" y="509" width="89" height="225">
<path d="M336.082 509.616H248.625V733.651H336.082V509.616Z" fill="white"/>
</mask>
<g mask="url(#mask4_520_3397)">
<path d="M248.75 509.616H291.386C305.941 509.616 316.557 513.883 323.235 522.418C329.913 530.739 333.252 543.648 333.252 561.144V570.105C333.252 581.627 331.71 591.015 328.628 598.27C325.718 605.524 321.18 610.752 315.016 613.952V614.592C329.057 620.567 336.077 636.142 336.077 661.32V680.523C336.077 697.805 332.396 711.034 325.033 720.209C317.841 729.17 307.225 733.651 293.184 733.651H248.75V509.616ZM288.047 600.83C293.698 600.83 297.893 599.016 300.632 595.389C303.543 591.762 304.999 585.681 304.999 577.146V564.664C304.999 556.557 303.8 550.689 301.403 547.062C299.177 543.434 295.581 541.621 290.616 541.621H277.003V600.83H288.047ZM293.184 701.646C298.149 701.646 301.831 700.046 304.228 696.845C306.625 693.431 307.824 687.67 307.824 679.563V660.04C307.824 649.798 306.368 642.757 303.458 638.916C300.718 634.862 296.095 632.835 289.588 632.835H277.003V701.646H293.184Z" fill="#E6E6E5"/>
</g>
<mask id="mask5_520_3397" style="mask-type:luminance" maskUnits="userSpaceOnUse" x="342" y="509" width="49" height="140">
<path d="M390.374 509.616H342.582V648.17H390.374V509.616Z" fill="white"/>
</mask>
<g mask="url(#mask5_520_3397)">
<path d="M342.586 509.705H390.208V529.485H360.047V566.079H384.018V585.86H360.047V628.388H390.208V648.169H342.586V509.705Z" fill="#E6E6E5"/>
</g>
<mask id="mask6_520_3397" style="mask-type:luminance" maskUnits="userSpaceOnUse" x="396" y="509" width="35" height="87">
<path d="M430.366 509.413H396.879V595.3H430.366V509.413Z" fill="white"/>
</mask>
<g mask="url(#mask6_520_3397)">
<path d="M396.996 509.722H413.282C418.842 509.722 422.897 511.352 425.448 514.612C427.999 517.79 429.274 522.721 429.274 529.405V532.828C429.274 537.229 428.686 540.815 427.508 543.586C426.396 546.357 424.663 548.354 422.309 549.577V549.821C427.672 552.103 430.353 558.053 430.353 567.67V575.006C430.353 581.607 428.947 586.66 426.135 590.165C423.388 593.588 419.333 595.3 413.969 595.3H396.996V509.722ZM412.007 544.564C414.165 544.564 415.768 543.871 416.814 542.486C417.926 541.1 418.482 538.777 418.482 535.517V530.749C418.482 527.652 418.024 525.411 417.109 524.025C416.258 522.64 414.885 521.947 412.988 521.947H407.788V544.564H412.007ZM413.969 583.074C415.866 583.074 417.272 582.463 418.188 581.241C419.104 579.936 419.561 577.736 419.561 574.639V567.181C419.561 563.269 419.005 560.579 417.894 559.113C416.847 557.564 415.081 556.79 412.596 556.79H407.788V583.074H413.969Z" fill="#E6E6E5"/>
</g>
<mask id="mask7_520_3397" style="mask-type:luminance" maskUnits="userSpaceOnUse" x="435" y="509" width="24" height="54">
<path d="M458.65 509.616H435.566V562.688H458.65V509.616Z" fill="white"/>
</mask>
<g mask="url(#mask7_520_3397)">
<path d="M442.557 509.796H451.592L458.505 562.688H451.835L450.622 552.185V552.336H443.042L441.83 562.688H435.645L442.557 509.796ZM449.834 545.158L446.862 519.014H446.741L443.831 545.158H449.834Z" fill="#E6E6E5"/>
</g>
<mask id="mask8_520_3397" style="mask-type:luminance" maskUnits="userSpaceOnUse" x="463" y="509" width="13" height="35">
<path d="M475.875 509.008H463.195V543.039H475.875V509.008Z" fill="white"/>
</mask>
<g mask="url(#mask8_520_3397)">
<path d="M469.446 542.695C467.448 542.695 465.936 541.995 464.912 540.594C463.887 539.162 463.375 537.122 463.375 534.476V532.608H467.273V534.85C467.273 536.967 467.985 538.025 469.409 538.025C470.108 538.025 470.633 537.776 470.983 537.278C471.358 536.749 471.545 535.908 471.545 534.756C471.545 533.386 471.295 532.188 470.795 531.16C470.296 530.102 469.371 528.841 468.022 527.378C466.323 525.51 465.136 523.828 464.462 522.334C463.787 520.809 463.45 519.096 463.45 517.197C463.45 514.613 463.975 512.62 465.024 511.219C466.073 509.787 467.597 509.071 469.596 509.071C471.57 509.071 473.057 509.787 474.056 511.219C475.08 512.62 475.593 514.644 475.593 517.29V518.645H471.695V516.964C471.695 515.843 471.52 515.033 471.17 514.535C470.82 514.006 470.308 513.741 469.634 513.741C468.26 513.741 467.572 514.784 467.572 516.87C467.572 518.053 467.822 519.158 468.322 520.186C468.847 521.213 469.784 522.459 471.133 523.922C472.857 525.79 474.043 527.487 474.693 529.012C475.343 530.538 475.667 532.328 475.667 534.383C475.667 537.06 475.13 539.115 474.056 540.547C473.007 541.979 471.47 542.695 469.446 542.695Z" fill="#E6E6E5"/>
</g>
<mask id="mask9_520_3397" style="mask-type:luminance" maskUnits="userSpaceOnUse" x="435" y="325" width="63" height="162">
<path d="M497.717 325.38H435.5V486.353H497.717V325.38Z" fill="white"/>
</mask>
<g mask="url(#mask9_520_3397)">
<path d="M435.586 325.38H465.917C476.271 325.38 483.824 328.447 488.574 334.579C493.325 340.558 495.7 349.833 495.7 362.404V368.843C495.7 377.122 494.604 383.867 492.411 389.08C490.341 394.292 487.113 398.048 482.727 400.348V400.808C492.716 405.101 497.71 416.292 497.71 434.382V448.18C497.71 460.598 495.091 470.103 489.853 476.695C484.737 483.134 477.185 486.354 467.196 486.354H435.586V325.38ZM463.542 390.92C467.562 390.92 470.546 389.616 472.495 387.01C474.566 384.404 475.601 380.035 475.601 373.902V364.934C475.601 359.108 474.749 354.892 473.043 352.286C471.46 349.68 468.902 348.377 465.369 348.377H455.685V390.92H463.542ZM467.196 463.358C470.729 463.358 473.348 462.208 475.053 459.908C476.758 457.455 477.611 453.316 477.611 447.49V433.463C477.611 426.104 476.576 421.045 474.505 418.285C472.556 415.372 469.267 413.916 464.638 413.916H455.685V463.358H467.196Z" fill="#E6E6E5"/>
</g>
<mask id="mask10_520_3397" style="mask-type:luminance" maskUnits="userSpaceOnUse" x="502" y="325" width="35" height="100">
<path d="M536.335 325.38H502.336V424.933H536.335V325.38Z" fill="white"/>
</mask>
<g mask="url(#mask10_520_3397)">
<path d="M502.34 325.444H536.219V339.657H514.762V365.951H531.814V380.163H514.762V410.721H536.219V424.934H502.34V325.444Z" fill="#E6E6E5"/>
</g>
<mask id="mask11_520_3397" style="mask-type:luminance" maskUnits="userSpaceOnUse" x="540" y="325" width="25" height="62">
<path d="M564.792 325.235H540.969V386.946H564.792V325.235Z" fill="white"/>
</mask>
<g mask="url(#mask11_520_3397)">
<path d="M541.051 325.457H552.637C556.592 325.457 559.477 326.628 561.292 328.971C563.106 331.255 564.014 334.798 564.014 339.6V342.059C564.014 345.221 563.595 347.798 562.757 349.789C561.966 351.78 560.733 353.215 559.058 354.094V354.269C562.874 355.909 564.781 360.184 564.781 367.094V372.365C564.781 377.108 563.781 380.739 561.78 383.257C559.826 385.717 556.941 386.946 553.125 386.946H541.051V325.457ZM551.73 350.492C553.265 350.492 554.405 349.994 555.149 348.999C555.941 348.003 556.336 346.334 556.336 343.992V340.566C556.336 338.341 556.01 336.73 555.359 335.735C554.754 334.739 553.777 334.241 552.427 334.241H548.728V350.492H551.73ZM553.125 378.162C554.475 378.162 555.475 377.723 556.127 376.845C556.778 375.908 557.104 374.326 557.104 372.101V366.743C557.104 363.932 556.708 361.999 555.917 360.945C555.173 359.832 553.916 359.276 552.148 359.276H548.728V378.162H553.125Z" fill="#E6E6E5"/>
</g>
<mask id="mask12_520_3397" style="mask-type:luminance" maskUnits="userSpaceOnUse" x="568" y="325" width="17" height="39">
<path d="M584.91 325.38H568.488V363.513H584.91V325.38Z" fill="white"/>
</mask>
<g mask="url(#mask12_520_3397)">
<path d="M573.465 325.51H579.892L584.81 363.513H580.065L579.202 355.967V356.075H573.81L572.947 363.513H568.547L573.465 325.51ZM578.641 350.918L576.527 332.133H576.441L574.37 350.918H578.641Z" fill="#E6E6E5"/>
</g>
<mask id="mask13_520_3397" style="mask-type:luminance" maskUnits="userSpaceOnUse" x="588" y="324" width="10" height="26">
<path d="M597.165 324.944H588.145V349.396H597.165V324.944Z" fill="white"/>
</mask>
<g mask="url(#mask13_520_3397)">
<path d="M592.589 349.149C591.167 349.149 590.09 348.645 589.362 347.639C588.633 346.61 588.27 345.144 588.27 343.243V341.901H591.042V343.511C591.042 345.033 591.549 345.793 592.562 345.793C593.06 345.793 593.433 345.614 593.682 345.256C593.948 344.876 594.081 344.272 594.081 343.444C594.081 342.46 593.903 341.599 593.547 340.861C593.192 340.1 592.535 339.194 591.576 338.143C590.367 336.8 589.523 335.593 589.043 334.519C588.563 333.423 588.323 332.192 588.323 330.828C588.323 328.971 588.696 327.539 589.443 326.533C590.189 325.504 591.273 324.989 592.695 324.989C594.099 324.989 595.156 325.504 595.867 326.533C596.596 327.539 596.961 328.993 596.961 330.895V331.868H594.188V330.66C594.188 329.855 594.064 329.273 593.815 328.915C593.566 328.535 593.201 328.345 592.721 328.345C591.743 328.345 591.255 329.094 591.255 330.593C591.255 331.443 591.433 332.237 591.789 332.975C592.162 333.713 592.829 334.608 593.788 335.66C595.015 337.002 595.858 338.221 596.32 339.317C596.782 340.413 597.013 341.699 597.013 343.176C597.013 345.1 596.631 346.576 595.867 347.605C595.12 348.634 594.028 349.149 592.589 349.149Z" fill="#E6E6E5"/>
</g>
<mask id="mask14_520_3397" style="mask-type:luminance" maskUnits="userSpaceOnUse" x="570" y="203" width="42" height="107">
<path d="M611.307 203.466H570.375V309.37H611.307V203.466Z" fill="white"/>
</mask>
<g mask="url(#mask14_520_3397)">
<path d="M570.43 203.466H590.384C597.196 203.466 602.165 205.483 605.29 209.517C608.416 213.451 609.979 219.553 609.979 227.824V232.06C609.979 237.506 609.257 241.944 607.815 245.373C606.453 248.803 604.329 251.274 601.444 252.787V253.089C608.015 255.913 611.301 263.276 611.301 275.178V284.255C611.301 292.425 609.578 298.678 606.132 303.015C602.766 307.251 597.797 309.369 591.226 309.369H570.43V203.466ZM588.822 246.584C591.466 246.584 593.43 245.726 594.712 244.012C596.074 242.297 596.756 239.423 596.756 235.388V229.488C596.756 225.655 596.195 222.881 595.073 221.167C594.031 219.452 592.348 218.595 590.024 218.595H583.653V246.584H588.822ZM591.226 294.24C593.55 294.24 595.273 293.484 596.395 291.971C597.517 290.357 598.078 287.634 598.078 283.801V274.573C598.078 269.731 597.397 266.403 596.034 264.587C594.752 262.671 592.588 261.713 589.543 261.713H583.653V294.24H591.226Z" fill="#E6E6E5"/>
</g>
<mask id="mask15_520_3397" style="mask-type:luminance" maskUnits="userSpaceOnUse" x="614" y="203" width="23" height="66">
<path d="M636.716 203.466H614.348V268.961H636.716V203.466Z" fill="white"/>
</mask>
<g mask="url(#mask15_520_3397)">
<path d="M614.348 203.508H636.636V212.858H622.52V230.157H633.739V239.507H622.52V259.611H636.636V268.961H614.348V203.508Z" fill="#E6E6E5"/>
</g>
<mask id="mask16_520_3397" style="mask-type:luminance" maskUnits="userSpaceOnUse" x="639" y="203" width="17" height="41">
<path d="M655.435 203.37H639.762V243.97H655.435V203.37Z" fill="white"/>
</mask>
<g mask="url(#mask16_520_3397)">
<path d="M639.816 203.516H647.439C650.041 203.516 651.939 204.287 653.133 205.828C654.327 207.33 654.923 209.661 654.923 212.82V214.439C654.923 216.519 654.648 218.214 654.097 219.524C653.577 220.834 652.765 221.778 651.663 222.356V222.471C654.173 223.55 655.429 226.363 655.429 230.909V234.376C655.429 237.497 654.77 239.886 653.454 241.542C652.168 243.161 650.27 243.97 647.76 243.97H639.816V203.516ZM646.842 219.986C647.852 219.986 648.602 219.659 649.092 219.004C649.612 218.349 649.872 217.251 649.872 215.71V213.456C649.872 211.992 649.658 210.933 649.23 210.278C648.832 209.623 648.189 209.295 647.301 209.295H644.867V219.986H646.842ZM647.76 238.191C648.648 238.191 649.306 237.902 649.735 237.324C650.163 236.707 650.378 235.667 650.378 234.203V230.678C650.378 228.828 650.117 227.557 649.597 226.864C649.107 226.131 648.281 225.766 647.117 225.766H644.867V238.191H647.76Z" fill="#E6E6E5"/>
</g>
<mask id="mask17_520_3397" style="mask-type:luminance" maskUnits="userSpaceOnUse" x="657" y="203" width="12" height="26">
<path d="M668.671 203.466H657.867V228.553H668.671V203.466Z" fill="white"/>
</mask>
<g mask="url(#mask17_520_3397)">
<path d="M661.142 203.551H665.37L668.605 228.553H665.484L664.916 223.588V223.66H661.369L660.801 228.553H657.906L661.142 203.551ZM664.547 220.267L663.157 207.908H663.1L661.738 220.267H664.547Z" fill="#E6E6E5"/>
</g>
<mask id="mask18_520_3397" style="mask-type:luminance" maskUnits="userSpaceOnUse" x="670" y="203" width="7" height="17">
<path d="M676.731 203.178H670.797V219.265H676.731V203.178Z" fill="white"/>
</mask>
<g mask="url(#mask18_520_3397)">
<path d="M673.72 219.103C672.785 219.103 672.077 218.772 671.598 218.109C671.119 217.432 670.879 216.468 670.879 215.218V214.335H672.703V215.394C672.703 216.395 673.036 216.895 673.703 216.895C674.03 216.895 674.276 216.778 674.44 216.542C674.615 216.292 674.703 215.895 674.703 215.35C674.703 214.702 674.586 214.136 674.352 213.65C674.118 213.15 673.685 212.554 673.054 211.862C672.259 210.979 671.703 210.184 671.388 209.478C671.072 208.757 670.914 207.947 670.914 207.05C670.914 205.828 671.16 204.886 671.651 204.224C672.142 203.547 672.855 203.208 673.791 203.208C674.714 203.208 675.41 203.547 675.878 204.224C676.357 204.886 676.597 205.843 676.597 207.094V207.734H674.773V206.939C674.773 206.409 674.691 206.027 674.527 205.791C674.364 205.541 674.124 205.416 673.808 205.416C673.165 205.416 672.843 205.909 672.843 206.895C672.843 207.454 672.96 207.977 673.194 208.462C673.44 208.948 673.878 209.537 674.51 210.228C675.317 211.112 675.872 211.914 676.176 212.635C676.48 213.356 676.632 214.202 676.632 215.173C676.632 216.439 676.381 217.41 675.878 218.087C675.387 218.764 674.668 219.103 673.72 219.103Z" fill="#E6E6E5"/>
</g>
<mask id="mask19_520_3397" style="mask-type:luminance" maskUnits="userSpaceOnUse" x="667" y="139" width="17" height="44">
<path d="M683.577 139.579H667.125V182.146H683.577V139.579Z" fill="white"/>
</mask>
<g mask="url(#mask19_520_3397)">
<path d="M667.145 139.579H675.164C677.902 139.579 679.899 140.39 681.156 142.012C682.412 143.593 683.041 146.045 683.041 149.37V151.072C683.041 153.261 682.751 155.045 682.171 156.424C681.624 157.802 680.769 158.795 679.609 159.403V159.525C682.251 160.66 683.572 163.619 683.572 168.403V172.052C683.572 175.336 682.88 177.849 681.495 179.592C680.142 181.295 678.145 182.146 675.503 182.146H667.145V139.579ZM674.536 156.91C675.599 156.91 676.389 156.565 676.905 155.876C677.452 155.187 677.726 154.032 677.726 152.41V150.039C677.726 148.498 677.5 147.383 677.049 146.694C676.63 146.005 675.954 145.66 675.02 145.66H672.458V156.91H674.536ZM675.503 176.065C676.438 176.065 677.13 175.761 677.581 175.153C678.032 174.505 678.258 173.41 678.258 171.869V168.16C678.258 166.214 677.983 164.876 677.435 164.147C676.92 163.376 676.051 162.991 674.827 162.991H672.458V176.065H675.503Z" fill="#E6E6E5"/>
</g>
<mask id="mask20_520_3397" style="mask-type:luminance" maskUnits="userSpaceOnUse" x="684" y="139" width="10" height="27">
<path d="M693.792 139.579H684.801V165.905H693.792V139.579Z" fill="white"/>
</mask>
<g mask="url(#mask20_520_3397)">
<path d="M684.801 139.596H693.76V143.355H688.086V150.308H692.595V154.066H688.086V162.146H693.76V165.905H684.801V139.596Z" fill="#E6E6E5"/>
</g>
<mask id="mask21_520_3397" style="mask-type:luminance" maskUnits="userSpaceOnUse" x="695" y="139" width="7" height="17">
<path d="M701.315 139.541H695.016V155.86H701.315V139.541Z" fill="white"/>
</mask>
<g mask="url(#mask21_520_3397)">
<path d="M695.039 139.6H698.103C699.149 139.6 699.912 139.909 700.391 140.529C700.871 141.133 701.111 142.07 701.111 143.339V143.99C701.111 144.826 701.001 145.507 700.779 146.034C700.57 146.56 700.244 146.94 699.801 147.172V147.219C700.81 147.652 701.314 148.783 701.314 150.61V152.004C701.314 153.258 701.05 154.218 700.521 154.884C700.004 155.534 699.241 155.86 698.232 155.86H695.039V139.6ZM697.863 146.22C698.269 146.22 698.57 146.088 698.767 145.825C698.976 145.562 699.081 145.12 699.081 144.501V143.595C699.081 143.006 698.995 142.581 698.823 142.317C698.663 142.054 698.404 141.922 698.047 141.922H697.069V146.22H697.863ZM698.232 153.537C698.589 153.537 698.853 153.421 699.026 153.188C699.198 152.941 699.284 152.522 699.284 151.934V150.517C699.284 149.774 699.179 149.263 698.97 148.984C698.773 148.69 698.441 148.543 697.974 148.543H697.069V153.537H698.232Z" fill="#E6E6E5"/>
</g>
<mask id="mask22_520_3397" style="mask-type:luminance" maskUnits="userSpaceOnUse" x="702" y="139" width="5" height="11">
<path d="M706.632 139.579H702.289V149.663H706.632V139.579Z" fill="white"/>
</mask>
<g mask="url(#mask22_520_3397)">
<path d="M703.605 139.613H705.305L706.605 149.663H705.35L705.122 147.667V147.696H703.696L703.468 149.663H702.305L703.605 139.613ZM704.974 146.332L704.415 141.365H704.392L703.845 146.332H704.974Z" fill="#E6E6E5"/>
</g>
<mask id="mask23_520_3397" style="mask-type:luminance" maskUnits="userSpaceOnUse" x="707" y="139" width="3" height="7">
<path d="M709.874 139.464H707.488V145.93H709.874V139.464Z" fill="white"/>
</mask>
<g mask="url(#mask23_520_3397)">
<path d="M708.666 145.865C708.29 145.865 708.005 145.732 707.812 145.465C707.62 145.193 707.523 144.806 707.523 144.303V143.948H708.257V144.374C708.257 144.776 708.391 144.977 708.659 144.977C708.79 144.977 708.889 144.93 708.955 144.835C709.025 144.735 709.06 144.575 709.06 144.356C709.06 144.096 709.013 143.868 708.919 143.673C708.825 143.472 708.651 143.232 708.398 142.954C708.078 142.599 707.855 142.28 707.728 141.996C707.601 141.706 707.538 141.381 707.538 141.02C707.538 140.529 707.636 140.15 707.834 139.884C708.031 139.612 708.318 139.476 708.694 139.476C709.065 139.476 709.345 139.612 709.533 139.884C709.725 140.15 709.822 140.535 709.822 141.038V141.295H709.089V140.976C709.089 140.763 709.056 140.609 708.99 140.514C708.924 140.414 708.828 140.363 708.701 140.363C708.442 140.363 708.313 140.562 708.313 140.958C708.313 141.183 708.36 141.393 708.454 141.588C708.553 141.783 708.729 142.02 708.983 142.298C709.307 142.653 709.53 142.975 709.653 143.265C709.775 143.555 709.836 143.895 709.836 144.285C709.836 144.794 709.735 145.184 709.533 145.457C709.335 145.729 709.046 145.865 708.666 145.865Z" fill="#E6E6E5"/>
</g>
<path d="M1514.94 2.83154H1367.41C1317.04 2.83154 1280.31 17.7455 1257.2 47.5734C1234.09 76.6555 1222.54 121.77 1222.54 182.917V214.236C1222.54 254.504 1227.87 287.314 1238.54 312.668C1248.61 338.022 1264.31 356.291 1285.64 367.477V369.714C1237.05 390.594 1212.76 445.029 1212.76 533.021V600.134C1212.76 660.535 1225.5 706.768 1250.98 738.833C1275.86 770.153 1312.6 785.812 1361.18 785.812H1514.94V2.83154ZM1378.96 321.617C1359.41 321.617 1344.89 315.278 1335.41 302.601C1325.34 289.925 1320.3 268.673 1320.3 238.844V195.221C1320.3 166.885 1324.45 146.378 1332.74 133.701C1340.45 121.024 1352.89 114.686 1370.07 114.686H1417.17V321.617H1378.96ZM1361.18 673.958C1344 673.958 1331.26 668.365 1322.97 657.18C1314.67 645.248 1310.53 625.114 1310.53 596.778V528.547C1310.53 492.754 1315.56 468.146 1325.63 454.723C1335.11 440.555 1351.11 433.471 1373.63 433.471H1417.17V673.958H1361.18Z" fill="#E6E6E5"/>
<mask id="mask24_520_3397" style="mask-type:luminance" maskUnits="userSpaceOnUse" x="1024" y="2" width="167" height="486">
<path d="M1024.88 2.83154H1190.25V487.062H1024.88V2.83154Z" fill="white"/>
</mask>
<g mask="url(#mask24_520_3397)">
<path d="M1190.23 3.14307H1025.44V72.2743H1129.8V200.167H1046.86V269.298H1129.8V417.93H1025.44V487.062H1190.23V3.14307Z" fill="#E6E6E5"/>
</g>
<mask id="mask25_520_3397" style="mask-type:luminance" maskUnits="userSpaceOnUse" x="886" y="2" width="117" height="301">
<path d="M886.504 2.12402H1002.38V302.29H886.504V2.12402Z" fill="white"/>
</mask>
<g mask="url(#mask25_520_3397)">
<path d="M1001.96 3.2041H945.602C926.364 3.2041 912.332 8.90099 903.505 20.2948C894.679 31.4036 890.265 48.6367 890.265 71.9939V83.9574C890.265 99.339 892.302 111.872 896.376 121.557C900.224 131.242 906.221 138.22 914.369 142.493V143.347C895.81 151.322 886.531 172.116 886.531 205.729V231.365C886.531 254.437 891.397 272.097 901.129 284.346C910.635 296.308 924.667 302.29 943.225 302.29H1001.96V3.2041ZM950.015 124.975C942.547 124.975 937.002 122.554 933.38 117.711C929.533 112.869 927.609 104.751 927.609 93.3572V76.6939C927.609 65.8698 929.193 58.0366 932.362 53.1943C935.304 48.3518 940.057 45.9307 946.62 45.9307H964.613V124.975H950.015ZM943.225 259.564C936.662 259.564 931.796 257.427 928.627 253.155C925.459 248.598 923.875 240.907 923.875 230.082V204.019C923.875 190.347 925.798 180.947 929.646 175.82C933.267 170.407 939.378 167.701 947.978 167.701H964.613V259.564H943.225Z" fill="#E6E6E5"/>
</g>
<mask id="mask26_520_3397" style="mask-type:luminance" maskUnits="userSpaceOnUse" x="788" y="2" width="81" height="187">
<path d="M788.625 2.83154H868.5V188.312H788.625V2.83154Z" fill="white"/>
</mask>
<g mask="url(#mask26_520_3397)">
<path d="M844.312 3.46045H813.048L789.129 188.311H812.209L816.406 151.605V152.133H842.633L846.83 188.311H868.231L844.312 3.46045ZM819.133 127.046L829.414 35.6774H829.834L839.906 127.046H819.133Z" fill="#E6E6E5"/>
</g>
<mask id="mask27_520_3397" style="mask-type:luminance" maskUnits="userSpaceOnUse" x="729" y="0" width="44" height="120">
<path d="M729 0.708008H772.875V119.642H729V0.708008Z" fill="white"/>
</mask>
<g mask="url(#mask27_520_3397)">
<path d="M751.265 118.442C758.181 118.442 763.412 115.993 766.957 111.097C770.501 106.092 772.273 98.9651 772.273 89.7166V83.1881H758.787V91.0221C758.787 98.4211 756.323 102.121 751.395 102.121C748.974 102.121 747.159 101.25 745.948 99.5092C744.651 97.6595 744.003 94.7217 744.003 90.6958C744.003 85.9083 744.868 81.7191 746.597 78.1284C748.326 74.429 751.524 70.0224 756.193 64.9084C762.072 58.3799 766.178 52.5044 768.513 47.2816C770.847 41.9501 772.014 35.9657 772.014 29.3284C772.014 20.2975 770.199 13.3337 766.567 8.4374C762.936 3.43226 757.663 0.929688 750.746 0.929688C743.917 0.929688 738.772 3.43226 735.314 8.4374C731.77 13.3337 729.997 20.4062 729.997 29.6549V34.388H743.484V28.5124C743.484 24.5954 744.089 21.7663 745.3 20.0253C746.51 18.1756 748.282 17.2508 750.617 17.2508C755.372 17.2508 757.749 20.8958 757.749 28.1859C757.749 32.3207 756.885 36.1833 755.156 39.7739C753.34 43.3645 750.098 47.7168 745.429 52.8308C739.464 59.3593 735.358 65.2893 733.11 70.6207C730.862 75.9524 729.738 82.2087 729.738 89.3901C729.738 98.7475 731.597 105.929 735.314 110.934C738.945 115.939 744.262 118.442 751.265 118.442Z" fill="#E6E6E5"/>
</g>
<mask id="mask28_520_3397" style="mask-type:luminance" maskUnits="userSpaceOnUse" x="1102" y="509" width="89" height="225">
<path d="M1102.79 509.616H1190.25V733.651H1102.79V509.616Z" fill="white"/>
</mask>
<g mask="url(#mask28_520_3397)">
<path d="M1190.12 509.616H1147.49C1132.93 509.616 1122.32 513.883 1115.64 522.418C1108.96 530.739 1105.62 543.648 1105.62 561.144V570.105C1105.62 581.627 1107.16 591.015 1110.25 598.27C1113.16 605.524 1117.7 610.752 1123.86 613.952V614.592C1109.82 620.567 1102.8 636.142 1102.8 661.32V680.523C1102.8 697.805 1106.48 711.034 1113.84 720.209C1121.03 729.17 1131.65 733.651 1145.69 733.651H1190.12V509.616ZM1150.83 600.83C1145.18 600.83 1140.98 599.016 1138.24 595.389C1135.33 591.762 1133.88 585.681 1133.88 577.146V564.664C1133.88 556.557 1135.07 550.689 1137.47 547.062C1139.7 543.434 1143.29 541.621 1148.26 541.621H1161.87V600.83H1150.83ZM1145.69 701.646C1140.73 701.646 1137.04 700.046 1134.65 696.845C1132.25 693.431 1131.05 687.67 1131.05 679.563V660.04C1131.05 649.798 1132.51 642.757 1135.42 638.916C1138.16 634.862 1142.78 632.835 1149.29 632.835H1161.87V701.646H1145.69Z" fill="#E6E6E5"/>
</g>
<mask id="mask29_520_3397" style="mask-type:luminance" maskUnits="userSpaceOnUse" x="1048" y="509" width="49" height="140">
<path d="M1048.5 509.616H1096.29V648.17H1048.5V509.616Z" fill="white"/>
</mask>
<g mask="url(#mask29_520_3397)">
<path d="M1096.29 509.705H1048.67V529.485H1078.83V566.079H1054.86V585.86H1078.83V628.388H1048.67V648.169H1096.29V509.705Z" fill="#E6E6E5"/>
</g>
<mask id="mask30_520_3397" style="mask-type:luminance" maskUnits="userSpaceOnUse" x="1008" y="509" width="34" height="87">
<path d="M1008.51 509.413H1042V595.3H1008.51V509.413Z" fill="white"/>
</mask>
<g mask="url(#mask30_520_3397)">
<path d="M1041.88 509.722H1025.59C1020.03 509.722 1015.98 511.352 1013.43 514.612C1010.88 517.79 1009.6 522.721 1009.6 529.405V532.828C1009.6 537.229 1010.19 540.815 1011.37 543.586C1012.48 546.357 1014.21 548.354 1016.57 549.577V549.821C1011.2 552.103 1008.52 558.053 1008.52 567.67V575.006C1008.52 581.607 1009.93 586.66 1012.74 590.165C1015.49 593.588 1019.54 595.3 1024.91 595.3H1041.88V509.722ZM1026.87 544.564C1024.71 544.564 1023.11 543.871 1022.06 542.486C1020.95 541.1 1020.39 538.777 1020.39 535.517V530.749C1020.39 527.652 1020.85 525.411 1021.77 524.025C1022.62 522.64 1023.99 521.947 1025.89 521.947H1031.09V544.564H1026.87ZM1024.91 583.074C1023.01 583.074 1021.6 582.463 1020.69 581.241C1019.77 579.936 1019.31 577.736 1019.31 574.639V567.181C1019.31 563.269 1019.87 560.579 1020.98 559.113C1022.03 557.564 1023.79 556.79 1026.28 556.79H1031.09V583.074H1024.91Z" fill="#E6E6E5"/>
</g>
<mask id="mask31_520_3397" style="mask-type:luminance" maskUnits="userSpaceOnUse" x="980" y="509" width="24" height="54">
<path d="M980.225 509.616H1003.31V562.688H980.225V509.616Z" fill="white"/>
</mask>
<g mask="url(#mask31_520_3397)">
<path d="M996.319 509.796H987.284L980.371 562.688H987.041L988.254 552.185V552.336H995.834L997.046 562.688H1003.23L996.319 509.796ZM989.042 545.158L992.014 519.014H992.135L995.045 545.158H989.042Z" fill="#E6E6E5"/>
</g>
<mask id="mask32_520_3397" style="mask-type:luminance" maskUnits="userSpaceOnUse" x="963" y="509" width="13" height="35">
<path d="M963 509.008H975.68V543.039H963V509.008Z" fill="white"/>
</mask>
<g mask="url(#mask32_520_3397)">
<path d="M969.428 542.695C971.426 542.695 972.938 541.995 973.962 540.594C974.987 539.162 975.499 537.122 975.499 534.476V532.608H971.601V534.85C971.601 536.967 970.889 538.025 969.465 538.025C968.766 538.025 968.241 537.776 967.891 537.278C967.516 536.749 967.329 535.908 967.329 534.756C967.329 533.386 967.579 532.188 968.079 531.16C968.578 530.102 969.503 528.841 970.852 527.378C972.551 525.51 973.738 523.828 974.412 522.334C975.087 520.809 975.424 519.096 975.424 517.197C975.424 514.613 974.899 512.62 973.85 511.219C972.801 509.787 971.277 509.071 969.278 509.071C967.304 509.071 965.817 509.787 964.818 511.219C963.794 512.62 963.281 514.644 963.281 517.29V518.645H967.179V516.964C967.179 515.843 967.354 515.033 967.704 514.535C968.054 514.006 968.566 513.741 969.24 513.741C970.614 513.741 971.302 514.784 971.302 516.87C971.302 518.053 971.052 519.158 970.552 520.186C970.027 521.213 969.09 522.459 967.741 523.922C966.017 525.79 964.831 527.487 964.181 529.012C963.531 530.538 963.207 532.328 963.207 534.383C963.207 537.06 963.744 539.115 964.818 540.547C965.867 541.979 967.404 542.695 969.428 542.695Z" fill="#E6E6E5"/>
</g>
<mask id="mask33_520_3397" style="mask-type:luminance" maskUnits="userSpaceOnUse" x="941" y="325" width="63" height="162">
<path d="M941.166 325.38H1003.38V486.353H941.166V325.38Z" fill="white"/>
</mask>
<g mask="url(#mask33_520_3397)">
<path d="M1003.29 325.38H972.957C962.603 325.38 955.05 328.447 950.3 334.579C945.549 340.558 943.174 349.833 943.174 362.404V368.843C943.174 377.122 944.27 383.867 946.463 389.08C948.533 394.292 951.761 398.048 956.147 400.348V400.808C946.158 405.101 941.164 416.292 941.164 434.382V448.18C941.164 460.598 943.783 470.103 949.021 476.695C954.137 483.134 961.689 486.354 971.678 486.354H1003.29V325.38ZM975.332 390.92C971.312 390.92 968.328 389.616 966.379 387.01C964.308 384.404 963.273 380.035 963.273 373.902V364.934C963.273 359.108 964.125 354.892 965.831 352.286C967.414 349.68 969.972 348.377 973.505 348.377H983.189V390.92H975.332ZM971.678 463.358C968.145 463.358 965.526 462.208 963.821 459.908C962.116 457.455 961.263 453.316 961.263 447.49V433.463C961.263 426.104 962.298 421.045 964.369 418.285C966.318 415.372 969.607 413.916 974.236 413.916H983.189V463.358H971.678Z" fill="#E6E6E5"/>
</g>
<mask id="mask34_520_3397" style="mask-type:luminance" maskUnits="userSpaceOnUse" x="902" y="325" width="35" height="100">
<path d="M902.54 325.38H936.539V424.933H902.54V325.38Z" fill="white"/>
</mask>
<g mask="url(#mask34_520_3397)">
<path d="M936.535 325.444H902.656V339.657H924.113V365.951H907.061V380.163H924.113V410.721H902.656V424.934H936.535V325.444Z" fill="#E6E6E5"/>
</g>
<mask id="mask35_520_3397" style="mask-type:luminance" maskUnits="userSpaceOnUse" x="874" y="325" width="24" height="62">
<path d="M874.083 325.235H897.906V386.946H874.083V325.235Z" fill="white"/>
</mask>
<g mask="url(#mask35_520_3397)">
<path d="M897.824 325.457H886.238C882.283 325.457 879.398 326.628 877.583 328.971C875.769 331.255 874.861 334.798 874.861 339.6V342.059C874.861 345.221 875.28 347.798 876.118 349.789C876.909 351.78 878.142 353.215 879.817 354.094V354.269C876.001 355.909 874.094 360.184 874.094 367.094V372.365C874.094 377.108 875.094 380.739 877.095 383.257C879.049 385.717 881.934 386.946 885.75 386.946H897.824V325.457ZM887.145 350.492C885.61 350.492 884.47 349.994 883.726 348.999C882.934 348.003 882.539 346.334 882.539 343.992V340.566C882.539 338.341 882.865 336.73 883.516 335.735C884.121 334.739 885.098 334.241 886.448 334.241H890.147V350.492H887.145ZM885.75 378.162C884.4 378.162 883.4 377.723 882.748 376.845C882.097 375.908 881.771 374.326 881.771 372.101V366.743C881.771 363.932 882.167 361.999 882.958 360.945C883.702 359.832 884.959 359.276 886.727 359.276H890.147V378.162H885.75Z" fill="#E6E6E5"/>
</g>
<mask id="mask36_520_3397" style="mask-type:luminance" maskUnits="userSpaceOnUse" x="853" y="325" width="18" height="39">
<path d="M853.965 325.38H870.387V363.513H853.965V325.38Z" fill="white"/>
</mask>
<g mask="url(#mask36_520_3397)">
<path d="M865.407 325.51H858.98L854.062 363.513H858.807L859.67 355.967V356.075H865.062L865.925 363.513H870.326L865.407 325.51ZM860.232 350.918L862.346 332.133H862.432L864.503 350.918H860.232Z" fill="#E6E6E5"/>
</g>
<mask id="mask37_520_3397" style="mask-type:luminance" maskUnits="userSpaceOnUse" x="841" y="324" width="10" height="26">
<path d="M841.714 324.944H850.734V349.396H841.714V324.944Z" fill="white"/>
</mask>
<g mask="url(#mask37_520_3397)">
<path d="M846.288 349.149C847.71 349.149 848.786 348.645 849.514 347.639C850.243 346.61 850.607 345.144 850.607 343.243V341.901H847.835V343.511C847.835 345.033 847.328 345.793 846.315 345.793C845.817 345.793 845.444 345.614 845.195 345.256C844.929 344.876 844.795 344.272 844.795 343.444C844.795 342.46 844.973 341.599 845.329 340.861C845.684 340.1 846.342 339.194 847.301 338.143C848.51 336.8 849.354 335.593 849.834 334.519C850.314 333.423 850.554 332.192 850.554 330.828C850.554 328.971 850.181 327.539 849.434 326.533C848.688 325.504 847.604 324.989 846.182 324.989C844.778 324.989 843.72 325.504 843.009 326.533C842.28 327.539 841.916 328.993 841.916 330.895V331.868H844.689V330.66C844.689 329.855 844.813 329.273 845.062 328.915C845.311 328.535 845.675 328.345 846.155 328.345C847.133 328.345 847.621 329.094 847.621 330.593C847.621 331.443 847.444 332.237 847.088 332.975C846.715 333.713 846.048 334.608 845.089 335.66C843.862 337.002 843.018 338.221 842.556 339.317C842.094 340.413 841.863 341.699 841.863 343.176C841.863 345.1 842.245 346.576 843.009 347.605C843.756 348.634 844.849 349.149 846.288 349.149Z" fill="#E6E6E5"/>
</g>
<mask id="mask38_520_3397" style="mask-type:luminance" maskUnits="userSpaceOnUse" x="827" y="203" width="42" height="107">
<path d="M827.568 203.466H868.5V309.37H827.568V203.466Z" fill="white"/>
</mask>
<g mask="url(#mask38_520_3397)">
<path d="M868.445 203.466H848.491C841.679 203.466 836.71 205.483 833.585 209.517C830.459 213.451 828.896 219.553 828.896 227.824V232.06C828.896 237.506 829.618 241.944 831.06 245.373C832.422 248.803 834.546 251.274 837.431 252.787V253.089C830.86 255.913 827.574 263.276 827.574 275.178V284.255C827.574 292.425 829.297 298.678 832.743 303.015C836.109 307.251 841.078 309.369 847.649 309.369H868.445V203.466ZM850.053 246.584C847.409 246.584 845.445 245.726 844.163 244.012C842.801 242.297 842.119 239.423 842.119 235.388V229.488C842.119 225.655 842.68 222.881 843.802 221.167C844.844 219.452 846.527 218.595 848.851 218.595H855.222V246.584H850.053ZM847.649 294.24C845.325 294.24 843.602 293.484 842.48 291.971C841.358 290.357 840.797 287.634 840.797 283.801V274.573C840.797 269.731 841.478 266.403 842.841 264.587C844.123 262.671 846.287 261.713 849.332 261.713H855.222V294.24H847.649Z" fill="#E6E6E5"/>
</g>
<mask id="mask39_520_3397" style="mask-type:luminance" maskUnits="userSpaceOnUse" x="802" y="203" width="23" height="66">
<path d="M802.163 203.466H824.531V268.961H802.163V203.466Z" fill="white"/>
</mask>
<g mask="url(#mask39_520_3397)">
<path d="M824.53 203.508H802.242V212.858H816.358V230.157H805.139V239.507H816.358V259.611H802.242V268.961H824.53V203.508Z" fill="#E6E6E5"/>
</g>
<mask id="mask40_520_3397" style="mask-type:luminance" maskUnits="userSpaceOnUse" x="783" y="203" width="17" height="41">
<path d="M783.44 203.37H799.113V243.97H783.44V203.37Z" fill="white"/>
</mask>
<g mask="url(#mask40_520_3397)">
<path d="M799.062 203.516H791.439C788.837 203.516 786.939 204.287 785.745 205.828C784.551 207.33 783.955 209.661 783.955 212.82V214.439C783.955 216.519 784.23 218.214 784.781 219.524C785.301 220.834 786.113 221.778 787.215 222.356V222.471C784.705 223.55 783.449 226.363 783.449 230.909V234.376C783.449 237.497 784.108 239.886 785.424 241.542C786.71 243.161 788.608 243.97 791.118 243.97H799.062V203.516ZM792.036 219.986C791.026 219.986 790.276 219.659 789.786 219.004C789.266 218.349 789.006 217.251 789.006 215.71V213.456C789.006 211.992 789.22 210.933 789.648 210.278C790.046 209.623 790.689 209.295 791.577 209.295H794.011V219.986H792.036ZM791.118 238.191C790.23 238.191 789.572 237.902 789.143 237.324C788.715 236.707 788.5 235.667 788.5 234.203V230.678C788.5 228.828 788.761 227.557 789.281 226.864C789.771 226.131 790.597 225.766 791.761 225.766H794.011V238.191H791.118Z" fill="#E6E6E5"/>
</g>
<mask id="mask41_520_3397" style="mask-type:luminance" maskUnits="userSpaceOnUse" x="770" y="203" width="12" height="26">
<path d="M770.204 203.466H781.008V228.553H770.204V203.466Z" fill="white"/>
</mask>
<g mask="url(#mask41_520_3397)">
<path d="M777.732 203.551H773.505L770.27 228.553H773.391L773.958 223.588V223.66H777.505L778.073 228.553H780.969L777.732 203.551ZM774.328 220.267L775.718 207.908H775.775L777.137 220.267H774.328Z" fill="#E6E6E5"/>
</g>
<mask id="mask42_520_3397" style="mask-type:luminance" maskUnits="userSpaceOnUse" x="762" y="203" width="7" height="17">
<path d="M762.148 203.178H768.082V219.265H762.148V203.178Z" fill="white"/>
</mask>
<g mask="url(#mask42_520_3397)">
<path d="M765.154 219.103C766.089 219.103 766.797 218.772 767.276 218.109C767.755 217.432 767.995 216.468 767.995 215.218V214.335H766.171V215.394C766.171 216.395 765.838 216.895 765.171 216.895C764.844 216.895 764.598 216.778 764.434 216.542C764.259 216.292 764.171 215.895 764.171 215.35C764.171 214.702 764.288 214.136 764.522 213.65C764.756 213.15 765.189 212.554 765.82 211.862C766.615 210.979 767.171 210.184 767.486 209.478C767.802 208.757 767.96 207.947 767.96 207.05C767.96 205.828 767.714 204.886 767.223 204.224C766.732 203.547 766.019 203.208 765.083 203.208C764.16 203.208 763.464 203.547 762.996 204.224C762.517 204.886 762.277 205.843 762.277 207.094V207.734H764.101V206.939C764.101 206.409 764.183 206.027 764.347 205.791C764.51 205.541 764.75 205.416 765.066 205.416C765.709 205.416 766.031 205.909 766.031 206.895C766.031 207.454 765.914 207.977 765.68 208.462C765.434 208.948 764.996 209.537 764.364 210.228C763.557 211.112 763.002 211.914 762.698 212.635C762.394 213.356 762.242 214.202 762.242 215.173C762.242 216.439 762.493 217.41 762.996 218.087C763.487 218.764 764.206 219.103 765.154 219.103Z" fill="#E6E6E5"/>
</g>
<mask id="mask43_520_3397" style="mask-type:luminance" maskUnits="userSpaceOnUse" x="755" y="139" width="17" height="44">
<path d="M755.294 139.579H771.746V182.146H755.294V139.579Z" fill="white"/>
</mask>
<g mask="url(#mask43_520_3397)">
<path d="M771.725 139.579H763.704C760.966 139.579 758.969 140.39 757.712 142.012C756.456 143.593 755.828 146.045 755.828 149.37V151.072C755.828 153.261 756.118 155.045 756.698 156.424C757.245 157.802 758.099 158.795 759.259 159.403V159.525C756.617 160.66 755.297 163.619 755.297 168.403V172.052C755.297 175.336 755.989 177.849 757.374 179.592C758.727 181.295 760.724 182.146 763.366 182.146H771.725V139.579ZM764.332 156.91C763.269 156.91 762.48 156.565 761.964 155.876C761.417 155.187 761.143 154.032 761.143 152.41V150.039C761.143 148.498 761.369 147.383 761.819 146.694C762.238 146.005 762.915 145.66 763.849 145.66H766.41V156.91H764.332ZM763.366 176.065C762.432 176.065 761.739 175.761 761.288 175.153C760.837 174.505 760.612 173.41 760.612 171.869V168.16C760.612 166.214 760.885 164.876 761.433 164.147C761.948 163.376 762.818 162.991 764.042 162.991H766.41V176.065H763.366Z" fill="#E6E6E5"/>
</g>
<mask id="mask44_520_3397" style="mask-type:luminance" maskUnits="userSpaceOnUse" x="745" y="139" width="10" height="27">
<path d="M745.083 139.579H754.074V165.905H745.083V139.579Z" fill="white"/>
</mask>
<g mask="url(#mask44_520_3397)">
<path d="M754.072 139.596H745.113V143.355H750.787V150.308H746.278V154.066H750.787V162.146H745.113V165.905H754.072V139.596Z" fill="#E6E6E5"/>
</g>
<mask id="mask45_520_3397" style="mask-type:luminance" maskUnits="userSpaceOnUse" x="737" y="139" width="7" height="17">
<path d="M737.56 139.541H743.859V155.86H737.56V139.541Z" fill="white"/>
</mask>
<g mask="url(#mask45_520_3397)">
<path d="M743.834 139.6H740.77C739.724 139.6 738.961 139.909 738.482 140.529C738.002 141.133 737.762 142.07 737.762 143.339V143.99C737.762 144.826 737.872 145.507 738.094 146.034C738.303 146.56 738.629 146.94 739.072 147.172V147.219C738.063 147.652 737.559 148.783 737.559 150.61V152.004C737.559 153.258 737.823 154.218 738.352 154.884C738.869 155.534 739.632 155.86 740.641 155.86H743.834V139.6ZM741.01 146.22C740.604 146.22 740.303 146.088 740.106 145.825C739.897 145.562 739.792 145.12 739.792 144.501V143.595C739.792 143.006 739.878 142.581 740.05 142.317C740.21 142.054 740.469 141.922 740.826 141.922H741.804V146.22H741.01ZM740.641 153.537C740.284 153.537 740.02 153.421 739.847 153.188C739.675 152.941 739.589 152.522 739.589 151.934V150.517C739.589 149.774 739.694 149.263 739.903 148.984C740.1 148.69 740.432 148.543 740.899 148.543H741.804V153.537H740.641Z" fill="#E6E6E5"/>
</g>
<mask id="mask46_520_3397" style="mask-type:luminance" maskUnits="userSpaceOnUse" x="732" y="139" width="5" height="11">
<path d="M732.243 139.579H736.586V149.663H732.243V139.579Z" fill="white"/>
</mask>
<g mask="url(#mask46_520_3397)">
<path d="M735.27 139.613H733.57L732.27 149.663H733.525L733.753 147.667V147.696H735.179L735.406 149.663H736.57L735.27 139.613ZM733.901 146.332L734.46 141.365H734.482L735.03 146.332H733.901Z" fill="#E6E6E5"/>
</g>
<mask id="mask47_520_3397" style="mask-type:luminance" maskUnits="userSpaceOnUse" x="729" y="139" width="3" height="7">
<path d="M729.001 139.464H731.387V145.93H729.001V139.464Z" fill="white"/>
</mask>
<g mask="url(#mask47_520_3397)">
<path d="M730.209 145.865C730.585 145.865 730.87 145.732 731.063 145.465C731.255 145.193 731.352 144.806 731.352 144.303V143.948H730.618V144.374C730.618 144.776 730.484 144.977 730.216 144.977C730.085 144.977 729.986 144.93 729.92 144.835C729.85 144.735 729.815 144.575 729.815 144.356C729.815 144.096 729.862 143.868 729.956 143.673C730.05 143.472 730.224 143.232 730.477 142.954C730.797 142.599 731.02 142.28 731.147 141.996C731.274 141.706 731.337 141.381 731.337 141.02C731.337 140.529 731.239 140.15 731.041 139.884C730.844 139.612 730.557 139.476 730.181 139.476C729.81 139.476 729.53 139.612 729.342 139.884C729.15 140.15 729.053 140.535 729.053 141.038V141.295H729.786V140.976C729.786 140.763 729.819 140.609 729.885 140.514C729.951 140.414 730.047 140.363 730.174 140.363C730.433 140.363 730.562 140.562 730.562 140.958C730.562 141.183 730.515 141.393 730.421 141.588C730.322 141.783 730.146 142.02 729.892 142.298C729.568 142.653 729.345 142.975 729.222 143.265C729.1 143.555 729.039 143.895 729.039 144.285C729.039 144.794 729.14 145.184 729.342 145.457C729.54 145.729 729.829 145.865 730.209 145.865Z" fill="#E6E6E5"/>
</g>
</g>
<defs>
<clipPath id="clip0_520_3397">
<rect width="1440" height="790" fill="white"/>
</clipPath>
</defs>
</svg>
