<svg width="1440" height="1074" viewBox="0 0 1440 1074" fill="none" xmlns="http://www.w3.org/2000/svg">
<g clip-path="url(#clip0_521_5574)">
<path d="M45.5547 219.052L45.5866 282.321L99.8632 313.127L99.8206 249.857L45.5547 219.052Z" fill="#E6E6E5"/>
<path d="M45.5117 156.314L45.5543 219.583L98.7245 188.182L98.6819 125.444L45.5117 156.314Z" fill="#231F20"/>
<path d="M-8.76562 125.508L-8.72307 188.778L45.5535 219.583L45.511 156.313L-8.76562 125.508Z" fill="#E6E6E5"/>
<path d="M368.956 92.5439L368.913 155.814L314.637 186.619L314.679 123.349L368.956 92.5439Z" fill="#C0D03E"/>
<path d="M314.702 123.381L314.659 186.651L260.383 217.456L260.425 154.186L314.702 123.381Z" fill="#C0D03E"/>
<path d="M475.339 341.369L475.296 404.639L421.02 435.444L421.062 372.175L475.339 341.369Z" fill="#C0D03E"/>
<path d="M529.596 310.532L529.554 373.802L475.277 404.607L475.32 341.338L529.596 310.532Z" fill="#C0D03E"/>
<path d="M475.339 404.107L475.296 467.377L421.02 498.183L421.062 434.913L475.339 404.107Z" fill="#C0D03E"/>
<path d="M529.596 373.27L529.554 436.539L475.277 467.345L475.32 404.075L529.596 373.27Z" fill="#C0D03E"/>
<path d="M475.339 466.846L475.296 530.115L421.02 560.921L421.062 497.651L475.339 466.846Z" fill="#C0D03E"/>
<path d="M529.596 436.008L529.554 499.278L475.277 530.083L475.32 466.813L529.596 436.008Z" fill="#C0D03E"/>
<path d="M475.339 529.583L475.296 592.853L421.02 623.658L421.062 560.388L475.339 529.583Z" fill="#C0D03E"/>
<path d="M529.596 498.746L529.554 562.016L475.277 592.821L475.32 529.552L529.596 498.746Z" fill="#C0D03E"/>
<path d="M475.339 592.321L475.296 655.591L425.402 686.928V621L475.339 592.321Z" fill="#C0D03E"/>
<path d="M529.596 561.484L529.554 624.754L475.277 655.559L475.32 592.29L529.596 561.484Z" fill="#C0D03E"/>
<path d="M368.956 155.282L368.913 218.552L314.637 249.357L314.679 186.088L368.956 155.282Z" fill="#C0D03E"/>
<path d="M314.702 186.119L314.659 249.389L260.383 280.194L260.425 216.925L314.702 186.119Z" fill="#C0D03E"/>
<path d="M-8.72266 188.246L-8.6801 251.516L45.5859 282.321L45.5539 219.052L-8.72266 188.246Z" fill="#E6E6E5"/>
<path d="M45.5859 281.789L45.6285 345.059L99.9051 375.864L99.8625 312.594L45.5859 281.789Z" fill="#E6E6E5"/>
<path d="M-8.67969 250.984L-8.64777 314.254L45.6288 345.059L45.5863 281.79L-8.67969 250.984Z" fill="#E6E6E5"/>
<path d="M45.6289 344.527L45.6715 407.797L99.9481 438.602L99.9055 375.333L45.6289 344.527Z" fill="#E6E6E5"/>
<path d="M-8.64844 313.722L-8.60588 376.991L45.6707 407.797L45.6282 344.527L-8.64844 313.722Z" fill="#E6E6E5"/>
<path d="M45.6172 156.313L98.8087 125.476L153.064 156.313L99.8725 187.15L45.6172 156.313Z" fill="#C0D03E"/>
<path d="M44.5547 94.6391L97.7462 63.8018L152.002 94.6391L98.81 125.476L44.5547 94.6391Z" fill="#C0D03E"/>
<path d="M98.8086 125.476L152 94.6387L206.255 125.476L153.064 156.313L98.8086 125.476Z" fill="#C0D03E"/>
<path d="M-9.70312 63.8012L43.4884 32.9639L97.7437 63.8012L44.5522 94.6385L-9.70312 63.8012Z" fill="#C0D03E"/>
<path d="M99.8711 61.6742L153.063 30.8369L207.318 61.6742L154.126 92.5116L99.8711 61.6742Z" fill="#C0D03E"/>
<path d="M154.129 92.5121L207.32 61.6748L261.576 92.5121L208.384 123.349L154.129 92.5121Z" fill="#C0D03E"/>
<path d="M208.383 123.349L261.574 92.5117L315.83 123.349L262.638 154.186L208.383 123.349Z" fill="#C0D03E"/>
<path d="M153.062 30.8373L206.254 0L260.509 30.8373L207.318 61.6747L153.062 30.8373Z" fill="#C0D03E"/>
<path d="M207.32 61.6742L260.512 30.8369L314.767 61.6742L261.576 92.5116L207.32 61.6742Z" fill="#C0D03E"/>
<path d="M260.512 279.663L313.703 248.825L367.959 279.663L314.767 310.5L260.512 279.663Z" fill="#C0D03E"/>
<path d="M313.703 248.826L366.895 217.988L421.15 248.826L367.958 279.663L313.703 248.826Z" fill="#C0D03E"/>
<path d="M314.766 310.5L367.957 279.663L422.212 310.5L369.021 341.338L314.766 310.5Z" fill="#C0D03E"/>
<path d="M367.957 279.663L421.149 248.825L475.404 279.663L422.212 310.5L367.957 279.663Z" fill="#C0D03E"/>
<path d="M369.02 341.337L422.211 310.5L476.466 341.337L423.275 372.175L369.02 341.337Z" fill="#C0D03E"/>
<path d="M422.211 310.5L475.402 279.663L529.658 310.5L476.466 341.338L422.211 310.5Z" fill="#C0D03E"/>
<path d="M261.574 92.5121L314.766 61.6748L369.021 92.5121L315.83 123.349L261.574 92.5121Z" fill="#C0D03E"/>
<path d="M-8.63672 125.476L44.5548 94.6387L98.8101 125.476L45.6186 156.313L-8.63672 125.476Z" fill="#C0D03E"/>
<path d="M-62.8945 94.6391L-9.70304 63.8018L44.5523 94.6391L-8.63921 125.476L-62.8945 94.6391Z" fill="#C0D03E"/>
<path d="M45.5117 156.313L45.5543 219.583L99.8202 250.389L99.7883 187.119L45.5117 156.313Z" fill="#E6E6E5"/>
<path d="M-8.77734 376.5L-9 439.5L45.8716 471V407.617L-8.77734 376.5Z" fill="#E6E6E5"/>
<path d="M45.6719 407.266L45.7038 470.535L99.9804 501.341L99.9485 438.071L45.6719 407.266Z" fill="#E6E6E5"/>
<path d="M99.8203 249.856L99.8629 313.126L154.139 343.932L154.097 280.662L99.8203 249.856Z" fill="#E6E6E5"/>
<path d="M99.8633 312.595L99.9058 375.864L154.182 406.67L154.14 343.4L99.8633 312.595Z" fill="#E6E6E5"/>
<path d="M99.9023 375.333L99.9449 438.603L154.211 469.408L154.179 406.138L99.9023 375.333Z" fill="#E6E6E5"/>
<path d="M99.7891 187.119L99.821 250.389L154.098 281.194L154.066 217.925L99.7891 187.119Z" fill="#E6E6E5"/>
<path d="M99.7461 124.381L99.7887 187.651L154.065 218.456L154.023 155.186L99.7461 124.381Z" fill="#E6E6E5"/>
<path d="M154 155.218L154.043 218.487L208.319 249.293L208.277 186.023L154 155.218Z" fill="#E6E6E5"/>
<path d="M99.8711 61.6748V124.944L154.126 155.782V92.5121L99.8711 61.6748Z" fill="#E6E6E5"/>
<path d="M154.129 92.5117V155.781L208.384 186.619V123.349L154.129 92.5117Z" fill="#E6E6E5"/>
<path d="M208.383 123.35V186.619L262.638 217.457V154.187L208.383 123.35Z" fill="#E6E6E5"/>
<path d="M206.5 184.5L208.383 249.357L262.638 280.194V216.924L206.5 184.5Z" fill="#E6E6E5"/>
<path d="M154 217.956L154.043 281.226L208.319 312.031L208.277 248.761L154 217.956Z" fill="#E6E6E5"/>
<path d="M205 244.5L208.383 312.095L262.638 342.932V279.663L205 244.5Z" fill="#E6E6E5"/>
<path d="M262.555 280.694L262.587 343.964L316.863 374.769L316.831 311.5L262.555 280.694Z" fill="#E6E6E5"/>
<path d="M316.766 311.531L316.808 374.801L373.5 406.5V343.5L316.766 311.531Z" fill="#E6E6E5"/>
<path d="M371.148 342.4V405.67L425.404 436.507V373.238L371.148 342.4Z" fill="#E6E6E5"/>
<path d="M262.555 343.432L262.587 406.701L316.863 437.507L316.831 374.237L262.555 343.432Z" fill="#E6E6E5"/>
<path d="M315.559 373.822L315.601 437.092L372.293 468.791V405.791L315.559 373.822Z" fill="#E6E6E5"/>
<path d="M371.148 405.139V468.408L425.404 499.246V435.976L371.148 405.139Z" fill="#E6E6E5"/>
<path d="M262.555 406.17L262.587 469.44L316.863 500.245L316.831 436.975L262.555 406.17Z" fill="#E6E6E5"/>
<path d="M315.559 436.561L315.601 499.83L372.293 531.529V468.529L315.559 436.561Z" fill="#E6E6E5"/>
<path d="M371.148 467.877V531.147L425.404 561.984V498.714L371.148 467.877Z" fill="#E6E6E5"/>
<path d="M262.555 468.908L262.587 532.178L316.863 562.983L316.831 499.714L262.555 468.908Z" fill="#E6E6E5"/>
<path d="M315.559 499.298L315.601 562.568L372.293 594.267V531.267L315.559 499.298Z" fill="#E6E6E5"/>
<path d="M371.148 530.615V593.885L425.404 624.722V561.453L371.148 530.615Z" fill="#E6E6E5"/>
<path d="M262.555 530.583L262.587 593.853L316.863 624.658L316.831 561.388L262.555 530.583Z" fill="#E6E6E5"/>
<path d="M315.559 560.973L315.601 624.242L372.293 655.941V592.941L315.559 560.973Z" fill="#E6E6E5"/>
<path d="M371.148 592.289V655.559L425.404 686.396V623.126L371.148 592.289Z" fill="#E6E6E5"/>
<path d="M154 280.694L154.043 343.964L208.319 374.769L208.277 311.5L154 280.694Z" fill="#E6E6E5"/>
<path d="M205.5 309L208.383 374.833L262.638 405.67V342.401L205.5 309Z" fill="#E6E6E5"/>
<path d="M154 343.432L154.043 406.701L208.319 437.507L208.277 374.237L154 343.432Z" fill="#E6E6E5"/>
<path d="M205 369.5L208.383 437.571L262.638 468.409V405.139L205 369.5Z" fill="#E6E6E5"/>
<path d="M154 406.17L154.043 469.44L208.319 500.245L208.277 436.975L154 406.17Z" fill="#E6E6E5"/>
<path d="M208.383 437.039V500.309L262.638 531.146V467.876L208.383 437.039Z" fill="#E6E6E5"/>
<path d="M154 468.908L154.043 532.178L218 568.5L208.277 499.714L154 468.908Z" fill="#E6E6E5"/>
<path d="M208.383 499.777V563.047L262.638 593.884V530.615L208.383 499.777Z" fill="#E6E6E5"/>
<path d="M99.9453 438.071L99.9772 501.341L154.254 532.146L154.211 468.877L99.9453 438.071Z" fill="#E6E6E5"/>
<path d="M14.7656 390.251L67.9571 359.414L122.212 390.251L69.0209 421.089L14.7656 390.251Z" fill="#C0D03E"/>
<path d="M69.0195 421.089L122.211 390.252L176.466 421.089L123.275 451.927L69.0195 421.089Z" fill="#C0D03E"/>
<path d="M123.277 451.926L176.469 421.089L230.724 451.926L177.533 482.764L123.277 451.926Z" fill="#C0D03E"/>
<path d="M230.659 451.958L230.617 515.228L177 545.5L176.383 482.763L230.659 451.958Z" fill="#C0D03E"/>
<path d="M423.277 372.175V435.444L477.533 466.282V403.012L423.277 372.175Z" fill="#E6E6E5"/>
<path d="M531.723 496.587L531.755 559.857L586.031 590.662L585.989 527.392L531.723 496.587Z" fill="#E6E6E5"/>
<path d="M531.68 433.85L531.722 497.119L584.892 465.718L584.85 402.98L531.68 433.85Z" fill="#231F20"/>
<path d="M477.406 403.044L477.449 466.314L531.725 497.119L531.683 433.849L477.406 403.044Z" fill="#E6E6E5"/>
<path d="M855.128 370.08L855.085 433.35L800.809 464.155L800.851 400.886L855.128 370.08Z" fill="#C0D03E"/>
<path d="M800.874 400.917L800.831 464.187L746.555 494.992L746.597 431.722L800.874 400.917Z" fill="#C0D03E"/>
<path d="M961.511 618.905L961.468 682.175L907.191 712.98L907.234 649.711L961.511 618.905Z" fill="#C0D03E"/>
<path d="M1015.76 588.068L1015.72 651.338L961.445 682.143L961.488 618.874L1015.76 588.068Z" fill="#C0D03E"/>
<path d="M961.511 681.644L961.468 744.913L907.191 775.719L907.234 712.449L961.511 681.644Z" fill="#C0D03E"/>
<path d="M1015.76 650.806L1015.72 714.075L961.445 744.881L961.488 681.611L1015.76 650.806Z" fill="#C0D03E"/>
<path d="M961.511 744.381L961.468 807.651L907.191 838.456L907.234 775.186L961.511 744.381Z" fill="#C0D03E"/>
<path d="M1015.76 713.544L1015.72 776.814L961.445 807.619L961.488 744.349L1015.76 713.544Z" fill="#C0D03E"/>
<path d="M961.511 807.119L961.468 870.389L907.191 901.194L907.234 837.925L961.511 807.119Z" fill="#C0D03E"/>
<path d="M1015.76 776.282L1015.72 839.552L961.445 870.357L961.488 807.088L1015.76 776.282Z" fill="#C0D03E"/>
<path d="M961.51 869.857L961.468 933.127L911.574 964.464V898.536L961.51 869.857Z" fill="#C0D03E"/>
<path d="M1015.76 839.02L1015.72 902.289L961.445 933.095L961.488 869.825L1015.76 839.02Z" fill="#C0D03E"/>
<path d="M855.128 432.818L855.085 496.088L800.809 526.893L800.851 463.624L855.128 432.818Z" fill="#C0D03E"/>
<path d="M800.874 463.655L800.831 526.925L746.555 557.73L746.597 494.461L800.874 463.655Z" fill="#C0D03E"/>
<path d="M423.172 434.977L423.214 498.246L477.491 529.052L477.448 465.782L423.172 434.977Z" fill="#E6E6E5"/>
<path d="M477.445 465.782L477.488 529.052L531.754 559.857L531.722 496.588L477.445 465.782Z" fill="#E6E6E5"/>
<path d="M531.754 559.325L531.796 622.595L586.073 653.4L586.031 590.131L531.754 559.325Z" fill="#E6E6E5"/>
<path d="M423.211 497.715L423.243 560.985L477.519 591.79L477.488 528.52L423.211 497.715Z" fill="#E6E6E5"/>
<path d="M477.488 528.52L477.52 591.789L531.797 622.595L531.754 559.325L477.488 528.52Z" fill="#E6E6E5"/>
<path d="M531.797 622.063L531.839 685.333L586.116 716.139L586.073 652.869L531.797 622.063Z" fill="#E6E6E5"/>
<path d="M423.246 560.452L423.289 623.722L477.565 654.527L477.523 591.258L423.246 560.452Z" fill="#E6E6E5"/>
<path d="M477.52 591.258L477.562 654.528L531.839 685.333L531.796 622.063L477.52 591.258Z" fill="#E6E6E5"/>
<path d="M531.789 433.849L584.981 403.012L639.236 433.849L586.044 464.686L531.789 433.849Z" fill="#C0D03E"/>
<path d="M530.723 372.174L583.914 341.337L638.169 372.174L584.978 403.012L530.723 372.174Z" fill="#C0D03E"/>
<path d="M584.98 403.012L638.172 372.175L692.427 403.012L639.236 433.849L584.98 403.012Z" fill="#C0D03E"/>
<path d="M476.469 341.337L529.66 310.5L583.916 341.337L530.724 372.175L476.469 341.337Z" fill="#C0D03E"/>
<path d="M586.043 339.21L639.234 308.373L693.49 339.21L640.298 370.048L586.043 339.21Z" fill="#C0D03E"/>
<path d="M640.297 370.048L693.488 339.211L747.744 370.048L694.552 400.886L640.297 370.048Z" fill="#C0D03E"/>
<path d="M694.555 400.885L747.746 370.048L802.001 400.885L748.81 431.723L694.555 400.885Z" fill="#C0D03E"/>
<path d="M639.234 308.373L692.426 277.536L746.681 308.373L693.49 339.211L639.234 308.373Z" fill="#C0D03E"/>
<path d="M693.488 339.21L746.68 308.373L800.935 339.21L747.744 370.048L693.488 339.21Z" fill="#C0D03E"/>
<path d="M746.68 557.199L799.871 526.361L854.126 557.199L800.935 588.036L746.68 557.199Z" fill="#C0D03E"/>
<path d="M799.871 526.362L853.063 495.524L907.318 526.362L854.126 557.199L799.871 526.362Z" fill="#C0D03E"/>
<path d="M800.938 588.036L854.129 557.198L908.384 588.036L855.193 618.873L800.938 588.036Z" fill="#C0D03E"/>
<path d="M854.129 557.199L907.32 526.361L961.576 557.199L908.384 588.036L854.129 557.199Z" fill="#C0D03E"/>
<path d="M855.191 618.873L908.383 588.036L962.638 618.873L909.447 649.711L855.191 618.873Z" fill="#C0D03E"/>
<path d="M908.383 588.036L961.574 557.198L1015.83 588.036L962.638 618.873L908.383 588.036Z" fill="#C0D03E"/>
<path d="M747.746 370.048L800.938 339.211L855.193 370.048L802.001 400.886L747.746 370.048Z" fill="#C0D03E"/>
<path d="M477.531 403.012L530.723 372.175L584.978 403.012L531.787 433.849L477.531 403.012Z" fill="#C0D03E"/>
<path d="M423.277 372.174L476.469 341.337L530.724 372.174L477.533 403.012L423.277 372.174Z" fill="#C0D03E"/>
<path d="M531.68 433.85L531.722 497.119L585.988 527.925L585.956 464.655L531.68 433.85Z" fill="#E6E6E5"/>
<path d="M422.078 622.743V684.5L478.812 717.712V654.712L422.078 622.743Z" fill="#E6E6E5"/>
<path d="M478.16 653.655L477.395 716.925L531.278 748.411L532.043 685.152L478.16 653.655Z" fill="#E6E6E5"/>
<path d="M531.5 685L529.156 747.198L585.808 779.075L585.777 715.805L531.5 685Z" fill="#E6E6E5"/>
<path d="M585.988 527.393L586.031 590.662L640.307 621.468L640.265 558.198L585.988 527.393Z" fill="#E6E6E5"/>
<path d="M586.031 590.131L586.074 653.401L640.35 684.206L640.308 620.936L586.031 590.131Z" fill="#E6E6E5"/>
<path d="M586.074 652.869L586.117 716.139L640.383 746.944L640.351 683.675L586.074 652.869Z" fill="#E6E6E5"/>
<path d="M585.957 464.654L585.989 527.924L640.266 558.729L640.234 495.46L585.957 464.654Z" fill="#E6E6E5"/>
<path d="M585.914 401.917L585.957 465.187L640.233 495.992L640.191 432.722L585.914 401.917Z" fill="#E6E6E5"/>
<path d="M640.172 432.754L640.214 496.024L694.491 526.829L694.448 463.559L640.172 432.754Z" fill="#E6E6E5"/>
<path d="M586.043 339.211V402.481L640.298 433.318V370.048L586.043 339.211Z" fill="#E6E6E5"/>
<path d="M640.297 370.048V433.318L694.552 464.155V400.885L640.297 370.048Z" fill="#E6E6E5"/>
<path d="M694.555 400.886V464.155L748.81 494.993V431.723L694.555 400.886Z" fill="#E6E6E5"/>
<path d="M691 459L694.383 526.595L748.638 557.432V494.163L691 459Z" fill="#E6E6E5"/>
<path d="M640.172 495.492L640.214 558.762L694.491 589.567L694.448 526.298L640.172 495.492Z" fill="#E6E6E5"/>
<path d="M691 521L694 590L748.638 620.5V556.163L691 521Z" fill="#E6E6E5"/>
<path d="M748.223 557.945L748.255 621.215L802.531 652.02L802.499 588.751L748.223 557.945Z" fill="#E6E6E5"/>
<path d="M802 588.5V652L857.257 683.143L857.214 619.873L802 588.5Z" fill="#E6E6E5"/>
<path d="M855 618.5V683.5L911.576 714.044V650.774L855 618.5Z" fill="#E6E6E5"/>
<path d="M747.496 618.499V683.499L803.031 715.043L802.999 651.773L747.496 618.499Z" fill="#E6E6E5"/>
<path d="M802.938 651.806L802.98 715.075L857.257 745.881L857.214 682.611L802.938 651.806Z" fill="#E6E6E5"/>
<path d="M856.16 681.956V746.956L912.736 777.5V714.23L856.16 681.956Z" fill="#E6E6E5"/>
<path d="M748.723 683.706L748.755 746.976L803.031 777.781L802.999 714.512L748.723 683.706Z" fill="#E6E6E5"/>
<path d="M802.938 714.543L802.98 777.813L857.257 808.618L857.214 745.348L802.938 714.543Z" fill="#E6E6E5"/>
<path d="M856.16 744.694V809.694L912.736 840.238V776.968L856.16 744.694Z" fill="#E6E6E5"/>
<path d="M748.723 746.444L748.755 809.714L803.031 840.519L802.999 777.25L748.723 746.444Z" fill="#E6E6E5"/>
<path d="M802.938 777.281L802.98 840.551L857.257 871.356L857.214 808.087L802.938 777.281Z" fill="#E6E6E5"/>
<path d="M856.16 807.432V872.432L912.736 902.975V839.705L856.16 807.432Z" fill="#E6E6E5"/>
<path d="M748.723 808.119L748.755 871.389L803.031 902.194L802.999 838.925L748.723 808.119Z" fill="#E6E6E5"/>
<path d="M802.938 838.956L802.98 902.226L857.257 933.031L857.214 869.762L802.938 838.956Z" fill="#E6E6E5"/>
<path d="M856.5 869.5L855.5 932L909.5 964L911.576 900.663L856.5 869.5Z" fill="#E6E6E5"/>
<path d="M640.172 558.23L640.214 621.5L694.491 652.306L694.448 589.036L640.172 558.23Z" fill="#E6E6E5"/>
<path d="M691 584L694 653L748.638 683.5V619.163L691 584Z" fill="#E6E6E5"/>
<path d="M640.172 620.968L640.214 684.237L694.491 715.043L694.448 651.773L640.172 620.968Z" fill="#E6E6E5"/>
<path d="M693 651.999V714.999L748.81 745.944V682.674L693 651.999Z" fill="#E6E6E5"/>
<path d="M640.172 683.706L640.214 746.976L694.491 777.781L694.448 714.512L640.172 683.706Z" fill="#E6E6E5"/>
<path d="M694 714L694.555 777.845L748.81 808.682V745.413L694 714Z" fill="#E6E6E5"/>
<path d="M640.172 746.444L640.214 809.714L694.491 840.519L694.448 777.25L640.172 746.444Z" fill="#E6E6E5"/>
<path d="M694.555 777.313L686.5 836L748.81 871.42V808.151L694.555 777.313Z" fill="#E6E6E5"/>
<path d="M585 715.5L583 777.5L640.308 810.075L640.266 746.805L585 715.5Z" fill="#E6E6E5"/>
<path d="M500.938 667.788L554.129 636.95L608.384 667.788L555.193 698.625L500.938 667.788Z" fill="#C0D03E"/>
<path d="M555.191 698.625L608.383 667.788L662.638 698.625L609.447 729.463L555.191 698.625Z" fill="#C0D03E"/>
<path d="M609.445 729.462L662.637 698.625L716.892 729.462L663.701 760.3L609.445 729.462Z" fill="#C0D03E"/>
<path d="M716.831 729.494L716.788 792.764L662.512 823.569L662.554 760.3L716.831 729.494Z" fill="#C0D03E"/>
<path d="M909.445 649.711V712.981L963.701 743.818V680.548L909.445 649.711Z" fill="#E6E6E5"/>
<path d="M1017.89 774.123L1017.93 837.393L1072.2 868.198L1072.16 804.928L1017.89 774.123Z" fill="#E6E6E5"/>
<path d="M1017.85 711.385L1017.89 774.655L1071.06 743.254L1071.02 680.516L1017.85 711.385Z" fill="#231F20"/>
<path d="M963.574 680.58L963.617 743.85L1017.89 774.655L1017.85 711.385L963.574 680.58Z" fill="#E6E6E5"/>
<path d="M1341.3 647.616L1341.26 710.886L1286.98 741.691L1287.02 678.422L1341.3 647.616Z" fill="#C0D03E"/>
<path d="M1287.04 678.453L1287 741.723L1232.72 772.528L1232.77 709.259L1287.04 678.453Z" fill="#C0D03E"/>
<path d="M1447.68 896.441L1447.64 959.711L1393.36 990.516L1393.41 927.247L1447.68 896.441Z" fill="#C0D03E"/>
<path d="M1447.68 959.18L1447.64 1022.45L1393.36 1053.25L1393.41 989.985L1447.68 959.18Z" fill="#C0D03E"/>
<path d="M1447.68 1021.92L1447.64 1085.19L1393.36 1115.99L1393.41 1052.72L1447.68 1021.92Z" fill="#C0D03E"/>
<path d="M1341.3 710.354L1341.26 773.623L1286.98 804.429L1287.02 741.159L1341.3 710.354Z" fill="#C0D03E"/>
<path d="M1287.04 741.191L1287 804.461L1232.72 835.266L1232.77 771.997L1287.04 741.191Z" fill="#C0D03E"/>
<path d="M909.34 712.513L909.382 775.782L963.659 806.588L963.616 743.318L909.34 712.513Z" fill="#E6E6E5"/>
<path d="M963.617 743.318L963.66 806.588L1017.93 837.393L1017.89 774.124L963.617 743.318Z" fill="#E6E6E5"/>
<path d="M1017.93 836.861L1017.97 900.131L1072.24 930.936L1072.2 867.667L1017.93 836.861Z" fill="#E6E6E5"/>
<path d="M909.383 775.25L909.415 838.52L963.691 869.325L963.659 806.055L909.383 775.25Z" fill="#E6E6E5"/>
<path d="M963.66 806.056L963.692 869.325L1017.97 900.131L1017.93 836.861L963.66 806.056Z" fill="#E6E6E5"/>
<path d="M1017.97 899.6L1018.01 962.869L1072.29 993.675L1072.25 930.405L1017.97 899.6Z" fill="#E6E6E5"/>
<path d="M909.414 837.988L909.457 901.258L963.733 932.063L963.691 868.794L909.414 837.988Z" fill="#E6E6E5"/>
<path d="M963.691 868.794L963.734 932.064L1018.01 962.869L1017.97 899.599L963.691 868.794Z" fill="#E6E6E5"/>
<path d="M1017.96 711.385L1071.15 680.548L1125.4 711.385L1072.21 742.223L1017.96 711.385Z" fill="#C0D03E"/>
<path d="M1016.89 649.71L1070.09 618.873L1124.34 649.71L1071.15 680.548L1016.89 649.71Z" fill="#C0D03E"/>
<path d="M1071.15 680.548L1124.34 649.711L1178.6 680.548L1125.4 711.386L1071.15 680.548Z" fill="#C0D03E"/>
<path d="M962.637 618.873L1015.83 588.036L1070.08 618.873L1016.89 649.711L962.637 618.873Z" fill="#C0D03E"/>
<path d="M1072.21 616.747L1125.4 585.909L1179.66 616.747L1126.47 647.584L1072.21 616.747Z" fill="#C0D03E"/>
<path d="M1126.47 647.583L1179.66 616.746L1233.92 647.583L1180.72 678.421L1126.47 647.583Z" fill="#C0D03E"/>
<path d="M1180.72 678.421L1233.91 647.584L1288.17 678.421L1234.98 709.259L1180.72 678.421Z" fill="#C0D03E"/>
<path d="M1125.41 585.91L1178.6 555.072L1232.85 585.91L1179.66 616.747L1125.41 585.91Z" fill="#C0D03E"/>
<path d="M1179.66 616.747L1232.85 585.909L1287.11 616.747L1233.92 647.584L1179.66 616.747Z" fill="#C0D03E"/>
<path d="M1232.85 834.735L1286.04 803.897L1340.3 834.735L1287.11 865.572L1232.85 834.735Z" fill="#C0D03E"/>
<path d="M1286.04 803.897L1339.23 773.06L1393.49 803.897L1340.3 834.734L1286.04 803.897Z" fill="#C0D03E"/>
<path d="M1287.11 865.572L1340.3 834.734L1394.55 865.572L1341.36 896.409L1287.11 865.572Z" fill="#C0D03E"/>
<path d="M1340.3 834.735L1393.49 803.897L1447.74 834.735L1394.55 865.572L1340.3 834.735Z" fill="#C0D03E"/>
<path d="M1341.36 896.41L1394.55 865.572L1448.81 896.41L1395.62 927.247L1341.36 896.41Z" fill="#C0D03E"/>
<path d="M1394.55 865.572L1447.75 834.734L1502 865.572L1448.81 896.409L1394.55 865.572Z" fill="#C0D03E"/>
<path d="M1233.91 647.583L1287.11 616.746L1341.36 647.583L1288.17 678.421L1233.91 647.583Z" fill="#C0D03E"/>
<path d="M963.703 680.548L1016.89 649.711L1071.15 680.548L1017.96 711.386L963.703 680.548Z" fill="#C0D03E"/>
<path d="M909.445 649.71L962.637 618.873L1016.89 649.71L963.701 680.548L909.445 649.71Z" fill="#C0D03E"/>
<path d="M1017.85 711.385L1017.89 774.654L1072.16 805.46L1072.13 742.19L1017.85 711.385Z" fill="#E6E6E5"/>
<path d="M909.457 900.727L909.5 963.996L963.776 994.802L963.734 931.532L909.457 900.727Z" fill="#E6E6E5"/>
<path d="M963.562 930.499V994.461L1017.45 1025.95L1018.21 962.688L963.562 930.499Z" fill="#E6E6E5"/>
<path d="M1018.01 962.337L1016 1025L1072.32 1056.41L1072.29 993.142L1018.01 962.337Z" fill="#E6E6E5"/>
<path d="M1072.16 804.929L1072.2 868.198L1126.48 899.004L1126.44 835.734L1072.16 804.929Z" fill="#E6E6E5"/>
<path d="M1072.2 867.667L1072.25 930.937L1126.52 961.742L1126.48 898.472L1072.2 867.667Z" fill="#E6E6E5"/>
<path d="M1072.25 930.404L1072.29 993.674L1126.55 1024.48L1126.52 961.21L1072.25 930.404Z" fill="#E6E6E5"/>
<path d="M1072.13 742.19L1072.16 805.46L1126.44 836.266L1126.41 772.996L1072.13 742.19Z" fill="#E6E6E5"/>
<path d="M1072.09 679.453L1072.13 742.723L1126.41 773.528L1126.36 710.259L1072.09 679.453Z" fill="#E6E6E5"/>
<path d="M1126.34 710.29L1126.38 773.56L1180.66 804.365L1180.62 741.096L1126.34 710.29Z" fill="#E6E6E5"/>
<path d="M1072.21 616.746V680.016L1126.47 710.853V647.583L1072.21 616.746Z" fill="#E6E6E5"/>
<path d="M1126.47 647.584V710.854L1180.72 741.691V678.421L1126.47 647.584Z" fill="#E6E6E5"/>
<path d="M1180.72 678.421V741.691L1234.98 772.528V709.258L1180.72 678.421Z" fill="#E6E6E5"/>
<path d="M1179.5 740.5V804.5L1235.26 835.107V771.837L1179.5 740.5Z" fill="#E6E6E5"/>
<path d="M1126.34 773.028L1126.38 836.298L1180.66 867.103L1180.62 803.834L1126.34 773.028Z" fill="#E6E6E5"/>
<path d="M1179.97 803.647V867.647L1235.73 898.254V834.985L1179.97 803.647Z" fill="#E6E6E5"/>
<path d="M1234.89 835.766L1234.93 899.035L1289.2 929.841L1289.17 866.571L1234.89 835.766Z" fill="#E6E6E5"/>
<path d="M1289 866.499V932.499L1350 964.999L1352 902.499L1289 866.499Z" fill="#E6E6E5"/>
<path d="M1343.49 897.473V960.742L1397.74 991.58V928.31L1343.49 897.473Z" fill="#E6E6E5"/>
<path d="M1234.89 898.504L1234.93 961.774L1289.2 992.579L1289.17 929.309L1234.89 898.504Z" fill="#E6E6E5"/>
<path d="M1288.32 928.681L1288.36 991.95L1344.21 1024.08V960.077L1288.32 928.681Z" fill="#E6E6E5"/>
<path d="M1343.49 960.211V1023.48L1397.74 1054.32V991.048L1343.49 960.211Z" fill="#E6E6E5"/>
<path d="M1234.89 961.242L1234.93 1024.51L1289.2 1055.32L1289.17 992.048L1234.89 961.242Z" fill="#E6E6E5"/>
<path d="M1288.32 991.419L1288.36 1054.69L1344.21 1086.82V1022.82L1288.32 991.419Z" fill="#E6E6E5"/>
<path d="M1343.49 1022.95V1086.22L1397.74 1117.06V1053.79L1343.49 1022.95Z" fill="#E6E6E5"/>
<path d="M1234.89 1023.98L1234.93 1087.25L1289.2 1118.06L1289.17 1054.79L1234.89 1023.98Z" fill="#E6E6E5"/>
<path d="M1288.32 1054.16L1288.36 1117.43L1344.21 1149.55V1085.55L1288.32 1054.16Z" fill="#E6E6E5"/>
<path d="M1126.34 835.766L1126.38 899.035L1180.66 929.841L1180.62 866.571L1126.34 835.766Z" fill="#E6E6E5"/>
<path d="M1179.97 866.386V930.386L1235.73 960.993V897.723L1179.97 866.386Z" fill="#E6E6E5"/>
<path d="M1126.34 898.504L1126.38 961.774L1180.66 992.579L1180.62 929.309L1126.34 898.504Z" fill="#E6E6E5"/>
<path d="M1179.97 929.124V993.124L1235.73 1023.73V960.461L1179.97 929.124Z" fill="#E6E6E5"/>
<path d="M1126.34 961.242L1126.38 1024.51L1180.66 1055.32L1180.62 992.048L1126.34 961.242Z" fill="#E6E6E5"/>
<path d="M1180.72 992.111V1055.38L1234.98 1086.22V1022.95L1180.72 992.111Z" fill="#E6E6E5"/>
<path d="M1126.34 1023.98L1126.38 1087.25L1180.66 1118.06L1180.62 1054.79L1126.34 1023.98Z" fill="#E6E6E5"/>
<path d="M1181.93 1055.5L1178.93 1117L1236.18 1149.61V1086.34L1181.93 1055.5Z" fill="#E6E6E5"/>
<path d="M1072.29 993.143L1072.32 1056.41L1126.6 1087.22L1126.56 1023.95L1072.29 993.143Z" fill="#E6E6E5"/>
<path d="M987.105 945.324L1040.3 914.486L1094.55 945.324L1041.36 976.161L987.105 945.324Z" fill="#C0D03E"/>
<path d="M1041.36 976.161L1094.55 945.323L1148.81 976.161L1095.62 1007L1041.36 976.161Z" fill="#C0D03E"/>
<path d="M1095.62 1007L1148.81 976.161L1203.06 1007L1149.87 1037.84L1095.62 1007Z" fill="#C0D03E"/>
<path d="M1203 1007.03L1202.96 1070.3L1148.68 1101.11L1148.72 1037.84L1203 1007.03Z" fill="#C0D03E"/>
</g>
<defs>
<clipPath id="clip0_521_5574">
<rect width="1565" height="1242" fill="white" transform="translate(-63)"/>
</clipPath>
</defs>
</svg>
